<?xml version="1.0" encoding="UTF-8" standalone="no"?>
<!-- Created with Inkscape (http://www.inkscape.org/) -->
<svg
   xmlns:dc="http://purl.org/dc/elements/1.1/"
   xmlns:cc="http://creativecommons.org/ns#"
   xmlns:rdf="http://www.w3.org/1999/02/22-rdf-syntax-ns#"
   xmlns:svg="http://www.w3.org/2000/svg"
   xmlns="http://www.w3.org/2000/svg"
   xmlns:sodipodi="http://sodipodi.sourceforge.net/DTD/sodipodi-0.dtd"
   xmlns:inkscape="http://www.inkscape.org/namespaces/inkscape"
   width="744.09448819"
   height="1052.3622047"
   id="svg2"
   sodipodi:version="0.32"
   inkscape:version="0.46"
   sodipodi:docname="anto-zeli.svg"
   inkscape:output_extension="org.inkscape.output.svg.inkscape">
  <defs
     id="defs4">
    <inkscape:perspective
       sodipodi:type="inkscape:persp3d"
       inkscape:vp_x="0 : 526.18109 : 1"
       inkscape:vp_y="0 : 1000 : 0"
       inkscape:vp_z="744.09448 : 526.18109 : 1"
       inkscape:persp3d-origin="372.04724 : 350.78739 : 1"
       id="perspective10" />
    <inkscape:perspective
       id="perspective2691"
       inkscape:persp3d-origin="372.04724 : 350.78739 : 1"
       inkscape:vp_z="744.09448 : 526.18109 : 1"
       inkscape:vp_y="0 : 1000 : 0"
       inkscape:vp_x="0 : 526.18109 : 1"
       sodipodi:type="inkscape:persp3d" />
  </defs>
  <sodipodi:namedview
     id="base"
     pagecolor="#ffffff"
     bordercolor="#666666"
     borderopacity="1.0"
     gridtolerance="10000"
     guidetolerance="10"
     objecttolerance="10"
     inkscape:pageopacity="0.0"
     inkscape:pageshadow="2"
     inkscape:zoom="0.43901235"
     inkscape:cx="570.73185"
     inkscape:cy="568.02258"
     inkscape:document-units="px"
     inkscape:current-layer="layer1"
     showgrid="false"
     inkscape:window-width="723"
     inkscape:window-height="690"
     inkscape:window-x="0"
     inkscape:window-y="34" />
  <metadata
     id="metadata7">
    <rdf:RDF>
      <cc:Work
         rdf:about="">
        <dc:format>image/svg+xml</dc:format>
        <dc:type
           rdf:resource="http://purl.org/dc/dcmitype/StillImage" />
      </cc:Work>
    </rdf:RDF>
  </metadata>
  <g
     inkscape:label="Layer 1"
     inkscape:groupmode="layer"
     id="layer1">
    <path
       style="fill:#000000"
       d="M 413.11341,1084.2025 C 392.11098,1068.4954 376.67819,1046.6066 369.13899,1021.8323 L 366.39105,1012.8024 L 356.80266,1019.241 C 333.98301,1034.5644 310.8468,1041.388 286.27444,1040.042 C 271.97537,1039.2587 261.61346,1036.575 249.21428,1030.4435 C 218.6852,1015.3467 199.6713,984.68739 199.73164,950.65439 C 199.7885,918.58889 217.53453,890.79669 246.83822,876.88049 C 269.42138,866.15579 293.05562,869.52399 304.02983,885.03109 C 306.9298,889.12889 309.21458,896.36219 307.60897,896.36219 C 307.11689,896.36219 306.71428,895.92869 306.71428,895.39879 C 306.71428,892.96999 294.21259,881.26759 288.88047,878.70519 C 281.43532,875.12729 267.54658,874.29969 257.71428,876.84789 C 235.40639,882.62949 216.46311,902.37709 209.55419,927.05289 C 206.48072,938.02999 206.48589,955.53389 209.56603,967.18619 C 216.14617,992.07909 232.53767,1010.8961 258.09167,1022.8923 C 273.3177,1030.0401 282.32994,1031.8764 301.71428,1031.7807 C 316.68072,1031.7068 319.04618,1031.4462 327.16494,1028.9769 C 338.60707,1025.4969 349.66419,1019.7322 357.8534,1012.9774 L 364.31464,1007.6479 L 363.89824,995.14019 C 363.17993,973.56389 366.61847,957.10389 374.17433,945.94949 C 381.01056,935.85739 388.186,931.65029 395.34832,933.53469 C 401.43805,935.13689 404.31895,944.00709 402.63262,955.96269 C 400.92722,968.05349 395.20104,978.18989 379.26347,997.33049 C 374.01142,1003.6381 369.71428,1009.1274 369.71428,1009.5289 C 369.71428,1011.1761 374.92226,1026.5853 377.31614,1032.021 C 383.83111,1046.8143 397.6879,1063.2551 411.95241,1073.1161 L 419.3295,1078.2159 L 424.67431,1075.2931 C 440.64973,1066.5569 455.59375,1049.9842 463.58154,1032.1456 C 467.93862,1022.4153 470.95413,1012.5935 470.03394,1011.1296 C 469.58313,1010.4125 466.01849,1005.5589 462.11253,1000.344 C 447.19524,980.42739 440.66828,965.97649 439.98924,951.36219 C 439.50273,940.89149 441.27538,937.17319 447.66646,935.25839 C 465.21978,929.99929 479.78066,959.78839 476.56698,994.38389 C 475.66066,1004.1406 475.72926,1006.4623 477.01479,1009.539 C 478.95731,1014.1881 486.10278,1019.8228 497.35384,1025.5778 C 512.91613,1033.5381 525.37052,1036.5774 542.34139,1036.5565 C 578.6155,1036.5118 612.75651,1015.7359 627.29053,984.86219 C 633.56012,971.54409 635.04462,964.10799 634.5149,948.67409 C 634.13616,937.63919 633.65002,934.64699 631.00999,927.10099 C 626.78286,915.01859 622.55807,908.29969 613.21428,898.79989 C 600.08114,885.44729 586.10201,879.70899 568.76295,880.55289 C 555.77812,881.18479 545.05953,886.84479 540.71303,895.36469 C 538.9642,898.79259 536.1001,901.08129 534.97149,899.95269 C 534.02244,899.00369 536.9485,892.34309 540.16513,888.13039 C 544.33885,882.66419 553.00562,877.92599 561.69681,876.35879 C 573.00988,874.31879 584.73471,876.71799 598.71428,883.93349 C 624.45985,897.22209 637.35206,916.02389 640.74804,945.23509 C 643.21746,966.47629 637.70294,990.08079 626.2444,1007.3169 C 615.62885,1023.285 597.56375,1035.4609 576.21428,1041.0373 C 567.42806,1043.3322 564.21154,1043.6537 549.71428,1043.6855 C 536.42455,1043.7147 531.45167,1043.3144 524.15488,1041.6279 C 506.93876,1037.6489 492.90772,1031.0308 480.51333,1021.0432 C 477.21986,1018.3893 474.41913,1016.3629 474.2895,1016.5401 C 474.15987,1016.7172 472.79898,1020.4622 471.2653,1024.8622 C 464.73103,1043.6085 454.38716,1059.7327 440.10617,1073.4335 C 433.35602,1079.9094 421.6651,1089.3622 420.40611,1089.3622 C 420.18965,1089.3622 416.90793,1087.0403 413.11341,1084.2025 z"
       id="path3027" />
    <path
       style="fill:#000000"
       d="M 472.98496,995.61219 C 473.28444,991.89969 473.09861,984.58719 472.57202,979.36219 C 470.06978,954.53429 461.87041,939.36219 450.95507,939.36219 C 445.67483,939.36219 444.30389,941.35739 443.88506,949.65139 C 443.25877,962.05369 447.39075,972.84939 459.35441,990.06829 C 469.3814,1004.4998 472.17633,1005.6366 472.98496,995.61219 z"
       id="path3025" />
    <path
       style="fill:#000000"
       d="M 389.53507,978.02759 C 394.36365,970.03589 397.84982,959.14389 398.4686,950.11619 C 398.96132,942.92749 398.81808,942.10159 396.685,939.83099 C 391.99066,934.83409 383.62304,937.56149 378.43598,945.77909 C 374.99285,951.23389 371.13534,963.00639 369.25167,973.80809 C 367.64802,983.00409 367.16788,999.46509 368.46428,1000.8028 C 369.53741,1001.9101 385.58649,984.56279 389.53507,978.02759 z"
       id="path3023" />
    <path
       style="fill:#000000"
       d="M 416.95519,1014.0459 C 413.23945,1007.7482 409.62862,997.29039 408.50272,989.56559 C 407.1063,979.98479 408.32714,969.04889 410.84652,968.57069 C 412.26926,968.30069 412.48216,969.58339 412.50529,978.56509 C 412.52126,984.76959 413.18113,991.37509 414.16376,995.16719 C 415.88416,1001.8065 418.64727,1008.3622 419.72518,1008.3622 C 420.07744,1008.3622 421.37192,1007.2911 422.6018,1005.9819 C 425.54451,1002.8496 427.50145,996.09049 428.21832,986.58309 C 429.58253,968.49019 430.64817,966.41909 432.65723,977.95599 C 434.29433,987.35689 432.53792,997.81909 427.70493,1007.4547 C 425.51222,1011.8264 420.99807,1017.3622 419.62596,1017.3622 C 419.23319,1017.3622 418.03134,1015.8699 416.95519,1014.0459 z"
       id="path3021" />
    <path
       style="fill:#000000"
       d="M 511.71428,957.15629 C 496.95054,951.51449 485.30463,940.63279 478.22244,925.86219 C 472.61017,914.15719 471.26087,908.14519 471.37717,895.36219 C 471.54818,876.56609 478.12476,861.70839 492.62375,847.36219 C 504.59276,835.51929 516.76564,828.83589 533.21428,825.07629 C 544.39617,822.52049 547.06886,822.25089 561.01656,822.27119 C 582.05251,822.30179 595.49975,825.62349 615.07699,835.62489 C 628.87287,842.67279 641.22501,851.14379 679.71428,879.95289 C 698.13924,893.74389 716.64634,907.32909 720.84104,910.14209 C 738.69244,922.11369 757.50834,930.19909 772.67834,932.41729 C 803.43204,936.91409 832.21524,919.82949 836.97124,894.25569 C 841.11364,871.98109 823.26964,843.73089 800.39214,836.34469 C 796.63994,835.13329 792.36494,833.08089 790.89214,831.78379 L 788.21424,829.42539 L 791.21424,829.41959 C 795.58984,829.41119 806.45744,833.35869 813.11184,837.37369 C 820.56104,841.86819 829.69974,850.92679 834.08424,858.16219 C 850.92124,885.94689 841.31164,919.48009 812.58654,933.17959 C 800.47444,938.95599 792.49464,940.69369 778.21424,940.66459 C 759.58824,940.62649 746.81934,937.38519 726.21424,927.46449 C 711.16034,920.21649 691.99984,907.40829 655.97431,880.51139 C 623.15676,856.00959 613.37689,849.29189 600.5558,842.44499 C 582.39137,832.74439 569.52186,829.19139 552.21428,829.09859 C 528.01318,828.96899 511.08882,835.78379 494.65794,852.27469 C 484.5546,862.41479 479.7793,871.15219 477.14166,884.32439 C 472.80849,905.96379 480.0895,927.57949 496.80777,942.70869 C 502.25269,947.63609 504.69088,949.12419 515.70248,954.24129 C 519.13261,955.83519 521.13336,959.41229 518.5376,959.31009 C 517.80978,959.28139 514.73928,958.31219 511.71428,957.15629 z"
       id="path3019" />
    <path
       style="fill:#000000"
       d="M 323.71428,953.35009 C 325.08928,952.26779 330.26428,949.28289 335.21428,946.71689 C 350.89576,938.58789 361.93941,924.75639 366.20563,907.90209 C 368.13068,900.29699 368.11809,885.70069 366.17939,877.47619 C 361.29575,856.75869 342.07654,836.40009 320.09725,828.66209 C 312.54665,826.00379 311.43427,825.88869 293.71428,825.93089 C 270.84207,825.98549 265.43361,827.26499 244.78987,837.50559 C 230.58117,844.55399 210.31919,857.63149 172.21428,884.34749 C 134.50114,910.78879 109.3445,923.35549 84.924093,927.95229 C 74.311173,929.94999 53.402723,929.39579 44.214283,926.87319 C 28.063743,922.43919 11.547443,910.82099 5.4383329,899.59649 C -2.2771271,885.42069 -2.0759771,866.30539 5.9501929,850.95529 C 10.777023,841.72389 24.197563,828.77229 34.214283,823.67869 C 48.437873,816.44599 57.283683,814.56119 54.745253,819.30429 C 54.100513,820.50899 52.235843,821.49779 49.952133,821.84579 C 40.277603,823.32039 22.710843,835.14979 15.394083,845.11729 C 8.6727329,854.27359 5.5139029,862.46999 4.9611929,872.18829 C 3.8122929,892.38959 11.943553,905.63989 31.413433,915.29369 C 40.673123,919.88489 49.486043,921.69209 62.214283,921.60969 C 85.398743,921.45949 107.29195,912.17179 138.72013,889.15379 C 186.10015,854.45259 203.54583,842.84079 223.35888,832.81839 C 237.17971,825.82719 253.61454,820.09479 264.95744,818.30899 C 277.441,816.34369 300.1439,817.55269 311.21428,820.77239 C 329.62295,826.12639 345.95349,836.10649 355.95881,848.11729 C 385.23006,883.25569 371.86615,939.55139 330.99583,953.27429 C 322.8299,956.01609 320.29343,956.04249 323.71428,953.35009 z"
       id="path3017" />
    <path
       style="fill:#000000"
       d="M -52.470127,851.45969 C -64.668387,848.71579 -74.490567,843.28859 -83.263547,834.44499 C -87.400747,830.27439 -92.008407,824.57849 -93.502807,821.78729 C -96.241587,816.67199 -99.681907,805.42499 -98.782877,804.52599 C -97.581427,803.32459 -94.144937,808.18819 -91.730137,814.50769 C -88.270077,823.56249 -82.045657,831.04039 -72.848147,837.19209 C -49.871427,852.55979 -25.369387,851.69629 -8.7745771,834.93399 C 0.97383286,825.08719 5.7142829,812.96459 5.7142829,797.88199 C 5.7142829,776.14319 -5.6117671,755.59899 -39.785717,715.35003 C -56.142997,696.08496 -73.976417,674.37987 -80.446107,665.86218 C -102.29574,637.09599 -109.84516,611.03553 -104.76611,581.91005 C -101.18098,561.35144 -90.339877,543.46098 -74.600377,532.12926 L -70.415027,529.11601 L -76.476507,524.55952 C -88.789027,515.30403 -98.923057,499.6442 -103.46033,482.86218 C -105.25134,476.23776 -105.62486,472.11103 -105.63263,458.86218 C -105.64119,444.2523 -105.40353,442.08024 -102.89716,433.86218 C -96.282607,412.17391 -84.235307,394.76687 -39.943317,342.90071 C -6.8214871,304.11487 4.3540429,284.53674 5.4611829,263.35773 C 6.0716529,251.67974 4.7035529,244.60832 0.024112857,235.25468 C -4.5565471,226.09848 -12.159787,218.48932 -20.979587,214.23463 C -26.986267,211.33699 -28.974457,210.90397 -37.906157,210.54813 C -54.989947,209.86751 -68.265877,215.2936 -81.383827,228.31816 C -87.918427,234.80625 -89.287917,236.78707 -91.168047,242.47001 C -93.103997,248.3217 -97.464107,254.51712 -98.744947,253.23629 C -99.557167,252.42406 -96.689017,243.06344 -94.016077,237.80299 C -86.478977,222.96965 -71.662697,211.36501 -54.624287,206.94991 C -46.726757,204.90346 -33.195537,204.90756 -26.217217,206.95853 C -11.456737,211.29672 1.1428629,221.62811 7.4939929,234.60097 C 17.100443,254.22315 15.751423,279.47667 3.7953829,303.8387 C -4.7854371,321.32327 -18.664557,340.10722 -52.746437,380.36218 C -68.515297,398.98717 -74.293517,406.36018 -81.171187,416.63216 C -100.97539,446.21024 -104.42971,472.45026 -91.869597,497.90022 C -86.770017,508.23324 -78.314077,518.15759 -69.787017,523.81753 C -63.619457,527.91133 -62.927077,530.1284 -67.054707,532.56665 C -73.053547,536.11025 -80.404647,542.74353 -84.885117,548.65596 C -99.240967,567.59992 -102.80939,590.5371 -95.107267,614.36218 C -89.273947,632.4065 -80.772377,644.54373 -39.771477,693.36218 C 1.0378729,741.95254 12.197023,762.50949 13.427023,791.36219 C 13.839393,801.03529 13.589113,805.33219 12.320313,810.36219 C 6.8642029,831.99239 -8.9935071,847.50269 -30.101097,851.85409 C -39.142007,853.71789 -42.710707,853.65499 -52.470127,851.45969 z"
       id="path3007" />
    <path
       style="fill:#000000"
       d="M 851.71424,844.80989 C 830.44564,839.97719 815.54324,825.46939 810.12564,804.32269 C 807.61794,794.53399 808.57404,776.50319 812.19174,765.36219 C 819.39814,743.16908 830.27974,727.32427 870.22314,680.86218 C 899.39514,646.92937 906.45754,637.39512 913.72134,622.13956 C 918.53434,612.03115 920.60674,604.37609 921.38704,593.82435 C 923.10724,570.56011 910.84224,546.80506 890.46424,533.93284 C 887.30174,531.93518 884.71424,530.15221 884.71424,529.9707 C 884.71424,529.78918 887.60114,527.7737 891.12944,525.49186 C 910.98284,512.65243 923.04774,488.86578 921.37454,465.86218 C 919.70154,442.86126 909.47324,424.40423 878.70364,388.86218 C 839.89494,344.03415 826.18214,325.87899 817.66574,308.0505 C 810.63734,293.33729 808.38694,282.94512 808.96274,267.86218 C 809.34024,257.97443 809.89474,254.61955 812.11284,248.80264 C 817.52054,234.62108 829.37904,222.68742 843.37404,217.34319 C 850.70774,214.54272 865.97344,213.5656 874.94954,215.32211 C 892.19104,218.69603 909.04314,231.23382 916.90324,246.53521 C 919.52084,251.63077 922.04084,260.36896 921.14974,261.26 C 920.00834,262.40143 916.50894,257.3884 914.02164,251.04865 C 907.48264,234.38183 887.13604,220.60399 866.24244,218.69461 C 844.55354,216.71256 824.88424,230.91039 818.30964,253.29368 C 816.29204,260.16258 816.25714,273.15074 818.23534,280.90208 C 819.07194,284.18014 821.74604,291.01127 824.17784,296.08238 C 831.46544,311.27951 838.16824,320.39084 863.74164,349.86218 C 909.53424,402.63467 919.62844,417.11224 925.93294,439.06003 C 929.19864,450.42923 929.17814,473.34225 925.89194,484.86218 C 920.54044,503.62147 910.05704,518.34527 894.91964,528.36218 C 892.66984,529.85095 892.70224,529.89861 899.25604,534.72673 C 911.81504,543.97888 921.31344,558.31617 925.88404,574.9202 C 929.09094,586.57 929.11744,609.57828 925.93664,620.65068 C 919.33804,643.62077 909.29284,657.7864 857.35634,717.36218 C 835.25964,742.70903 822.05124,763.44369 818.20494,778.82229 C 811.37874,806.11519 826.09044,833.27629 851.24924,839.82929 C 868.75344,844.38859 889.07014,838.03709 903.80104,823.40049 C 910.17234,817.06979 911.82134,814.71929 914.09414,808.72819 C 916.51984,802.33389 919.98944,797.30399 921.16414,798.47879 C 921.85174,799.16629 919.96194,806.62139 917.87294,811.46269 C 907.85204,834.68529 876.56374,850.45619 851.71424,844.80989 z"
       id="path3003" />
    <path
       style="fill:#000000"
       d="M 43.998603,244.36168 C 41.129973,243.34177 35.504973,240.8094 31.498603,238.73418 C 22.189373,233.9122 8.5450429,220.55678 3.9501929,211.76911 C -4.0759771,196.419 -4.2771271,177.30371 3.4383329,163.12786 C 9.5474429,151.90342 26.063743,140.28513 42.214283,135.85117 C 51.402723,133.32857 72.311173,132.77437 82.924093,134.7721 C 107.64715,139.42587 132.26216,151.80014 171.71428,179.40801 C 209.92192,206.14502 228.59391,218.17705 242.86142,225.25445 C 263.42998,235.45749 268.85528,236.73894 291.71428,236.79345 C 309.43427,236.8357 310.54665,236.72055 318.09725,234.0623 C 340.07654,226.32432 359.29575,205.96569 364.17939,185.24814 C 366.11809,177.02371 366.13068,162.42742 364.20563,154.82228 C 359.93941,137.96799 348.89576,124.13648 333.21428,116.00745 C 317.83663,108.03592 315.76173,104.99878 328.66247,109.34473 C 353.72172,117.78658 369.71428,142.06277 369.71428,171.66006 C 369.71428,198.40888 354.07137,221.77636 327.43281,234.8204 C 312.63623,242.06579 302.7947,244.4764 285.45744,245.10194 C 267.90522,245.73523 259.53857,244.61981 244.35888,239.62277 C 219.05377,231.29254 197.33372,217.96409 136.72013,173.5706 C 105.29195,150.55254 83.398743,141.26484 60.214283,141.11472 C 47.486043,141.03231 38.673123,142.83947 29.413433,147.43071 C 9.9435529,157.08445 1.8122929,170.33478 2.9611929,190.53603 C 3.5139029,200.25433 6.6727329,208.4508 13.394083,217.60712 C 20.652023,227.49441 37.936663,239.30289 47.211003,240.71009 C 51.107133,241.30125 54.181593,243.79703 53.123233,245.5095 C 52.350573,246.75968 49.863303,246.4468 43.998603,244.36168 z"
       id="path2715" />
    <path
       style="fill:#000000"
       d="M 548.49729,240.22799 C 532.67635,239.19541 517.76791,234.73872 504.8995,227.19498 C 496.64473,222.35585 482.80454,208.25207 478.24107,200.02883 C 471.98738,188.75985 469.48805,179.5489 469.37717,167.36218 C 469.26087,154.57914 470.61017,148.56716 476.22244,136.86218 C 481.36271,126.14161 489.02316,117.24047 497.97077,111.59149 C 504.49295,107.47379 516.32821,102.64278 517.36176,103.67633 C 518.64748,104.96204 516.60155,107.43882 512.9951,108.96257 C 499.76455,114.55258 491.66901,121.14867 484.14114,132.47219 C 474.94362,146.30724 471.86321,162.02776 475.14166,178.40001 C 477.7793,191.57213 482.5546,200.30954 492.65794,210.44972 C 509.08882,226.94053 526.01318,233.7554 550.21428,233.62573 C 567.52186,233.533 580.39137,229.97994 598.5558,220.27942 C 611.37689,213.43246 621.15676,206.71476 653.97431,182.21295 C 708.93424,141.17947 729.06744,129.70574 756.57734,123.74037 C 766.85034,121.51272 785.95294,121.51904 795.21424,123.75316 C 824.21854,130.74985 842.69704,153.78729 840.21994,179.86218 C 838.02164,203.00125 821.59914,223.29286 798.77214,231.0749 C 795.16534,232.30451 790.86424,233.30794 789.21424,233.30476 L 786.21424,233.29898 L 788.89214,230.94061 C 790.36494,229.6435 794.63994,227.59107 798.39214,226.37965 C 821.10364,219.04703 838.84824,191.28696 835.03894,169.04842 C 830.60144,143.14216 801.73474,125.76607 770.67834,130.3071 C 755.50834,132.52526 736.69244,140.61067 718.84104,152.58226 C 714.64634,155.39532 696.13924,168.98048 677.71428,182.7715 C 639.22501,211.58053 626.87287,220.05158 613.07699,227.09947 C 590.95307,238.40193 573.83574,241.88174 548.49729,240.22799 z"
       id="path2709" />
    <path
       style="fill:#000000"
       d="M 258.78629,190.873 C 240.31315,186.68342 221.45135,172.97327 210.44384,155.73412 C 201.60981,141.89892 197.75238,128.80371 197.72906,112.57002 C 197.70404,95.148456 202.15441,79.383666 211.19689,64.862186 C 233.45121,29.123566 276.5114,14.225626 320.61408,27.006076 C 332.08029,30.328856 343.17792,35.677416 354.80266,43.483426 L 364.39105,49.922026 L 367.13899,40.892106 C 375.17973,14.469696 391.77657,-8.2419743 414.60516,-24.062194 L 418.56836,-26.808694 L 424.39132,-22.544514 C 444.93187,-7.5025443 460.98539,14.107766 469.2653,37.862186 C 470.79898,42.262186 472.15987,46.007146 472.2895,46.184306 C 472.41913,46.361476 475.21986,44.335056 478.51333,41.681136 C 490.90772,31.693616 504.93876,25.075506 522.15488,21.096446 C 529.45167,19.409986 534.42455,19.009656 547.71428,19.038856 C 562.30547,19.070906 565.37015,19.381346 574.20577,21.722306 C 612.12181,31.767986 634.13886,57.588356 638.77211,97.442136 C 642.08115,125.90551 632.17704,152.99263 612.84864,168.34118 C 599.87089,178.64671 585.00221,185.35017 571.69681,186.89423 C 559.39316,188.32204 544.46642,182.84656 538.16513,174.59402 C 534.9485,170.38132 532.02244,163.72069 532.97149,162.77164 C 534.1001,161.64303 536.9642,163.93175 538.71303,167.35972 C 543.05953,175.87957 553.77812,181.53953 566.76295,182.1715 C 584.10201,183.0154 598.08114,177.27705 611.21428,163.92452 C 620.55807,154.42463 624.78286,147.7058 629.00999,135.62339 C 631.65002,128.07739 632.13616,125.08513 632.5149,114.05032 C 633.04522,98.598916 631.55556,91.153946 625.27407,77.862186 C 606.09796,37.285146 555.26621,16.285586 510.71428,30.535376 C 502.09013,33.293786 487.69948,40.725386 481.51314,45.615416 C 474.13634,51.446436 473.26305,54.303496 474.56698,68.340446 C 477.78066,102.93601 463.21978,132.7251 445.66646,127.466 C 439.27538,125.55118 437.50273,121.83286 437.98924,111.36218 C 438.66828,96.747866 445.19524,82.296946 460.11253,62.380436 C 464.01849,57.165466 467.58313,52.311916 468.03394,51.594756 C 468.95413,50.130896 465.93862,40.309126 461.58154,30.578766 C 453.59375,12.740196 438.64973,-3.8324643 422.67431,-12.568684 L 417.3295,-15.491514 L 409.95241,-10.391734 C 395.6879,-0.53068429 381.83111,15.910066 375.31614,30.703386 C 372.92226,36.139076 367.71428,51.548256 367.71428,53.195476 C 367.71428,53.596996 372.01142,59.086266 377.26347,65.393856 C 393.20104,84.534456 398.92722,94.670886 400.63262,106.76171 C 402.31895,118.71731 399.43805,127.58744 393.34832,129.18967 C 386.186,131.0741 379.01056,126.86698 372.17433,116.77491 C 364.61847,105.62049 361.17993,89.160506 361.89824,67.584196 L 362.31464,55.076526 L 355.8534,49.746996 C 347.66419,42.992156 336.60707,37.227486 325.16494,33.747456 C 317.04618,31.278196 314.68072,31.017606 299.71428,30.943686 C 280.32994,30.847936 271.3177,32.684236 256.09167,39.832056 C 230.53767,51.828316 214.14617,70.645326 207.56603,95.538166 C 204.48589,107.19045 204.48072,124.69438 207.55419,135.6715 C 214.46311,160.34725 233.40639,180.09484 255.71428,185.87643 C 265.54658,188.42469 279.43532,187.59704 286.88047,184.01919 C 292.21259,181.45678 304.71428,169.75439 304.71428,167.32559 C 304.71428,166.79572 305.11689,166.36218 305.60897,166.36218 C 307.21458,166.36218 304.9298,173.59548 302.02983,177.69329 C 300.48128,179.88147 297.62426,182.95193 295.6809,184.51654 C 287.69154,190.9488 271.45493,193.74616 258.78629,190.873 z"
       id="path2705" />
    <path
       style="fill:#000000"
       d="M 394.685,122.89335 C 396.81808,120.62278 396.96132,119.79684 396.4686,112.60821 C 395.85073,103.59376 392.37335,92.717876 387.53507,84.667666 C 383.42979,77.837066 367.90516,61.126176 366.48191,62.005806 C 365.79793,62.428526 365.63065,66.992336 365.99624,75.256396 C 367.24295,103.43782 377.10847,125.36218 388.54285,125.36218 C 391.31467,125.36218 393.0033,124.68344 394.685,122.89335 z"
       id="path2703" />
    <path
       style="fill:#000000"
       d="M 455.42426,121.39748 C 461.63426,117.61105 467.3435,105.4532 469.76343,90.862186 C 470.98032,83.524926 471.39448,61.709056 470.33697,60.651536 C 466.75743,57.072006 448.23674,83.361296 443.57019,98.645776 C 440.87802,107.4635 441.20012,119.78183 444.17981,121.96064 C 446.87917,123.93445 451.65581,123.69522 455.42426,121.39748 z"
       id="path2701" />
    <path
       style="fill:#000000"
       d="M 406.9329,92.612186 C 405.46994,89.049546 406.22284,71.027556 408.09219,64.862186 C 409.91235,58.859066 415.02806,47.689476 416.76528,45.925426 C 418.12027,44.549526 422.4818,49.016416 425.41962,54.788826 C 430.5324,64.834726 432.33336,75.143316 430.65723,84.768406 C 428.64817,96.305246 427.58253,94.234146 426.21832,76.141336 C 425.89813,71.894866 425.00656,66.328486 424.23706,63.771606 C 422.95387,59.507896 419.35879,54.362186 417.66311,54.362186 C 416.50456,54.362186 413.00497,63.445076 411.69105,69.862186 C 411.01536,73.162186 410.47532,80.024686 410.49096,85.112186 C 410.51365,92.491596 410.22942,94.362186 409.08546,94.362186 C 408.29679,94.362186 407.32813,93.574686 406.9329,92.612186 z"
       id="path2697" />
    <g
       id="g3847">
      <text
         transform="scale(0.858513,1.1648047)"
         sodipodi:linespacing="125%"
         id="text3073"
         y="519.40399"
         x="-17.483955"
         style="font-size:220.436203px;font-style:italic;font-variant:normal;font-weight:normal;font-stretch:normal;text-align:start;line-height:125%;writing-mode:lr-tb;text-anchor:start;fill:#cccccc;fill-opacity:1;stroke:#000000;stroke-width:0;stroke-linecap:butt;stroke-linejoin:miter;stroke-miterlimit:4;stroke-dasharray:none;stroke-opacity:1;font-family:URW Chancery L;-inkscape-font-specification:URW Chancery L Italic"
         xml:space="preserve"><tspan
           style="stroke-width:0"
           y="519.40399"
           x="-17.483955"
           id="tspan3075"
           sodipodi:role="line">Anto &amp; Zeli</tspan></text>
      <path
         id="path2849"
         d="M 280.17157,373.29308 C 279.31434,371.90604 278.71428,372.16467 278.71428,373.9212 C 278.71428,374.77866 279.17162,375.19756 279.73059,374.8521 C 280.28956,374.50664 280.48801,373.80508 280.17157,373.29308 z"
         style="fill:#000000" />
      <text
         transform="scale(0.858513,1.1648047)"
         sodipodi:linespacing="125%"
         id="text3029"
         y="510.08044"
         x="-24.280878"
         style="font-size:220.436203px;font-style:italic;font-variant:normal;font-weight:normal;font-stretch:normal;text-align:start;line-height:125%;writing-mode:lr-tb;text-anchor:start;fill:#000000;fill-opacity:1;stroke:none;stroke-width:1px;stroke-linecap:butt;stroke-linejoin:miter;stroke-opacity:1;font-family:URW Chancery L;-inkscape-font-specification:URW Chancery L Italic"
         xml:space="preserve"><tspan
           y="510.08044"
           x="-24.280878"
           id="tspan3031"
           sodipodi:role="line">Anto &amp; Zeli</tspan></text>
    </g>
  </g>
</svg>
