<?xml version="1.0" encoding="UTF-8" standalone="no"?>
<!-- Created with Inkscape (http://www.inkscape.org/) -->
<svg
   xmlns:dc="http://purl.org/dc/elements/1.1/"
   xmlns:cc="http://creativecommons.org/ns#"
   xmlns:rdf="http://www.w3.org/1999/02/22-rdf-syntax-ns#"
   xmlns:svg="http://www.w3.org/2000/svg"
   xmlns="http://www.w3.org/2000/svg"
   xmlns:sodipodi="http://sodipodi.sourceforge.net/DTD/sodipodi-0.dtd"
   xmlns:inkscape="http://www.inkscape.org/namespaces/inkscape"
   width="744.09448819"
   height="1052.3622047"
   id="svg3898"
   sodipodi:version="0.32"
   inkscape:version="0.46"
   sodipodi:docname="ornamen.svg"
   inkscape:output_extension="org.inkscape.output.svg.inkscape">
  <defs
     id="defs3900">
    <inkscape:perspective
       sodipodi:type="inkscape:persp3d"
       inkscape:vp_x="0 : 526.18109 : 1"
       inkscape:vp_y="0 : 1000 : 0"
       inkscape:vp_z="744.09448 : 526.18109 : 1"
       inkscape:persp3d-origin="372.04724 : 350.78739 : 1"
       id="perspective3906" />
    <inkscape:perspective
       id="perspective3952"
       inkscape:persp3d-origin="372.04724 : 350.78739 : 1"
       inkscape:vp_z="744.09448 : 526.18109 : 1"
       inkscape:vp_y="0 : 1000 : 0"
       inkscape:vp_x="0 : 526.18109 : 1"
       sodipodi:type="inkscape:persp3d" />
    <inkscape:perspective
       id="perspective4138"
       inkscape:persp3d-origin="372.04724 : 350.78739 : 1"
       inkscape:vp_z="744.09448 : 526.18109 : 1"
       inkscape:vp_y="0 : 1000 : 0"
       inkscape:vp_x="0 : 526.18109 : 1"
       sodipodi:type="inkscape:persp3d" />
  </defs>
  <sodipodi:namedview
     id="base"
     pagecolor="#ffffff"
     bordercolor="#666666"
     borderopacity="1.0"
     gridtolerance="10000"
     guidetolerance="10"
     objecttolerance="10"
     inkscape:pageopacity="0.0"
     inkscape:pageshadow="2"
     inkscape:zoom="0.35"
     inkscape:cx="375"
     inkscape:cy="520"
     inkscape:document-units="px"
     inkscape:current-layer="layer1"
     showgrid="false"
     inkscape:window-width="640"
     inkscape:window-height="690"
     inkscape:window-x="0"
     inkscape:window-y="34" />
  <metadata
     id="metadata3903">
    <rdf:RDF>
      <cc:Work
         rdf:about="">
        <dc:format>image/svg+xml</dc:format>
        <dc:type
           rdf:resource="http://purl.org/dc/dcmitype/StillImage" />
      </cc:Work>
    </rdf:RDF>
  </metadata>
  <g
     inkscape:label="Layer 1"
     inkscape:groupmode="layer"
     id="layer1">
    <path
       style="fill:#000000"
       d="M 159.14816,504.1764 C 156.98373,501.35521 157.74231,497.95961 160.11076,499.86758 C 161.67118,501.1246 161.92936,500.22586 160.96375,496.89833 C 159.67423,492.45456 159.79896,492.41001 162.77773,496.25012 C 164.53703,498.51814 165.39346,501.60335 164.68091,503.10614 C 163.21249,506.20303 161.02727,506.62574 159.14816,504.1764 z M 143.89504,473.63598 C 140.16174,464.60891 136.0827,451.89412 134.83051,445.38091 C 132.60762,433.81856 130.61386,430.9962 128.2262,436.03181 C 126.13135,440.44987 123.4436,438.68743 123.47373,432.91544 C 123.49741,428.3794 123.85783,428.02159 125.35715,431.04562 C 128.41083,437.20468 127.58407,426.13013 124.33349,417.33359 C 122.50628,412.38891 121.93619,411.77648 122.65121,415.5264 C 123.24604,418.64606 123.02233,421.03746 122.15406,420.84063 C 118.42019,419.9942 117.3809,421.29776 119.33847,424.37222 C 121.01985,427.01291 120.30324,427.45394 115.74727,426.58235 C 110.2032,425.52174 108.12316,420.43109 111.96825,417.33359 C 115.02409,414.87189 114.1774,408.60776 110.78883,408.60776 C 108.63838,408.60776 108.00136,407.08927 108.69706,403.62157 C 110.1097,396.5804 107.83277,397.41945 101.32808,406.33707 C 95.061205,414.92868 79.854105,427.41407 78.231888,425.29961 C 77.65565,424.54851 79.83385,422.14803 83.072316,419.96518 C 86.443581,417.69282 89.491083,413.24065 90.201822,409.5495 C 91.922371,400.61415 100.02416,381.06155 104.76828,374.39532 L 108.71221,368.85346 L 102.75174,371.08162 C 99.473475,372.30712 95.908492,374.02093 94.829539,374.8901 C 93.750586,375.75929 88.55826,377.92751 83.291033,379.7084 C 74.384056,382.71993 73.714286,382.62769 73.714286,378.38943 C 73.714286,372.74249 82.449828,366.62182 93.286488,364.67591 C 98.056949,363.81931 103.99991,360.4287 107.58886,356.51608 L 113.72933,349.8219 L 111.14367,334.96238 C 107.98179,316.79146 107.59613,289.06221 110.44309,284.59089 C 112.44167,281.45203 111.92313,256.38915 109.08878,219.13253 C 108.27128,208.38655 108.4735,206.69364 110.02371,211.30621 C 111.11163,214.54332 112.90305,230.72121 114.00461,247.25704 C 115.10617,263.79289 116.768,279.17454 117.69755,281.4385 C 121.02528,289.5432 127.07883,315.32407 128.28922,326.54644 C 128.96725,332.83278 130.09115,339.11824 130.78678,340.5141 C 133.20007,345.35657 151.28288,351.56111 156.15626,349.21882 C 161.28996,346.7514 175.08731,348.24823 175.08731,351.27261 C 175.08731,354.55601 169.53333,356.25276 158.78582,356.25276 C 146.41529,356.25276 144.55666,358.81337 152.7517,364.56589 C 156.11818,366.92899 160.58429,372.19244 162.67636,376.26244 C 165.58867,381.92813 167.93707,383.66414 172.69643,383.66963 C 176.11538,383.67359 178.9127,384.70521 178.9127,385.96215 C 178.9127,389.4679 174.6502,390.59475 169.34921,388.49035 C 166.71925,387.44632 160.41877,384.90042 155.34814,382.8328 L 146.1288,379.07346 L 146.62639,391.29299 C 147.12259,403.47869 147.09963,403.52938 138.32624,409.60974 C 133.48749,412.96322 129.02033,415.04456 128.39918,414.23495 C 127.77805,413.42534 127.26985,415.15847 127.26985,418.08638 C 127.26985,422.02732 128.09644,422.99641 130.45265,421.81787 C 132.59275,420.74744 133.1824,421.18146 132.25248,423.14265 C 131.49182,424.74689 131.78099,426.05943 132.89506,426.05943 C 134.00913,426.05943 134.92064,424.29646 134.92064,422.1417 C 134.92064,419.98697 136.23572,416.50987 137.84301,414.41483 C 140.16367,411.39 141.3408,411.22815 143.56005,413.62885 C 147.0106,417.36154 145.50775,421.07324 140.54585,421.07324 C 138.50397,421.07324 136.83334,422.75607 136.83334,424.81288 C 136.83334,429.34445 139.91944,429.76364 141.42196,425.43615 C 142.01708,423.72215 142.27099,424.56357 141.98624,427.30597 C 141.67924,430.26271 140.13598,432.15123 138.19457,431.9459 C 134.03558,431.50604 134.0832,432.94889 138.83454,451.33278 C 142.90176,467.06972 146.55369,476.01377 152.52198,484.85491 C 155.17417,488.78378 155.3772,490.04887 153.35551,490.04887 C 151.88557,490.04887 147.62834,482.66308 143.89504,473.63598 z M 102.52587,396.14228 C 106.59013,396.14228 107.15099,394.84944 108.96308,381.30386 L 110.11431,372.69817 L 104.34684,379.90047 C 101.17472,383.86175 98.551994,388.85619 98.518541,390.99925 C 98.485069,393.14232 97.194016,397.07348 95.649493,399.73516 C 94.10497,402.39684 92.875736,405.76252 92.917854,407.21444 C 92.959972,408.66637 94.278529,406.7691 95.847993,402.9983 C 97.493335,399.04515 100.32078,396.14228 102.52587,396.14228 z M 130.53293,405.30728 C 131.80164,405.29429 132.33691,404.2233 131.72242,402.92732 C 131.10793,401.63133 131.79131,399.59173 133.24108,398.39482 C 135.22183,396.75953 134.86211,396.20915 131.7938,396.18045 C 128.27826,396.1476 127.50096,394.1494 126.20241,381.80699 C 125.37291,373.92258 124.85583,366.3498 125.05337,364.9786 C 125.25092,363.60739 124.10902,364.66324 122.51579,367.32492 C 120.92259,369.9866 119.61375,371.10849 119.60726,369.81802 C 119.58412,365.2105 113.87722,381.85787 113.69029,387.07816 C 113.5162,391.93985 113.3523,391.86089 111.80456,386.1699 C 110.46057,381.22814 110.29761,382.00272 111.01781,389.90955 C 111.51739,395.39436 111.93562,401.35988 111.94719,403.16631 C 111.96097,405.31291 113.29345,405.90245 115.79365,404.86812 C 118.08497,403.92022 119.61905,404.42011 119.61905,406.11467 C 119.61905,407.92171 121.17376,408.29119 123.92262,407.13736 C 126.28959,406.14383 129.26424,405.32029 130.53293,405.30728 z M 139.17443,388.60324 C 137.26396,380.08668 133.51974,372.2063 132.20063,373.92569 C 131.5988,374.71014 132.49905,380.67941 134.2012,387.19078 C 137.29361,399.02054 141.79823,400.29992 139.17443,388.60324 z M 144.48413,391.6326 C 144.48413,387.78107 143.26358,382.45412 141.77181,379.79491 C 139.38287,375.53648 139.30726,376.37144 141.1377,386.79769 C 143.50808,400.29952 144.48413,401.70972 144.48413,391.6326 z M 149.47314,369.56477 C 146.61186,366.35678 142.44734,363.73205 140.21866,363.73205 C 136.22087,363.73205 136.22749,363.81664 140.7117,370.03826 C 143.21154,373.50668 146.37407,375.78569 147.73955,375.10271 C 149.10502,374.41972 150.22223,375.0138 150.22223,376.4229 C 150.22223,377.832 151.22421,378.17771 152.44884,377.1912 C 153.95407,375.97863 152.98998,373.50775 149.47314,369.56477 z M 91.967759,373.52971 C 92.663484,372.06243 95.08125,369.88974 97.340567,368.70156 C 99.749324,367.43477 100.26172,366.49876 98.579365,366.4386 C 97.001389,366.38218 93.558532,368.52991 90.928571,371.21133 C 88.298611,373.89276 87.171917,376.11159 88.424811,376.14208 C 89.677705,376.17257 91.272035,374.99702 91.967759,373.52971 z M 114.70068,362.30742 C 120.63777,354.56875 117.46682,350.72782 110.8993,357.70285 C 107.34679,361.47577 107.3427,361.58093 110.80426,360.13885 C 113.86622,358.86326 114.05065,359.21501 112.00459,362.42843 C 108.82799,367.41747 110.8499,367.32672 114.70068,362.30742 z M 145.09627,353.77592 C 141.83304,349.97104 130.55439,346.42715 127.89115,348.36982 C 122.27443,352.4669 133.19422,358.77261 142.22723,356.64832 C 144.66785,356.07433 145.95892,354.78176 145.09627,353.77592 z M 168.87104,352.0411 C 167.03006,351.41404 164.01757,351.41404 162.17659,352.0411 C 160.33562,352.66819 161.84187,353.18127 165.52382,353.18127 C 169.20576,353.18127 170.71201,352.66819 168.87104,352.0411 z M 121.53175,347.83219 C 121.53175,347.31449 120.24067,345.49429 118.6627,343.78729 C 116.31293,341.2454 115.79365,341.41576 115.79365,344.72858 C 115.79365,346.95327 117.08472,348.77348 118.6627,348.77348 C 120.24067,348.77348 121.53175,348.3499 121.53175,347.83219 z M 125.28234,332.38617 C 122.23962,324.97559 120.53752,328.31215 122.40723,338.02216 C 123.33202,342.82495 124.21443,343.78091 125.80692,341.70518 C 127.39939,339.62948 127.26325,337.21068 125.28234,332.38617 z M 117.89314,318.90565 C 115.13846,302.16327 115.31947,299.13132 118.72352,304.99755 C 122.82943,312.07327 122.13291,306.38276 117.85869,297.93192 C 115.85239,293.9651 114.65908,289.19706 115.20689,287.33626 C 115.75471,285.47546 115.16424,283.95301 113.89474,283.95301 C 110.8745,283.95301 112.77776,321.60767 116.15419,328.65477 C 119.69949,336.05433 120.22757,333.09376 117.89314,318.90565 z M 194.90598,340.04765 C 195.5115,337.99084 195.24162,336.308 194.30623,336.308 C 193.37085,336.308 192.05191,332.66185 191.37525,328.20544 C 190.6986,323.74904 188.38542,314.23534 186.23488,307.0639 C 182.53463,294.72467 182.00229,294.07859 176.31518,295.02499 C 168.69471,296.29313 162.76119,290.95175 164.14245,284.06702 C 164.8151,280.71423 164.24405,278.96682 162.4757,278.96682 C 160.99621,278.96682 159.78572,277.84492 159.78572,276.47372 C 159.78572,275.10252 158.16467,273.98063 156.1834,273.98063 C 154.15806,273.98063 152.13131,271.73883 151.55368,268.85966 C 150.5834,264.02338 150.03117,264.23128 141.62059,272.5993 C 132.50599,281.66779 129.18255,283.3692 129.18255,278.96682 C 129.18255,277.59561 130.06172,276.47372 131.13625,276.47372 C 132.21079,276.47372 134.06283,273.69055 135.25192,270.2889 C 136.44099,266.88725 139.05,263.42723 141.04971,262.59995 C 144.12518,261.32764 144.30153,260.478 142.19396,257.08726 C 140.10792,253.73116 140.14443,253.42605 142.4183,255.21283 C 144.41059,256.77832 144.83263,256.32253 144.00229,253.50209 C 143.37974,251.38745 143.83596,248.39868 145.01613,246.86039 C 148.34922,242.5159 144.20228,243.51725 135.83566,249.07715 C 128.72336,253.80348 128.21468,253.83921 126.95854,249.70042 C 126.22565,247.28571 125.56552,246.7124 125.49159,248.4264 C 125.33976,251.9459 121.53175,252.77982 121.53175,249.29357 C 121.53175,248.0565 124.1139,245.87108 127.26985,244.43705 C 130.4258,243.00305 133.00794,242.30458 133.00794,242.88492 C 133.00794,243.46527 135.28009,242.81407 138.05718,241.43783 C 142.02672,239.47066 143.86725,239.83303 146.66432,243.13249 C 149.95309,247.01192 150.22223,247.01728 150.22223,243.20334 C 150.22223,240.934 151.54103,239.07729 153.1529,239.07729 C 158.8218,239.07729 159.43964,228.89931 154.72306,213.21201 C 152.26118,205.02388 150.45791,198.04955 150.71576,197.71343 C 151.96372,196.08681 157.63309,203.80511 160.49726,211.02998 C 163.44793,218.47306 164.46037,219.13253 172.93675,219.13253 C 179.99862,219.13253 183.91479,217.49143 189.62374,212.13973 C 199.9727,202.43835 201.86703,201.08499 201.8521,203.40355 C 201.84494,204.51288 197.11687,210.46903 191.34524,216.63944 C 185.57362,222.80985 180.84554,228.55399 180.83839,229.40419 C 180.83125,230.25438 184.91379,232.29249 189.91072,233.93332 C 199.91943,237.21984 211.42858,243.93043 211.42858,246.47962 C 211.42858,247.37663 205.83393,247.94593 198.99604,247.74471 C 187.5292,247.40725 186.5635,247.78794 186.5635,252.64572 C 186.5635,255.54249 185.13972,260.6865 183.39957,264.07678 C 181.6594,267.46709 181.33789,268.92114 182.68508,267.30798 C 184.60007,265.01493 186.12507,265.90941 189.67441,271.40753 C 195.36849,280.22797 195.33961,281.02566 189.21624,284.06021 C 183.4225,286.93138 183.53313,288.48837 191.42319,315.11669 C 197.25751,334.80704 198.61397,343.78729 195.75394,343.78729 C 194.68202,343.78729 194.30044,342.10445 194.90598,340.04765 z M 177.00001,278.96682 C 177.00001,277.59561 176.08849,276.47372 174.97442,276.47372 C 173.86035,276.47372 173.48079,277.59561 174.13096,278.96682 C 174.78112,280.33802 175.69264,281.45991 176.15654,281.45991 C 176.62045,281.45991 177.00001,280.33802 177.00001,278.96682 z M 163.50645,267.38908 L 161.63528,260.97407 L 168.36128,266.14672 C 172.0606,268.99167 175.08731,270.50433 175.08731,269.50816 C 175.08731,268.512 177.35127,264.51444 180.11837,260.62474 L 185.14942,253.55255 L 180.36021,247.31012 L 175.57101,241.06766 L 176.09392,246.92848 C 176.38152,250.15195 176.91822,253.91121 177.28658,255.28241 C 177.65495,256.65362 177.10352,258.33645 176.06118,259.02206 C 175.01885,259.70766 172.14472,256.19725 169.67422,251.22114 C 165.39807,242.60807 164.87662,242.29601 158.81325,244.72159 C 153.85096,246.70669 152.78905,248.15448 154.00585,251.27596 C 154.86483,253.47951 157.0672,260.01989 158.90001,265.81013 C 162.41646,276.91934 166.71623,278.39318 163.50645,267.38908 z M 178.9127,226.61182 C 183.46133,221.97419 183.49897,221.7338 179.68475,221.68108 C 175.82174,221.62765 163.61112,228.353 163.61112,230.53406 C 163.61112,233.66865 174.80574,230.79915 178.9127,226.61182 z M 84.712302,308.62355 C 80.628308,299.32266 80.535064,295.38846 84.195854,286.83076 C 95.113517,261.30892 97.30348,250.77714 98.144761,219.74903 C 99.135195,183.22015 95.81234,146.45988 91.705643,148.51397 C 90.226267,149.25392 89.015873,148.74827 89.015873,147.39028 C 89.015873,145.36098 92.457678,143.32726 98.579365,141.73933 C 99.105357,141.60291 101.04196,139.71449 102.88294,137.54288 C 104.86556,135.20418 106.23016,134.74498 106.23016,136.41653 C 106.23016,137.96863 104.07837,141.07627 101.44841,143.3224 C 98.818452,145.5685 96.679845,148.67959 96.69595,150.23588 C 96.712055,151.79217 97.526482,151.41411 98.505764,149.39575 C 100.68746,144.89908 101.17493,146.41179 104.37161,167.59854 C 107.26231,186.75745 105.57305,188.33757 101.79153,170.0119 L 98.80908,155.55861 L 100.12875,171.76373 C 101.58804,189.68345 101.53395,209.54337 99.874568,265.08761 C 98.781327,301.68128 98.670983,302.43572 93.410929,309.28168 L 88.059524,316.24652 L 84.712302,308.62355 z M 91.983807,294.13396 C 91.390316,292.88228 91.755565,291.48188 92.795441,291.02195 C 93.972669,290.5013 94.068074,287.36331 93.048281,282.70646 L 91.41038,275.22717 L 89.272041,282.19313 C 85.803056,293.49391 84.740763,300.93236 86.16645,303.93918 C 87.055912,305.81506 88.431983,305.02751 90.28273,301.5834 C 91.811817,298.73788 92.577298,295.38564 91.983807,294.13396 z M 148.92676,232.18748 C 152.15912,227.43826 152.19395,226.51299 149.40493,219.48304 C 145.19285,208.86612 145.67641,206.4461 150.22223,215.39289 C 155.1839,225.15815 155.04318,230.74163 149.74405,234.36617 C 145.51689,237.25746 145.5024,237.21879 148.92676,232.18748 z M 105.88956,197.94123 C 104.65672,190.47072 105.25279,187.1104 107.33042,189.8185 C 107.93558,190.60729 108.13666,194.44042 107.77728,198.33658 L 107.12387,205.42051 L 105.88956,197.94123 z M 118.99897,202.5347 C 118.28804,201.60802 117.79215,197.39068 117.89701,193.16279 C 118.08183,185.71095 118.13452,185.66645 119.61905,191.70849 C 120.4613,195.13649 121.23623,196.47264 121.34109,194.67771 C 121.44594,192.88279 122.29461,192.02875 123.22699,192.77987 C 125.67424,194.75129 127.07986,185.65997 125.05645,180.94722 C 124.0315,178.55995 122.08754,177.5851 120.21736,178.52051 C 117.68206,179.78863 117.3253,178.94476 118.32914,174.05406 C 119.00985,170.73757 119.57857,166.62172 119.59294,164.90772 C 119.60728,163.19371 120.49615,161.79135 121.56818,161.79135 C 122.71364,161.79135 123.00116,164.47197 122.26549,168.29249 C 121.10998,174.29347 121.3246,174.57676 125.05506,171.97444 C 128.36401,169.66619 128.90423,169.80814 128.03586,172.75777 C 127.45255,174.73916 128.02569,178.91859 129.30953,182.0454 C 131.04448,186.27087 131.07924,187.9758 129.44491,188.68588 C 128.23551,189.21135 127.6552,190.50425 128.15533,191.55903 C 129.38776,194.15825 120.62819,204.6583 118.99897,202.5347 z M 146.39683,193.10218 C 146.39683,192.4975 147.25755,191.30939 148.30953,190.46194 C 149.36151,189.61449 150.22223,190.10922 150.22223,191.56135 C 150.22223,193.01347 149.36151,194.20158 148.30953,194.20158 C 147.25755,194.20158 146.39683,193.70685 146.39683,193.10218 z M 141.95403,187.0373 C 142.56698,183.98216 144.0082,182.61123 145.71144,183.46317 C 147.23113,184.22327 148.22222,185.02405 147.91385,185.24267 C 147.60548,185.46127 145.91464,187.06964 144.15643,188.8168 C 141.38845,191.56738 141.09305,191.32872 141.95403,187.0373 z M 174.04401,185.58909 C 169.52072,179.69322 167.3447,169.85467 171.26191,173.01028 C 172.31389,173.85773 173.17461,176.68919 173.17461,179.30242 C 173.17461,184.0031 178.32923,189.21539 182.97793,189.21539 C 184.60771,189.21539 184.42629,188.21175 182.41461,186.09902 C 180.78256,184.38502 178.84563,180.73887 178.11031,177.99647 C 177.03774,173.99629 177.24967,173.62654 179.18192,176.12664 C 182.8455,180.86684 187.62707,179.84968 187.95003,174.26144 C 188.10926,171.50609 186.47846,168.05248 184.30085,166.53341 C 181.74876,164.75314 180.79692,164.70052 181.59509,166.38385 C 183.86309,171.16713 173.60585,168.16858 168.7085,162.61669 C 166.08506,159.64262 163.38909,157.9256 162.71743,158.80105 C 162.04576,159.67653 162.06208,158.47082 162.75365,156.12173 C 163.92702,152.13614 164.3493,152.16192 169.07101,156.50746 C 172.4834,159.64798 176.15501,160.76833 180.34723,159.9483 C 184.35643,159.16405 186.5635,159.7702 186.5635,161.65552 C 186.5635,163.26327 187.32668,163.96391 188.25947,163.21249 C 190.82545,161.14541 194.80227,168.66359 193.49383,173.108 C 192.8622,175.25349 193.0704,176.42484 193.95652,175.71105 C 194.84261,174.99722 196.59822,177.3615 197.85787,180.96504 C 200.75832,189.26251 198.36001,191.61732 186.95472,191.67032 C 180.75702,191.69911 177.58556,190.20528 174.04401,185.58909 z M 140.02118,177.58094 C 139.31985,176.66682 138.74604,174.75961 138.74604,173.34268 C 138.74604,171.78051 139.63692,171.9277 141.00939,173.71664 C 142.25425,175.33925 142.82806,177.24647 142.28453,177.95491 C 141.741,178.66337 140.72249,178.49508 140.02118,177.58094 z M 158.17858,163.66117 C 153.91117,159.20476 150.37369,154.43672 150.3175,153.06551 C 150.2613,151.69431 144.62225,146.97496 137.78625,142.57809 C 125.25518,134.51816 122.23275,135.50929 128.16537,145.733 C 132.11406,152.53783 132.05955,159.32017 128.10761,152.91875 C 125.30141,148.37319 125.17692,148.68487 126.05741,158.0517 C 126.57298,163.53651 126.56324,166.06077 126.03574,163.66117 C 125.50823,161.26156 124.45189,159.29825 123.68827,159.29825 C 122.92467,159.29825 122.64056,155.49481 123.05691,150.84614 C 123.68221,143.86475 122.5782,140.61116 116.71219,132.14792 C 108.78156,120.70598 106.23016,119.46148 106.23016,127.03515 C 106.23016,129.85849 105.4673,131.55394 104.53491,130.80282 C 103.60253,130.05173 102.22916,131.94882 101.48296,135.01862 C 100.14967,140.50358 100.08996,140.48157 98.027226,133.74403 C 94.996919,123.84616 91.895861,125.57876 92.449434,136.8604 C 92.483059,137.546 89.563593,138.19161 85.961714,138.29507 L 79.412826,138.48318 L 83.275502,133.12392 C 86.835167,128.18502 86.730103,124.39491 83.033507,124.39491 C 82.19783,124.39491 79.75914,126.85024 77.614182,129.85121 C 75.469244,132.85217 73.714286,134.05419 73.714286,132.52239 C 73.714286,130.99058 75.005357,128.05443 76.583334,125.99762 C 78.16131,123.94082 79.452381,121.14943 79.452381,119.79455 C 79.452381,118.43968 80.510065,116.8716 81.802781,116.30995 C 84.509077,115.13411 78.798755,101.95706 75.582897,101.95706 C 74.555166,101.95706 73.741657,99.993743 73.77511,97.594139 C 73.832242,93.496339 73.986539,93.489532 76.313949,97.482025 C 78.549549,101.31698 79.747568,101.40424 88.560173,98.374104 C 96.855029,95.521978 98.482487,95.538906 99.350182,98.486218 C 100.06496,100.91412 98.80952,101.99016 95.172103,102.06725 C 90.148056,102.17371 90.214752,102.34433 97.144841,107.113 C 101.08978,109.82756 104.31746,113.15315 104.31746,114.50321 C 104.31746,117.16873 96.63591,112.32502 94.305077,108.18979 C 93.532213,106.81859 92.886658,106.51034 92.870553,107.50482 C 92.854448,108.49929 90.665786,108.23482 88.006848,106.91714 C 83.568011,104.71739 83.338755,104.92646 85.205089,109.47194 C 86.393487,112.3663 89.206684,114.42253 91.978164,114.42253 C 94.585383,114.42253 98.540786,115.8249 100.76791,117.5389 C 104.00739,120.03199 104.99042,120.03199 105.68311,117.5389 C 106.15931,115.8249 107.86037,114.42253 109.46323,114.42253 C 111.23965,114.42253 111.95683,115.8515 111.30007,118.08234 C 110.70748,120.09522 111.04576,122.40522 112.05178,123.21565 C 113.05782,124.02611 113.88095,123.43487 113.88095,121.90182 C 113.88095,120.36876 114.74167,119.80782 115.79365,120.65527 C 116.84563,121.50272 117.70635,121.00799 117.70635,119.55586 C 117.70635,118.10374 116.94636,116.91563 116.01747,116.91563 C 113.55618,116.91563 114.51281,104.45254 117.67521,95.318467 C 122.38699,81.709209 135.01262,77.441928 149.42884,84.586141 L 154.84226,87.268861 L 150.14136,90.312457 C 147.55589,91.98642 145.16775,95.829227 144.83441,98.85203 C 144.30581,103.64543 139.93178,109.10611 131.57342,115.40743 C 129.94931,116.63184 129.19194,115.36375 129.21183,111.4533 C 129.23088,107.70855 129.76533,106.77239 130.74103,108.77465 C 131.90617,111.16568 133.15078,111.02195 136.31766,108.13068 C 140.19231,104.59325 147.1473,89.638748 145.75927,87.829509 C 145.15019,87.035607 133.21964,93.93819 131.09825,96.311841 C 130.57392,96.898516 131.80216,98.958062 133.82767,100.88859 C 135.8532,102.81912 136.85736,105.24989 136.05916,106.2903 C 135.26095,107.3307 133.45039,106.11865 132.03568,103.59684 C 130.28474,100.47568 128.19726,99.535562 125.49762,100.65239 C 121.19341,102.43304 121.1893,102.44336 120.71728,112.62461 C 120.13062,125.27899 125.1579,128.13394 148.03754,128.13958 C 159.23297,128.14234 169.60175,129.15711 171.07927,130.3946 C 172.6793,131.73474 173.33801,131.7327 172.70814,130.38959 C 172.12649,129.14933 175.37515,127.84932 179.92735,127.50068 C 187.28238,126.93737 188.68108,127.7399 192.48712,134.70694 C 196.62926,142.28919 196.65317,142.65854 193.21395,145.93646 C 188.49708,150.43211 179.96815,150.24787 177.00001,145.58623 C 175.6904,143.52943 173.02905,141.84659 171.08588,141.84659 C 169.14272,141.84659 164.72016,139.77276 161.25794,137.23808 C 157.75591,134.67423 149.03184,131.95955 141.59462,131.11942 C 134.24198,130.28885 125.89435,129.15631 123.04433,128.60264 C 118.38203,127.69694 118.06703,128.09424 119.9027,132.56502 C 121.36232,136.11997 122.35262,136.66997 123.38263,134.49769 C 124.43892,132.26994 128.51494,133.84006 138.68845,140.39361 C 146.31481,145.30635 154.13077,149.32587 156.05726,149.32587 C 160.89021,149.32587 162.40199,153.41684 158.34022,155.50361 C 155.47698,156.97461 155.94286,158.24878 161.62618,164.49067 C 170.6627,174.41536 167.82219,173.7319 158.17858,163.66117 z M 186.5635,140.54659 C 186.5635,135.10249 177.58229,130.118 174.65288,133.93632 C 172.93688,136.17303 172.9812,136.8604 174.84139,136.8604 C 176.1789,136.8604 178.56432,138.54324 180.1423,140.60004 C 183.82367,145.3985 186.5635,145.37571 186.5635,140.54659 z M 168.53249,135.56032 C 166.50532,133.56128 164.37845,132.53607 163.80614,133.28208 C 162.60555,134.84697 167.46341,139.29712 170.30556,139.23602 C 171.35755,139.2134 170.55966,137.55934 168.53249,135.56032 z M 89.015873,121.90182 C 87.437897,120.5726 85.286111,119.48508 84.234127,119.48508 C 83.182143,119.48508 83.6125,120.5726 85.190476,121.90182 C 86.768452,123.23103 88.920238,124.31855 89.972222,124.31855 C 91.024206,124.31855 90.593849,123.23103 89.015873,121.90182 z M 123.86422,96.575934 C 124.27045,94.987534 126.37662,93.33506 128.54462,92.903805 C 134.80003,91.659476 143.20702,86.995917 142.00924,85.434666 C 141.40825,84.651286 137.3986,84.785041 133.09893,85.731893 C 125.52434,87.399948 119.61905,92.401546 119.61905,97.148947 C 119.61905,100.46641 122.98551,100.01199 123.86422,96.575934 z M 134.92064,164.28444 C 134.92064,162.91324 135.3002,161.79135 135.7641,161.79135 C 136.22801,161.79135 137.13952,162.91324 137.78969,164.28444 C 138.43985,165.65564 138.0603,166.77754 136.94623,166.77754 C 135.83216,166.77754 134.92064,165.65564 134.92064,164.28444 z M 80.357107,146.7239 C 79.735346,145.41259 80.998836,144.33968 83.16489,144.33968 C 87.783234,144.33968 88.249149,145.72612 84.295372,147.70371 C 82.751097,148.47613 80.978867,148.03522 80.357107,146.7239 z M 73.865294,143.30088 C 73.782244,140.67276 74.23431,139.20027 74.869881,140.0287 C 75.505452,140.85715 75.57341,143.00745 75.020869,144.80714 C 74.410298,146.79595 73.957065,146.20522 73.865294,143.30088 z"
       id="path4144" />
  </g>
</svg>
