<?xml version="1.0" encoding="UTF-8" standalone="no"?>
<!-- Created with Inkscape (http://www.inkscape.org/) -->

<svg
   xmlns:dc="http://purl.org/dc/elements/1.1/"
   xmlns:cc="http://creativecommons.org/ns#"
   xmlns:rdf="http://www.w3.org/1999/02/22-rdf-syntax-ns#"
   xmlns:svg="http://www.w3.org/2000/svg"
   xmlns="http://www.w3.org/2000/svg"
   xmlns:sodipodi="http://sodipodi.sourceforge.net/DTD/sodipodi-0.dtd"
   xmlns:inkscape="http://www.inkscape.org/namespaces/inkscape"
   width="210mm"
   height="297mm"
   viewBox="0 0 744.09448819 1052.3622047"
   id="svg2"
   version="1.1"
   inkscape:version="0.91 r13725"
   sodipodi:docname="Don Bosco.svg">
  <defs
     id="defs4" />
  <sodipodi:namedview
     id="base"
     pagecolor="#ffffff"
     bordercolor="#666666"
     borderopacity="1.0"
     inkscape:pageopacity="0.0"
     inkscape:pageshadow="2"
     inkscape:zoom="0.16938949"
     inkscape:cx="63.25428"
     inkscape:cy="798.6877"
     inkscape:document-units="px"
     inkscape:current-layer="g4242"
     showgrid="false"
     inkscape:window-width="1301"
     inkscape:window-height="744"
     inkscape:window-x="65"
     inkscape:window-y="24"
     inkscape:window-maximized="1" />
  <metadata
     id="metadata7">
    <rdf:RDF>
      <cc:Work
         rdf:about="">
        <dc:format>image/svg+xml</dc:format>
        <dc:type
           rdf:resource="http://purl.org/dc/dcmitype/StillImage" />
        <dc:title />
      </cc:Work>
    </rdf:RDF>
  </metadata>
  <g
     inkscape:label="Layer 1"
     inkscape:groupmode="layer"
     id="layer1">
    <g
       id="g4225"
       transform="matrix(2.4262591,0,0,2.4163695,-1.4231718,-1655.876)"
       inkscape:export-filename="E:\Inskcape Works\Don Bosco\g4225.png"
       inkscape:export-xdpi="72"
       inkscape:export-ydpi="72">
      <path
         sodipodi:nodetypes="cccccc"
         inkscape:connector-curvature="0"
         id="rect4205"
         d="m 0.99783537,-199.81917 870.04456463,0 0,1233.15297 L 437.47974,1169.0989 0.99783537,1033.3338 Z"
         style="opacity:1;fill:#a0ddf9;fill-opacity:1;stroke:#00152a;stroke-width:6.1949954;stroke-linejoin:miter;stroke-miterlimit:4;stroke-dasharray:none;stroke-dashoffset:0;stroke-opacity:1" />
      <g
         id="g4242"
         transform="matrix(1.1839476,0,0,1.1839476,-13.409858,-201.18696)">
        <text
           xml:space="preserve"
           style="font-style:normal;font-weight:normal;font-size:86.22085571px;line-height:125%;font-family:sans-serif;letter-spacing:0px;word-spacing:0px;fill:#000000;fill-opacity:1;stroke:none;stroke-width:1px;stroke-linecap:butt;stroke-linejoin:miter;stroke-opacity:1"
           x="80.336479"
           y="875.61993"
           id="text4160"
           sodipodi:linespacing="125%"><tspan
             sodipodi:role="line"
             id="tspan4162"
             x="80.336479"
             y="875.61993"
             style="font-style:normal;font-variant:normal;font-weight:600;font-stretch:condensed;font-family:'Placard Condensed';-inkscape-font-specification:'Placard Condensed,  Semi-Bold Condensed'">St. YOHANES DON BOSCO</tspan></text>
        <text
           xml:space="preserve"
           style="font-style:normal;font-weight:normal;font-size:146.92730713px;line-height:125%;font-family:sans-serif;letter-spacing:0px;word-spacing:0px;fill:#000000;fill-opacity:1;stroke:none;stroke-width:1px;stroke-linecap:butt;stroke-linejoin:miter;stroke-opacity:1"
           x="77.653969"
           y="1006.2319"
           id="text4164"
           sodipodi:linespacing="125%"><tspan
             sodipodi:role="line"
             x="77.653969"
             y="1006.2319"
             id="tspan4168"
             style="font-style:normal;font-variant:normal;font-weight:600;font-stretch:condensed;font-family:'Placard Condensed';-inkscape-font-specification:'Placard Condensed,  Semi-Bold Condensed';letter-spacing:46.83000183px">MAGUWO</tspan></text>
        <g
           id="g4211"
           transform="matrix(1.025424,0,0,1.025424,37.611214,-21.969835)"
           style="stroke:none">
          <path
             inkscape:connector-curvature="0"
             id="path4207"
             d="M 201.42857,599.50506 227.14286,482.3622 200,498.07649 167.14286,470.93363 c 0,0 -24.28572,-40 -25.71429,-51.42857 C 140,408.07649 134.28571,360.93363 134.28571,360.93363 l 51.42858,-172.85714 280,-20 L 510,252.3622 l 2.85714,91.42858 0,42.85714 -5.71428,55.71428 -22.85715,97.14286 4.28572,42.85714 5.71428,28.57143 c 0,0 -141.42857,105.71429 -148.57142,104.28572 -7.14286,-1.42857 -144.28572,-10 -144.28572,-15.71429 0,-5.71428 0,-100 0,-100 z"
             style="fill:#ffffff;fill-rule:evenodd;stroke:none;stroke-width:0.97520632px;stroke-linecap:butt;stroke-linejoin:miter;stroke-opacity:1" />
          <path
             inkscape:connector-curvature="0"
             id="path4203"
             d="m 253.57143,114.50506 c 0,0 30.71428,47.85714 35,47.85714 4.28571,0 40,15.71429 40,15.71429 l 20,22.85714 64.28571,-2.85714 42.85715,-36.42857 c 0,0 -37.85715,-44.28572 -40.71429,-49.28572 -2.85714,-5 -45,-32.857139 -45,-32.857139 l -92.85714,6.428571 -26.42857,28.571428 z"
             style="fill:#0499c0;fill-opacity:1;fill-rule:evenodd;stroke:none;stroke-width:1px;stroke-linecap:butt;stroke-linejoin:miter;stroke-opacity:1" />
          <path
             inkscape:connector-curvature="0"
             id="path4201"
             d="m 434.28571,207.3622 29.28572,15 12.85714,1.42858 c 0,0 8.57143,10.71428 9.28572,13.57142 0.71428,2.85715 8.57142,34.28572 8.57142,34.28572 L 495,290.93363 l 11.42857,24.28572 c 0,0 15.71429,-56.42857 15,-63.57143 -0.71428,-7.14286 -5,-42.14286 -8.57143,-45.71429 -3.57143,-3.57143 -64.28571,-42.14285 -64.28571,-42.14285 z"
             style="fill:#0499c0;fill-opacity:1;fill-rule:evenodd;stroke:none;stroke-width:1px;stroke-linecap:butt;stroke-linejoin:miter;stroke-opacity:1" />
          <path
             id="path4170"
             d="m 228.29492,148.27539 -18.18359,2.02149 -34.34571,43.43554 -14.14062,96.97461 22.22266,27.27344 24.68359,7.14648 c 1.37009,23.23676 2.58984,44.3582 2.58984,46.39258 0,5.05076 4.04102,34.3457 4.04102,34.3457 l 6.06055,30.30469 c 0,0 -6.38063,17.54427 -9.21094,24.25781 l -1.90039,-5.0664 -9.0918,-15.15235 -10.10156,-10.10156 -2.01953,-16.16211 3.03125,-14.14258 -7.07227,-22.22265 -18.18164,-8.08008 -12.12305,3.0293 0,28.28515 3.03125,25.25391 4.04102,19.19141 c 0,0 11.11017,16.16331 14.14062,23.23437 3.03047,7.07107 16.16407,21.21289 16.16407,21.21289 l 7.07031,3.03125 10.94141,-1.82422 c 0.0742,4.52093 0.16992,7.88477 0.16992,7.88477 0,0 11.11289,50.50667 12.12305,58.58789 1.01015,8.08122 21.21289,61.61914 21.21289,61.61914 l 82.83203,25.25391 15.15234,-14.14063 c 0,0 -28.28401,-22.22346 -36.36523,-25.25391 -8.08122,-3.03046 -39.39649,-29.29492 -39.39649,-29.29492 l -22.22265,-47.47656 c 0,0 -6.06055,-103.03556 -6.06055,-107.07617 0,-4.04061 4.03906,-55.5586 4.03906,-55.5586 l 18.1836,-39.39648 -4.04102,-34.3457 -11.11133,-43.43555 4.83985,-12.70313 c 5.41161,-1.27515 14.35351,-2.95507 14.35351,-2.95507 l 16.16211,-8.58594 7.57617,-1.00977 10.10156,7.07032 11.61719,4.04101 c 0,0 14.6465,1.51444 17.17188,-0.50586 2.52538,-2.02031 8.08203,-30.80859 8.08203,-30.80859 0,0 -51.0133,-27.27501 -54.54883,-28.28516 -2.2773,-0.65065 -21.63643,7.25188 -35.19922,12.98633 -5.41706,-13.79918 -16.31836,-39.25 -16.31836,-39.25 z"
             style="fill:#ac0032;fill-opacity:1;fill-rule:evenodd;stroke:none;stroke-width:1px;stroke-linecap:butt;stroke-linejoin:miter;stroke-opacity:1"
             inkscape:connector-curvature="0" />
          <path
             inkscape:connector-curvature="0"
             id="path4147"
             d="m 320.11026,735.54883 c -1.72613,-2.0098 -1.97828,-3.4263 -1.17398,-6.595 0.64206,-2.5295 0.54745,-3.2372 -0.65304,-4.8852 -1.43345,-1.9678 -5.76134,-3.9007 -8.77799,-3.9203 -0.9237,-0.01 -2.39232,-0.3771 -3.26358,-0.8247 -2.01366,-1.0346 -5.57294,-4.3356 -5.57294,-5.1687 0,-0.3489 -0.81697,-2.3614 -1.8155,-4.4721 -1.67243,-3.5352 -2.28675,-4.0829 -7.79634,-6.9506 -6.54188,-3.4051 -19.07652,-11.0641 -21.92541,-13.397 -0.98795,-0.8091 -3.35267,-2.6128 -5.25495,-4.0082 -1.90228,-1.3955 -5.76232,-4.3328 -8.57787,-6.5272 -2.81555,-2.1945 -6.07914,-4.7043 -7.25241,-5.5774 -1.17327,-0.8731 -4.35519,-3.2423 -7.07092,-5.2649 -5.30824,-3.9533 -9.94784,-6.5646 -11.66369,-6.5646 -0.58657,0 -2.63932,-1.6787 -4.56165,-3.7304 -10.05083,-10.7274 -9.07263,-9.9873 -12.6113,-9.5408 -1.76713,0.2229 -5.62072,1.1789 -8.56354,2.1242 -2.94282,0.9453 -6.04322,1.7148 -6.88979,1.7099 -0.8655,-0.01 -3.25564,-1.6716 -5.46065,-3.8075 l -3.92143,-3.7986 -6.30703,-0.3901 c -5.49053,-0.3395 -6.60965,-0.6447 -8.64462,-2.357 l -2.33759,-1.9669 -13.90526,-0.018 c -7.64788,-0.01 -15.28846,-0.3369 -16.97905,-0.727 -1.69059,-0.3901 -5.25651,-1.0184 -7.92427,-1.3962 -5.59206,-0.7919 -13.53115,-4.4123 -15.17399,-6.9196 -1.65382,-2.524 -0.70497,-6.8948 1.49678,-6.8948 0.89902,0 2.4129,-0.5971 3.36418,-1.327 0.95128,-0.7299 2.21914,-1.5515 2.81746,-1.8258 0.59832,-0.2743 4.02509,-2.4434 7.61503,-4.8204 3.58994,-2.3769 9.13804,-5.787 12.3291,-7.578 7.38435,-4.1445 13.53739,-8.4206 35.57023,-24.72 l 5.1101,-3.7804 0.89667,-24.0025 c 0.93402,-25.00241 0.99887,-25.4571 4.81238,-33.74342 1.07641,-2.33893 2.128,-5.30562 2.33685,-6.59263 0.24312,-1.49816 1.78741,-3.85255 4.29247,-6.54418 2.15199,-2.3123 3.91273,-4.65542 3.91273,-5.20695 0,-1.77029 -3.41151,-6.47726 -6.63562,-9.15539 -1.72196,-1.43035 -2.93075,-2.8007 -2.68622,-3.04524 0.24454,-0.24453 3.50266,0.049 7.24026,0.65213 l 6.79565,1.09673 4.43229,-4.38741 4.43231,-4.3874 1.55093,1.9717 c 0.90943,1.15614 1.55095,3.01538 1.55095,4.4949 0,4.88274 3.70517,24.34644 5.40202,28.37739 0.94415,2.2429 3.18361,7.01522 4.97656,10.60517 1.79296,3.58994 3.50027,7.66942 3.79404,9.06551 0.29376,1.39609 0.57547,12.3291 0.62603,24.29558 0.0787,18.62901 0.28149,22.43501 1.41047,26.47131 2.18878,7.8253 3.21816,8.6998 17.15197,14.5723 3.50324,1.4764 12.16062,6.3416 20.21663,11.361 8.76389,5.4604 13.62221,7.1305 26.92405,9.2551 4.18826,0.6689 9.44707,1.86 11.68623,2.6469 2.83384,0.9958 4.87517,1.2797 6.71649,0.9343 2.38484,-0.4474 4.44592,-1.7823 2.75186,-1.7823 -1.00063,0 -9.55073,-6.4085 -9.55073,-7.1585 0,-0.3488 1.49937,-1.2833 3.33194,-2.0766 l 3.33192,-1.4423 -4.6011,-2.5381 c -2.5306,-1.396 -7.00647,-3.7868 -9.94636,-5.313 -3.09195,-1.6051 -7.9836,-5.1561 -11.60386,-8.4237 -3.44223,-3.1068 -8.49327,-7.0181 -11.22453,-8.6917 -4.91932,-3.0145 -8.65395,-7.1127 -12.04142,-13.2139 -2.07635,-3.7397 -1.33305,-4.1774 1.92638,-1.1343 1.46614,1.3688 3.11635,2.8967 3.66715,3.3953 0.67562,0.6117 3.63903,0.9062 9.10859,0.9055 10.97215,0 12.30233,-0.6954 15.40851,-8.0376 1.27984,-3.0251 2.89582,-8.41006 3.59108,-11.96645 0.69525,-3.55638 1.54516,-7.01108 1.88868,-7.67711 0.57167,-1.10838 1.78306,-8.12565 2.48271,-14.38173 0.15613,-1.39609 -0.0204,-5.31239 -0.39237,-8.70289 -0.37193,-3.3905 -0.85496,-8.28588 -1.07339,-10.87862 -0.21842,-2.59274 -0.70855,-6.50904 -1.08917,-8.70289 -2.46133,-14.18691 -2.92092,-17.39812 -2.91961,-20.39927 10e-4,-4.06901 0.24478,-4.29265 8.89828,-8.18991 4.39466,-1.97921 8.55549,-4.56841 12.03127,-7.48679 3.77138,-3.1666 6.92965,-5.07846 10.8832,-6.58818 3.36206,-1.28385 8.69886,-4.31749 13.46353,-7.65319 7.06941,-4.9492 8.24152,-5.52519 11.2256,-5.51633 6.88131,0.0205 8.45715,1.47853 3.76406,3.48277 -1.55733,0.66507 -3.40316,2.05977 -4.10182,3.0993 -0.69867,1.03954 -3.08764,3.16361 -5.30882,4.72015 -4.51895,3.16677 -6.53472,5.1003 -12.65616,12.13978 -2.32591,2.67474 -5.95243,5.96567 -8.05893,7.31318 -3.68654,2.35826 -4.78531,3.915 -7.39956,10.48374 -0.37719,0.94773 -1.97627,2.44408 -3.55352,3.3252 -2.78909,1.55813 -2.87355,1.7208 -3.08,5.93275 -0.30204,6.16213 0.38477,6.62222 11.76871,7.88378 l 9.17887,1.01718 4.49978,4.08047 c 2.47489,2.24425 5.60333,4.54397 6.95208,5.11049 2.91867,1.22594 13.1304,1.42619 16.76661,0.32878 3.45118,-1.04156 26.28334,-2.4429 31.00406,-1.90291 l 3.80751,0.43554 0,-2.7949 c 0,-3.46659 -1.65512,-5.10626 -6.34542,-6.28613 -3.42547,-0.86169 -3.4516,-0.89135 -4.53319,-5.14599 -2.05723,-8.09248 -4.1221,-9.71861 -12.34076,-9.71861 -2.83822,0 -5.76439,-0.32326 -6.50261,-0.71834 -0.73822,-0.39509 -1.88077,-2.33974 -2.53899,-4.32144 -0.65821,-1.98172 -2.00037,-4.7873 -2.98255,-6.23463 -1.39735,-2.0591 -1.68479,-3.16992 -1.32145,-5.10669 0.42173,-2.24803 0.69368,-2.47517 2.96344,-2.47517 1.37451,0 3.86747,0.30008 5.53991,0.66685 1.67244,0.36677 4.99896,1.05058 7.39225,1.51959 2.48812,0.48759 6.99116,2.29001 10.516,4.20923 12.57505,6.8469 14.98587,7.43198 26.23214,6.36619 8.33233,-0.78963 10.83551,-2.58297 20.11478,-14.41076 5.40388,-6.88803 7.78682,-7.87964 10.92024,-4.54427 2.14859,2.28707 1.68601,5.96613 -1.20762,9.60462 -5.91753,7.44076 -6.25072,8.55773 -3.91276,13.11668 1.63025,3.17893 4.14195,5.64906 7.87118,7.74091 l 2.70859,1.51935 1.09127,-3.28474 c 0.90861,-2.73498 1.51611,-3.41994 3.6296,-4.09239 3.75759,-1.19555 4.62452,-3.55678 4.94949,-13.48068 l 0.2779,-8.48639 -2.06338,-1.91227 c -1.13486,-1.05175 -3.69804,-2.89367 -5.69597,-4.09315 -4.61797,-2.77247 -6.40978,-5.18863 -6.88251,-9.2807 -0.33106,-2.86566 -0.79031,-3.56327 -3.82118,-5.80451 -3.2274,-2.38658 -3.44419,-2.75354 -3.43379,-5.81234 0.0101,-2.96962 0.95757,-5.90048 1.63481,-5.05703 0.15086,0.18789 1.00089,1.39409 1.88895,2.68045 1.10168,1.59575 2.58238,2.59838 4.66053,3.15575 2.94111,0.78883 11.01202,4.23283 20.81425,8.88181 2.59274,1.22967 6.20369,3.47499 8.02433,4.98961 1.82064,1.51461 3.6972,2.75385 4.17014,2.75385 0.47293,0 0.85987,0.32636 0.85987,0.72524 0,1.00518 7.72133,0.91346 9.64217,-0.11455 3.62682,-1.94102 6.10863,-6.23013 8.45288,-14.6085 0.87063,-3.11164 2.54007,-7.68066 3.70986,-10.15338 1.89629,-4.00835 2.12697,-5.25743 2.12748,-11.51952 5.4e-4,-6.67164 1.43545,-16.07688 2.83406,-18.57604 1.32406,-2.36596 2.23509,4.58038 2.21607,16.89683 -0.0181,11.74711 -1.13392,25.36406 -2.85247,34.81157 -1.24301,6.83328 -2.75221,14.23908 -3.54706,17.40579 -0.40049,1.59553 -1.26083,5.0223 -1.91189,7.61503 -1.38957,5.53375 -3.42286,12.71705 -5.748,20.30676 -5.87933,19.19131 -9.6089,37.8911 -8.66463,43.44392 0.40984,2.41009 2.30953,4.98411 4.62015,6.26016 2.0971,1.15814 24.49504,11.94039 28.32267,13.63439 5.90421,2.613 6.56115,7.0616 1.6762,11.3507 -1.42561,1.2517 -2.47617,2.3711 -2.33455,2.4876 0.1416,0.1165 1.83313,1.1214 3.75896,2.2331 1.92583,1.1117 4.64123,3.0962 6.03423,4.41 2.21377,2.0878 2.4276,2.5851 1.69798,3.9484 -1.96364,3.6691 -9.1263,5.0584 -18.84874,3.6561 l -3.98882,-0.5753 -3.27726,3.3479 c -6.12776,6.2599 -9.64131,10.5898 -13.60432,16.7649 -2.1759,3.3905 -4.97896,7.2677 -6.22902,8.6159 -2.77623,2.9942 -8.25645,6.6142 -10.01315,6.6142 -1.93855,0 -3.3811,2.7708 -4.16626,8.0023 -1.23291,8.2148 -4.82289,22.3742 -7.165,28.2597 -1.45926,3.667 -2.39254,7.7859 -3.36876,14.8675 -1.2837,9.3121 -1.88078,10.7439 -5.12156,12.2817 -2.07973,0.987 -3.60381,1.1537 -6.97212,0.7628 -2.37083,-0.2752 -5.19813,-0.5873 -6.28291,-0.6935 -1.08477,-0.1062 -4.11378,-0.4381 -6.73113,-0.7376 -4.4055,-0.5041 -5.15934,-0.3686 -10.15337,1.824 -7.31786,3.2128 -16.66798,6.3339 -22.80035,7.6107 -11.79458,2.4558 -18.65365,5.3881 -53.52099,22.8806 l -12.90747,6.4756 -7.8308,0 c -6.55916,0 -8.00781,-0.2061 -8.92083,-1.2692 z m 50.098,-127.1297 c 11.31491,-1.7841 14.59804,-2.3575 21.11561,-3.6882 3.78939,-0.7737 8.8241,-1.7383 11.18824,-2.1437 2.36415,-0.4054 4.4947,-0.8584 4.73455,-1.0066 0.23985,-0.1483 3.20093,-0.6408 6.58017,-1.0945 13.82504,-1.8563 19.1553,-4.5939 26.85605,-13.7931 5.51354,-6.5863 6.00421,-7.7169 5.22049,-12.0289 -0.83901,-4.6162 -0.29617,-6.46041 3.65874,-12.43026 4.71873,-7.1228 7.97047,-15.47447 8.83105,-22.68147 0.61341,-5.13694 -0.35983,-6.54328 -4.88081,-7.05286 -4.294,-0.484 -5.9708,-0.0378 -10.07607,2.68145 -5.41429,3.58627 -7.05115,6.78842 -8.5829,16.79059 -0.7293,4.7623 -1.73665,9.15352 -2.23856,9.75826 -0.74897,0.90246 -2.80898,1.07596 -11.4923,0.96793 -7.62547,-0.0949 -11.79486,0.18521 -14.93121,1.00298 -2.39329,0.62403 -5.76797,1.35407 -7.49928,1.62229 -3.0076,0.46597 -3.11243,0.42153 -2.35313,-0.99722 0.43708,-0.81671 1.0855,-1.66465 1.44093,-1.88431 1.05673,-0.6531 3.69742,-6.13911 3.69742,-7.68137 0,-1.62338 0.0889,-1.6025 -7.2837,-1.71058 -8.76166,-0.12844 -11.95188,-3.52607 -7.40244,-7.88369 3.96385,-3.7967 6.80312,-4.47099 18.31234,-4.34898 12.314,0.13055 14.25866,-0.50089 13.48323,-4.378 -0.61953,-3.09768 -1.523,-3.48658 -6.95606,-2.99425 -4.40634,0.3993 -15.99809,-0.48894 -21.75723,-1.66718 -2.59079,-0.53004 -16.90103,-0.50081 -41.94696,0.0857 -11.85461,0.2776 -14.2352,0.51848 -15.38225,1.55655 -1.73847,1.57329 -7.21725,9.9619 -7.21725,11.05039 0,0.45523 -2.5737,3.3876 -5.71932,6.51636 -7.28677,7.2477 -9.03578,10.83185 -8.93056,18.30091 0.10554,7.4919 1.20228,12.5975 3.8831,18.0768 5.5935,11.4324 15.91149,16.8449 39.4138,20.6754 7.54743,1.2301 10.41496,1.2971 16.23431,0.3796 z M 173.60488,466.63163 c -1.74504,-0.94727 -6.38052,-8.95391 -6.38052,-11.02076 0,-0.38173 -0.99382,-2.06597 -2.20848,-3.74277 -2.46387,-3.40126 -3.88501,-6.59704 -2.93367,-6.59704 0.34313,0 1.18549,0.85713 1.87191,1.90473 0.68642,1.04761 3.33482,4.29749 5.88534,7.22196 2.95679,3.3903 4.63731,5.95311 4.63731,7.07197 0,0.96512 0.48954,2.16104 1.08786,2.65761 1.11279,0.92353 1.525,3.64954 0.54393,3.59716 -0.29916,-0.0159 -1.42582,-0.50775 -2.50368,-1.09286 z m 24.01639,-26.51171 c -6.757,-7.95765 -10.99012,-14.1634 -14.23026,-20.86153 -4.32666,-8.94422 -4.68518,-12.35985 -2.0274,-19.3149 1.067,-2.79218 2.29283,-6.46098 2.72406,-8.15289 l 0.78407,-3.07619 -4.34598,-4.53884 c -2.39029,-2.49636 -4.91387,-5.4119 -5.60796,-6.47898 -0.69409,-1.06708 -2.2089,-2.27025 -3.36625,-2.67371 -3.25457,-1.13455 -4.91876,0.68815 -5.86809,6.42696 -0.4289,2.59273 -1.44208,7.80042 -2.25153,11.57263 -1.21515,5.66294 -1.38537,8.22311 -0.9764,14.68613 0.27808,4.39477 0.2156,7.82757 -0.14248,7.82757 -2.76896,0 -7.42048,-9.84889 -8.18523,-17.33097 -0.30997,-3.03276 -0.91683,-6.43286 -1.34857,-7.55575 -0.8028,-2.08804 -1.09164,-21.40077 -0.36076,-24.12252 0.56304,-2.09673 3.98228,-3.93336 7.32268,-3.93336 2.8466,0 6.0327,1.60736 6.0327,3.04345 0,1.25796 2.37363,2.71038 4.47039,2.73541 1.9247,0.023 10.56588,5.75293 14.32864,9.50129 2.87901,2.868 8.21395,9.90584 10.03421,13.23711 0.90018,1.64743 2.44217,3.41736 3.42666,3.93319 3.73631,1.95765 3.81044,4.89027 0.2349,9.29179 -3.84696,4.73562 -6.38611,11.0612 -6.38611,15.90914 0,3.03269 2.87101,10.12896 7.16067,17.69897 1.64598,2.9047 2.9927,5.41524 2.9927,5.57896 0,1.09781 -1.71641,-0.22525 -4.41466,-3.40296 z M 432.18024,418.0513 c -6.56235,-5.50316 -10.01903,-12.47368 -11.85688,-23.90974 -1.16603,-7.25569 -1.93392,-8.8994 -4.41183,-9.44363 -2.54743,-0.55951 -2.67702,-1.30424 -0.40692,-2.33857 2.3199,-1.05701 4.10367,-5.12544 4.10367,-9.35967 0,-4.78982 1.66239,-12.37039 3.47895,-15.86414 3.01621,-5.80103 6.4305,-6.88905 25.96107,-8.27287 8.71726,-0.61766 11.02039,-1.06164 16.97541,-3.27239 3.78938,-1.40677 7.45577,-2.56237 8.14752,-2.568 0.69175,-0.006 2.25202,-0.90772 3.46725,-2.00465 2.68398,-2.42267 6.3778,-12.61902 7.00512,-19.33675 0.51441,-5.50874 -0.50429,-7.79028 -6.01892,-13.48041 l -3.8658,-3.98882 5.11435,-2.43792 c 2.81289,-1.34085 5.20895,-2.80947 5.32458,-3.26358 1.15398,-4.53211 3.77252,-12.20488 4.85702,-14.2319 0.74378,-1.39018 1.35232,-2.89024 1.35232,-3.33347 0,-0.44323 0.43729,-1.75349 0.97176,-2.9117 0.53447,-1.15821 1.31171,-2.92174 1.7272,-3.91894 0.74733,-1.79364 0.75972,-1.78585 1.15537,0.72524 0.21996,1.39609 0.78586,7.76008 1.25755,14.1422 0.81195,10.98598 0.98496,11.83557 3.24912,15.95531 1.31533,2.39329 3.15419,5.06586 4.08635,5.93905 l 1.69485,1.58761 0.14427,-14.27933 c 0.15185,-15.0301 0.12586,-14.84345 4.88336,-35.06773 1.68986,-7.18366 1.50246,-13.77818 -0.49487,-17.41399 -2.29025,-4.16902 -3.02222,-5.37691 -3.94129,-6.5039 -0.44132,-0.54115 -1.67831,-2.56167 -2.74886,-4.49008 -2.30839,-4.1581 -9.55245,-13.68997 -14.41596,-18.96878 -0.73881,-0.8019 -3.40876,-4.08694 -5.93323,-7.3001 -7.06425,-8.99141 -12.28394,-10.78581 -14.12421,-4.85553 -0.46424,1.49599 -1.54453,4.47151 -2.40067,6.61228 l -1.55661,3.8923 4.52004,4.24852 c 2.48602,2.33669 4.52004,4.54596 4.52004,4.90948 0,1.37886 -13.49673,13.43215 -16.55605,14.78545 -3.75052,1.65902 -6.09245,1.37422 -10.24251,-1.2456 -3.2168,-2.03068 -4.41413,-2.24325 -5.65364,-1.00374 -0.45742,0.45742 -3.21515,0.98145 -6.12828,1.16451 -9.4273,0.59239 -17.17225,-3.02191 -28.56339,-13.32954 -7.98931,-7.22936 -8.40318,-7.33531 -12.59996,-3.22552 -1.86332,1.8247 -4.26312,3.90278 -5.33289,4.61795 -1.33971,0.89565 -2.08477,2.17415 -2.39402,4.10809 -0.2876,1.79857 -1.26739,3.60101 -2.72594,5.0147 -2.22181,2.15346 -7.32743,4.44433 -9.90499,4.44433 -0.7076,0 -4.33809,1.18408 -8.06779,2.63129 -5.91551,2.29536 -7.79975,2.67618 -14.75891,2.98286 -8.91833,0.39303 -15.13538,-0.49815 -19.54469,-2.8016 -5.94833,-3.10744 -15.16309,-6.43875 -17.81028,-6.43875 -2.61768,0 -2.7553,-0.12545 -3.53506,-3.22212 -0.44624,-1.77216 -0.81134,-4.34006 -0.81134,-5.70644 0,-2.36627 0.14347,-2.50356 3.01948,-2.88931 2.98518,-0.4004 6.46337,-2.36989 6.66644,-3.77482 0.0655,-0.4529 -3.86275,-0.74665 -10.4606,-0.78225 -5.81099,-0.0313 -10.95081,-0.29518 -11.42183,-0.58628 -0.47101,-0.29111 -3.12438,-3.24466 -5.89638,-6.56346 -5.12301,-6.13358 -7.86648,-7.83887 -9.89826,-6.15264 -0.56017,0.4649 -1.01849,1.45803 -1.01849,2.20695 0,1.22075 -0.61929,1.36335 -5.98324,1.37782 -4.58368,0.0123 -6.3376,0.30922 -7.49816,1.26917 -1.72513,1.42691 -4.64963,5.50296 -4.64963,6.48044 0,0.35862 1.2126,1.34504 2.69465,2.19203 3.00523,1.71748 3.1047,1.64354 -3.6877,2.74125 -1.8333,0.29628 -3.71901,1.34437 -5.43931,3.02322 -1.44823,1.41335 -4.10177,3.56155 -5.89674,4.77378 -5.23354,3.53446 -6.40657,4.87422 -7.70403,8.7991 -0.67334,2.03684 -1.91525,4.8456 -2.7598,6.24169 -3.43134,5.67214 -4.83232,10.05556 -5.16282,16.15361 -0.30864,5.69456 0.86309,8.42972 5.8519,13.65997 4.59685,4.81931 5.20835,6.16294 6.20047,13.6243 0.64993,4.88789 3.67808,15.15258 5.05042,17.11976 0.27827,0.39888 1.43406,3.49929 2.56842,6.88979 1.78098,5.3232 2.0664,7.3101 2.09124,14.55797 0.0255,7.42391 -0.17866,8.84802 -1.76683,12.3291 -2.64336,5.79392 -5.91925,9.89123 -12.13428,15.17691 -6.74399,5.73554 -10.0352,10.28366 -15.21969,21.032 -1.97437,4.09323 -2.82013,7.0546 -3.4176,11.96647 -0.67859,5.57879 -1.20408,7.18578 -3.61669,11.05993 -2.55957,4.11018 -4.06705,5.56185 -4.06705,3.9165 0,-0.33895 -1.75813,-3.53261 -3.90695,-7.09703 -3.7255,-6.17977 -9.21173,-18.048 -10.24384,-22.16023 -0.5392,-2.14838 -5.11782,-7.83902 -6.30716,-7.83902 -1.30725,0 -7.78218,-4.98901 -10.95901,-8.44403 -5.59694,-6.08707 -15.55017,-9.81131 -26.62982,-9.96419 -4.88352,-0.0674 -6.62177,0.19553 -8.22557,1.24411 -2.53281,1.65596 -5.26076,7.67482 -5.83422,12.87242 -0.47839,4.33585 -1.71051,8.64702 -2.4682,8.63612 -0.98847,-0.0142 -12.53111,-11.74755 -14.27637,-14.51223 -1.89794,-3.00652 -2.35178,-7.03506 -1.06369,-9.44187 1.21398,-2.26833 2.20736,-8.7761 1.72893,-11.32637 -0.52003,-2.772 -2.31583,-4.84259 -6.82069,-7.86436 -1.78396,-1.19665 -4.02649,-2.99162 -4.98339,-3.98883 -2.58097,-2.68968 -5.894,-10.12864 -5.89465,-13.23565 -5.8e-4,-3.08075 0.61298,-3.29835 4.60163,-1.63179 1.43199,0.59832 4.75027,1.08786 7.37395,1.08786 4.12621,0 5.01607,-0.24576 6.59037,-1.82004 2.48701,-2.48701 3.96277,-6.3028 4.01056,-10.36983 0.022,-1.87154 0.35195,-4.85459 0.73324,-6.62897 0.3813,-1.77438 0.88509,-6.66976 1.11955,-10.87862 0.49371,-8.86288 1.28099,-11.50252 5.1437,-17.24613 3.1406,-4.66986 5.35777,-8.76066 6.75148,-12.45684 0.68657,-1.82084 0.9433,-8.86535 0.97792,-26.83392 l 0.0469,-24.36492 1.98837,-5.61788 c 1.98082,-5.59652 7.28237,-14.53286 12.91163,-21.76388 7.35515,-9.44804 12.44357,-14.2287 21.91836,-20.59266 12.26301,-8.23673 14.64317,-10.58492 15.69355,-15.48265 0.69141,-3.22392 4.63244,-10.03991 9.1336,-15.79649 0.39888,-0.51014 3.82564,-3.25386 7.61503,-6.09714 3.78938,-2.8433 7.05745,-5.42082 7.26238,-5.72783 0.89678,-1.34359 10.65526,-6.46641 12.31786,-6.46641 2.10697,0 8.9864,-2.387504 10.88242,-3.776744 0.70359,-0.51553 3.52012,-2.73479 6.25898,-4.9317 12.4786,-10.00944 24.54115,-16.694767 33.26413,-18.435727 9.01196,-1.79863 18.34784,-2.64216 33.72371,-3.04704 l 14.14221,-0.3724 6.88979,2.31707 c 6.44106,2.16617 7.85811,2.35917 21.75723,2.96339 8.1771,0.35548 23.8423,0.76042 34.81158,0.89988 23.05749,0.29314 24.74281,0.60518 33.24545,6.155597 4.91839,3.21066 15.57455,8.70115 22.58723,11.63787 2.2852,0.95699 6.53805,4.42965 6.53805,5.33865 0,1.361994 10.04659,17.240534 12.09447,19.115194 1.36468,1.24925 4.99456,3.31771 8.06641,4.59659 9.85216,4.10165 13.93822,7.37162 20.90224,16.72755 3.39817,4.56532 4.93891,7.44148 8.20291,15.31272 1.80027,4.34141 3.24883,6.46949 6.66445,9.79075 5.07764,4.93736 13.01725,14.69186 17.0311,20.92419 l 2.8025,4.35145 -0.16781,7.78043 c -0.14594,6.76698 -0.51092,8.79803 -2.80202,15.59269 -2.58101,7.65444 -2.64118,8.09059 -2.97918,21.59183 -0.57997,23.16713 2.65854,38.78365 8.8895,42.86634 1.78012,1.16638 2.13603,1.16882 5.71898,0.0394 6.13469,-1.93379 5.8653,-2.25142 5.89764,6.95404 0.0302,8.5787 1.26482,17.07511 2.92466,20.12598 1.21393,2.23128 3.72201,2.21838 6.8872,-0.0354 1.21521,-0.8653 2.41729,-1.36545 2.67128,-1.11145 0.61661,0.6166 -0.89205,7.73696 -3.11736,14.71292 -0.99178,3.10908 -1.98162,6.9583 -2.19962,8.55383 -0.78544,5.74842 -0.89948,5.93261 -4.82929,7.80027 -2.0988,0.99748 -4.43195,2.49972 -5.18476,3.33833 -0.7528,0.83861 -2.46442,1.7303 -3.80358,1.98153 -2.42406,0.45476 -4.18858,2.76064 -8.27429,10.81283 -0.78518,1.54746 -1.72561,2.24661 -3.2568,2.42121 -2.91666,0.33257 -3.72846,1.14632 -4.30276,4.31311 -1.19808,6.6065 -6.03071,17.2493 -11.92425,26.26048 l -2.60639,3.98516 -0.22167,-3.45633 c -0.12191,-1.90099 0.10494,-7.54334 0.50413,-12.53857 0.57031,-7.13678 0.50005,-10.80025 -0.32801,-17.10272 -1.00407,-7.64204 -2.41793,-12.67097 -2.47074,-8.78813 -0.0121,0.89177 -0.34201,3.0131 -0.73306,4.71407 -2.52189,10.96953 -3.64224,16.29341 -3.6414,17.30379 0.002,1.72368 -2.05706,3.26714 -6.64145,4.97982 -4.83042,1.80458 -6.31443,3.22211 -5.20859,4.97524 0.53067,0.84127 1.54689,1.13141 3.40284,0.97151 3.20722,-0.27632 3.45137,0.84276 0.8062,3.69545 -2.14603,2.3144 -1.71174,3.81199 1.83855,6.34001 2.86502,2.04008 2.79943,3.26104 -0.0948,1.76439 -2.59648,-1.3427 -3.49933,-0.65864 -3.51885,2.66611 -0.0104,1.78067 -0.27142,1.91831 -4.46894,2.35703 -10.16919,1.06294 -12.22271,0.4996 -12.22271,-3.35295 0,-1.1431 -0.31142,-2.66024 -0.69204,-3.37143 -0.86398,-1.61436 -8.29844,-4.04119 -10.01972,-3.27074 -0.6901,0.30889 -6.17978,0.75314 -12.19931,0.98721 -10.31977,0.40129 -11.11348,0.53736 -13.90316,2.38349 -1.62722,1.07683 -3.18217,2.66238 -3.45546,3.52343 -0.64463,2.03108 1.42901,4.85452 5.16368,7.03081 5.4222,3.15963 5.16296,2.86235 3.55802,4.08027 -0.79777,0.6054 -3.26422,2.07851 -5.48101,3.27359 -4.49925,2.42557 -5.32388,3.65258 -6.49914,9.67036 -0.44793,2.29358 -1.03604,4.16375 -1.30692,4.15595 -0.27088,-0.008 -1.85184,-1.15412 -3.51324,-2.54737 z M 214.66096,309.28834 c 0.65339,-0.9972 1.67,-1.8131 2.25913,-1.8131 0.58913,0 1.07115,-0.65272 1.07115,-1.45048 0,-1.90625 -1.47634,-1.8709 -1.97797,0.0473 -0.34004,1.3003 -0.76152,1.43536 -3.19569,1.02412 -2.99254,-0.50559 -3.42395,0.0412 -2.05324,2.6024 1.02408,1.9135 2.47405,1.76082 3.89662,-0.41029 z M 175.51282,283.8531 c 0.62682,-0.62681 1.13967,-1.61289 1.13967,-2.19127 0,-0.57838 0.8159,-1.42335 1.8131,-1.87771 2.03173,-0.92572 2.31792,-2.17245 0.78982,-3.44066 -0.72883,-0.60486 -1.16378,-0.62196 -1.51145,-0.0594 -0.26849,0.43441 -1.68456,1.58026 -3.14685,2.54631 -1.46228,0.96605 -3.3114,2.27844 -4.10917,2.91642 -1.43335,1.14626 -1.43386,1.17227 -0.0427,2.20297 1.83219,1.35747 3.64811,1.32283 5.06758,-0.0966 z m 14.18943,-0.49213 c -0.004,-0.74181 -2.71081,-2.81929 -5.25342,-4.03165 -1.03468,-0.49336 -0.53963,2.66316 0.59574,3.79854 1.35718,1.35718 4.6642,1.52269 4.65768,0.23311 z M 377.18817,188.7866 c 1.04886,-1.60075 1.17773,-2.85223 0.76547,-7.43372 -0.27264,-3.0299 -0.78861,-5.80491 -1.14658,-6.16669 -0.38938,-0.39352 -1.61035,-0.38406 -3.03909,0.0236 -2.23975,0.63898 -2.4024,0.90462 -2.61622,4.27261 -0.19274,3.03611 0.78704,8.74728 1.83309,10.68514 0.65121,1.20641 3.0174,0.42908 4.20333,-1.38089 z m -161.24069,-2.68869 c 1.42362,-1.7842 2.73604,-2.56422 4.89538,-2.90952 1.62267,-0.25947 2.94909,-0.71268 2.94759,-1.00713 -0.001,-0.29445 -0.64527,-1.58921 -1.43062,-2.87726 -1.44372,-2.36784 -3.1275,-2.58682 -3.92431,-0.51035 -0.21622,0.56344 -2.1996,2.18002 -4.40752,3.59242 -2.20793,1.41239 -4.01442,2.77703 -4.01442,3.03253 0,0.80797 2.36661,3.11709 3.19469,3.11707 0.43677,-2e-5 1.66943,-1.097 2.73921,-2.43776 z m 205.40943,-4.14504 c 2.68785,-3.19433 2.53582,-9.37248 -0.23064,-9.37248 -0.91282,0 -1.45106,1.08099 -2.09813,4.2138 -1.59959,7.74442 -0.98764,9.10001 2.32877,5.15868 z m -67.9606,-0.12566 c 1.23746,-1.63096 3.57855,-8.85419 3.29076,-10.15337 -0.60462,-2.72959 -2.85227,-1.32574 -4.7898,2.99165 -2.31202,5.15188 -2.511,8.06828 -0.55046,8.06828 0.74892,0 1.67119,-0.40796 2.0495,-0.90656 z M 219.30419,160.01392 c 0.2056,-2.43303 0.0643,-2.66359 -1.63179,-2.66359 -2.05329,0 -2.4935,1.80679 -1.08254,4.44319 1.13922,2.12867 2.45707,1.26464 2.71433,-1.7796 z m 90.66625,-36.61395 c 0.57161,-1.90789 0.6072,-3.5363 0.1148,-5.25321 -1.05774,-3.68812 -0.8983,-4.3109 1.10363,-4.3109 1.19767,0 2.93088,1.1296 5.0835,3.31313 3.57852,3.62991 6.51621,4.22272 6.51621,1.31493 0,-2.16831 -6.95719,-9.37713 -14.97371,-15.51527 l -6.78352,-5.194044 -5.83692,0.33621 c -6.29538,0.36261 -10.277,1.890371 -13.26123,5.088364 -1.62425,1.74061 -2.44188,4.00266 -3.72083,10.29406 -0.32433,1.59553 -0.83005,3.96162 -1.12381,5.258 -0.81825,3.61102 1.28771,3.04849 4.07262,-1.08787 3.73318,-5.54481 5.03805,-6.70848 7.52244,-6.70848 1.24678,0 2.65567,0.38879 3.13084,0.86397 0.66847,0.66847 1.70494,0.64843 4.58031,-0.0885 4.12932,-1.05831 4.64559,-0.771 5.47517,3.04714 0.24014,1.10522 0.72082,2.18515 1.06819,2.39983 0.34736,0.21469 0.63156,0.85107 0.63156,1.41419 0,1.12449 4.34603,7.59344 5.1015,7.59344 0.25896,0 0.84362,-1.24425 1.29925,-2.76499 z m 76.27674,-5.3946 c 0,-5.23736 -8.34404,-17.34811 -11.19793,-16.25296 -1.66334,0.63828 -1.48096,1.11871 2.49504,6.57247 1.99441,2.73567 3.62621,5.371 3.62621,5.85628 0,0.97384 1.99348,5.30513 3.09188,6.71781 1.15736,1.4885 1.9848,0.28218 1.9848,-2.8936 z m -97.17941,286.5087 c -0.96163,-0.77868 -2.87425,-2.40428 -4.25027,-3.61245 l -2.50186,-2.19665 2.29443,-2.14433 c 2.81299,-2.62897 5.34438,-7.42169 5.04188,-9.54586 -0.21647,-1.52001 -0.54074,-1.57612 -9.10918,-1.57612 -4.8866,0 -8.88449,-0.1726 -8.88421,-0.38357 10e-4,-0.86927 9.23034,-9.20307 11.24176,-10.15116 5.49244,-2.58885 10.61067,-6.40331 15.96317,-11.89689 5.64728,-5.79609 5.97328,-6.00701 11.65325,-7.53963 6.18727,-1.66951 13.26893,-2.00024 18.07377,-0.8441 1.59553,0.38392 4.85912,1.02885 7.25241,1.43317 7.47992,1.26368 8.60833,1.46733 12.18349,2.19878 1.91433,0.39165 11.84511,0.7121 22.0684,0.7121 17.01596,0 18.99584,-0.13141 23.41291,-1.55403 4.78955,-1.54257 8.33594,-1.51561 10.86211,0.0826 0.89479,0.5661 0.64664,1.13145 -1.45048,3.3045 -1.39148,1.44187 -4.08221,3.80923 -5.97939,5.26081 -4.24442,3.2475 -6.78058,6.97388 -9.21219,13.53548 -1.82943,4.93665 -1.94547,5.0682 -5.84368,6.62449 -3.28645,1.31206 -4.11889,2.01176 -4.79311,4.02885 -0.6988,2.0906 -1.18919,2.47309 -3.41603,2.66439 -1.43006,0.12286 -3.81341,-0.11164 -5.29634,-0.52109 -2.34381,-0.64716 -2.82498,-0.56064 -3.6813,0.66193 -0.5418,0.77352 -2.36029,1.77825 -4.04111,2.23274 -1.68082,0.45449 -3.75747,1.15432 -4.61476,1.55518 -1.1672,0.54575 -2.7469,0.33343 -6.28894,-0.84528 l -4.7302,-1.57411 -5.36945,1.85329 c -2.9532,1.01931 -6.19856,1.85328 -7.2119,1.85328 -2.30274,0 -11.90448,-4.67678 -14.46301,-7.04457 -1.78375,-1.6508 -2.10653,-1.70834 -4.89537,-0.87278 -3.11106,0.93209 -3.58732,1.89701 -2.1066,4.268 1.21861,1.95131 0.57796,2.2877 -2.53643,1.33188 -5.2377,-1.6075 -13.7679,2.68559 -16.74745,8.42868 -0.8752,1.68695 -0.87726,1.68716 -2.62432,0.27248 z"
             style="fill:#00152a;fill-opacity:1;stroke:none" />
          <path
             id="path4180"
             d="m 355.71875,454.70898 c -2.98408,-0.009 -4.15715,0.56643 -11.22656,5.51563 -4.76467,3.3357 -10.10083,6.37045 -13.46289,7.6543 -3.95355,1.50972 -7.11144,3.42129 -10.88282,6.58789 -3.47578,2.91838 -7.63659,5.50711 -12.03125,7.48632 -8.6535,3.89727 -8.89743,4.12045 -8.89843,8.18946 -10e-4,3.00115 0.45859,6.21348 2.91992,20.40039 0.38062,2.19385 0.86947,6.11038 1.08789,8.70312 0.21843,2.59274 0.70229,7.48841 1.07422,10.87891 0.37197,3.3905 0.54871,7.30508 0.39258,8.70117 -0.69965,6.25608 -1.91076,13.27443 -2.48243,14.38281 -0.22715,0.44043 -0.67933,2.14752 -1.1582,4.25 l 6.03516,-8.6582 1.00976,12.12305 2.73242,4.63281 c 0.56475,-5.16011 2.81686,-8.63984 8.7793,-14.57031 3.14562,-3.12876 5.71875,-6.0604 5.71875,-6.51563 0,-1.08849 5.48028,-9.47749 7.21875,-11.05078 1.14705,-1.03807 3.52625,-1.27904 15.38086,-1.55664 25.04593,-0.58651 39.35648,-0.61598 41.94727,-0.0859 4.43424,0.90719 12.29741,1.63416 17.70507,1.74219 l 2.54297,-1.38672 10.10157,-9.08984 28.28515,-5.05078 -35.35547,2.01953 -13.85156,0 0,2.14648 -3.80664,-0.43554 c -4.72072,-0.53999 -27.55273,0.86273 -31.00391,1.90429 -3.63621,1.09741 -13.8489,0.89587 -16.76757,-0.33007 -1.34875,-0.56653 -4.47629,-2.86513 -6.95118,-5.10938 l -4.5,-4.08008 -9.17968,-1.01758 c -11.38394,-1.26156 -12.06962,-1.72263 -11.76758,-7.88476 0.20645,-4.21195 0.29099,-4.37351 3.08008,-5.93164 1.57725,-0.88112 3.17554,-2.37844 3.55273,-3.32617 2.61425,-6.56874 3.71385,-8.12417 7.40039,-10.48243 2.1065,-1.34751 5.73269,-4.63971 8.0586,-7.31445 6.12144,-7.03948 8.1373,-8.9719 12.65625,-12.13867 2.22118,-1.55654 4.60992,-3.68116 5.30859,-4.7207 0.69866,-1.03953 2.54423,-2.43454 4.10156,-3.09961 4.69309,-2.00424 3.11764,-3.46193 -3.76367,-3.48243 z"
             style="fill:#ac0032;fill-opacity:1;stroke:none"
             inkscape:connector-curvature="0" />
          <path
             inkscape:connector-curvature="0"
             id="path4191"
             d="m 186.87822,572.53975 5.05076,25.25381 22.22336,42.42641 23.23351,24.24366 53.53808,28.28427 23.23351,19.1929 15.15229,10.10153 4.04061,11.11167 -11.11168,31.31473 -59.599,20.20305 -126.26907,-9.09137 9.09137,-111.11678 z"
             style="fill:#ac0032;fill-opacity:1;fill-rule:evenodd;stroke:none;stroke-width:1px;stroke-linecap:butt;stroke-linejoin:miter;stroke-opacity:1" />
          <path
             sodipodi:nodetypes="csscccccsc"
             inkscape:connector-curvature="0"
             id="path4194"
             d="m 403.57143,359.14792 c 0,0 -5.35714,11.07143 -5.71429,12.5 -0.35714,1.42857 -7.5,31.78571 -7.85714,34.64286 -0.35714,2.85714 -20.35715,40 -20.35715,40 l -4.64285,2.5 -5,-6.42857 18.44888,-12.52847 9.85206,-49.06599 c 0,0 1.69906,-15.19126 3.48477,-16.26269 1.78572,-1.07143 11.78572,-5.35714 11.78572,-5.35714 z"
             style="fill:#ac0032;fill-opacity:1;fill-rule:evenodd;stroke:none;stroke-width:1px;stroke-linecap:butt;stroke-linejoin:miter;stroke-opacity:1" />
          <path
             inkscape:connector-curvature="0"
             id="path4199"
             d="m 335.37065,638.19966 c 9.09137,3.03046 34.34518,16.16244 34.34518,16.16244 l 31.31473,42.42641 -8.08122,34.34519 -18.18275,36.36549 64.64977,-59.599 20.20305,-8.08122 23.23351,-105.05587 0,-11.11168 -33.33504,33.33504 -59.599,17.17259 z"
             style="fill:#0499c0;fill-opacity:1;fill-rule:evenodd;stroke:none;stroke-width:1px;stroke-linecap:butt;stroke-linejoin:miter;stroke-opacity:1" />
        </g>
      </g>
    </g>
  </g>
</svg>
