<?xml version="1.0" encoding="UTF-8" standalone="no"?>
<!-- Created with Inkscape (http://www.inkscape.org/) -->

<svg
   xmlns:dc="http://purl.org/dc/elements/1.1/"
   xmlns:cc="http://creativecommons.org/ns#"
   xmlns:rdf="http://www.w3.org/1999/02/22-rdf-syntax-ns#"
   xmlns:svg="http://www.w3.org/2000/svg"
   xmlns="http://www.w3.org/2000/svg"
   xmlns:sodipodi="http://sodipodi.sourceforge.net/DTD/sodipodi-0.dtd"
   xmlns:inkscape="http://www.inkscape.org/namespaces/inkscape"
   width="105mm"
   height="148mm"
   viewBox="0 0 372.04724 524.40945"
   id="svg2"
   version="1.1"
   inkscape:version="0.92.2 (5c3e80d, 2017-08-06)"
   sodipodi:docname="ekaristi 1000 hari.svg">
  <defs
     id="defs4" />
  <sodipodi:namedview
     id="base"
     pagecolor="#ffffff"
     bordercolor="#666666"
     borderopacity="1.0"
     inkscape:pageopacity="0.0"
     inkscape:pageshadow="2"
     inkscape:zoom="1.1826455"
     inkscape:cx="147.64234"
     inkscape:cy="311.95906"
     inkscape:document-units="px"
     inkscape:current-layer="g3420"
     showgrid="false"
     inkscape:window-width="1299"
     inkscape:window-height="713"
     inkscape:window-x="67"
     inkscape:window-y="27"
     inkscape:window-maximized="1" />
  <metadata
     id="metadata7">
    <rdf:RDF>
      <cc:Work
         rdf:about="">
        <dc:format>image/svg+xml</dc:format>
        <dc:type
           rdf:resource="http://purl.org/dc/dcmitype/StillImage" />
        <dc:title></dc:title>
      </cc:Work>
    </rdf:RDF>
  </metadata>
  <g
     inkscape:label="Layer 1"
     inkscape:groupmode="layer"
     id="layer1"
     transform="translate(0,-527.95276)">
    <g
       id="g3420"
       transform="translate(-5.5045204,7.7061208)">
      <text
         id="text3336"
         y="611.07501"
         x="191.44923"
         style="font-style:normal;font-variant:normal;font-weight:normal;font-stretch:normal;line-height:0%;font-family:SimSun;-inkscape-font-specification:SimSun;text-align:center;letter-spacing:0px;word-spacing:0px;text-anchor:middle;fill:#000000;fill-opacity:1;stroke:#000000;stroke-width:0.505014px;stroke-linecap:butt;stroke-linejoin:miter;stroke-opacity:1"
         xml:space="preserve"><tspan
           style="font-size:20.20056152px;line-height:1.25;stroke-width:0.505014px"
           y="611.07501"
           x="191.44923"
           id="tspan3338"
           sodipodi:role="line">EKARISTI</tspan><tspan
           style="font-size:20.20056152px;line-height:1.25;stroke-width:0.505014px"
           id="tspan3340"
           y="636.32568"
           x="191.44923"
           sodipodi:role="line">PERINGATAN 1000 hari</tspan><tspan
           style="font-size:20.20056152px;line-height:1.25;stroke-width:0.505014px"
           id="tspan3342"
           y="661.57642"
           x="196.49937"
           sodipodi:role="line"> </tspan><tspan
           style="font-size:20.20056152px;line-height:1.25;stroke-width:0.505014px"
           id="tspan3344"
           y="686.82715"
           x="191.44923"
           sodipodi:role="line">BPK. VINCENTIUS FERERIUS PARLAN</tspan><tspan
           style="font-size:20.20056152px;line-height:1.25;stroke-width:0.505014px"
           y="712.07782"
           x="196.49937"
           sodipodi:role="line"
           id="tspan3346"> </tspan></text>
      <path
         inkscape:connector-curvature="0"
         id="path3357"
         d="m 154.48845,873.09606 c -0.15385,-0.0563 -0.50257,-0.58107 -0.77494,-1.16603 -0.59075,-1.26873 -0.65855,-2.94437 -0.16152,-3.99178 0.39056,-0.82304 1.61721,-1.61427 2.97284,-1.91756 1.1652,-0.2607 1.8465,0.0285 2.29249,0.97301 0.86495,1.83182 2.41746,2.72222 4.75641,2.72787 2.48999,0.006 9.75472,-1.80416 12.56019,-3.12967 1.1069,-0.52299 1.4456,-0.59222 2.32615,-0.47541 0.94638,0.12556 1.16978,0.0628 2.73365,-0.76809 2.34955,-1.24831 3.51334,-2.29568 3.51334,-3.16191 0,-0.36738 -0.13689,-0.84893 -0.30419,-1.07014 -0.16731,-0.2212 -0.30716,-0.51198 -0.31079,-0.64617 -0.008,-0.29986 2.09453,-1.58274 3.14627,-1.91964 1.53407,-0.4914 2.61235,-2.62522 2.80233,-5.54551 0.19016,-2.92294 -0.67605,-5.73305 -2.62082,-8.50241 -0.91906,-1.30875 -1.36595,-1.65682 -2.6092,-2.03224 l -0.82876,-0.25026 0.0593,-1.63043 c 0.15845,-4.3541 2.13278,-9.1701 5.10614,-12.45545 0.6709,-0.7413 0.89556,-1.11944 0.70625,-1.18876 -0.15268,-0.0559 -1.44304,-0.33187 -2.86747,-0.61324 -5.02178,-0.99194 -9.11929,-2.439 -12.32779,-4.35365 -1.87291,-1.11765 -4.41262,-3.12727 -7.41713,-5.86905 -0.88872,-0.811 -2.11601,-1.71115 -2.72733,-2.00035 -1.52093,-0.71952 -3.6692,-1.06731 -5.09721,-0.8252 l -1.1263,0.19095 0.0695,1.76111 c 0.11109,2.81352 -0.54666,3.9366 -2.30552,3.9366 -0.90901,0 -1.11242,-0.0882 -1.80867,-0.78447 -1.28402,-1.28401 -1.48329,-2.85427 -0.58911,-4.64225 0.90174,-1.8031 4.10791,-3.26669 8.98475,-4.10146 4.97912,-0.85227 8.90728,-0.7538 16.97445,0.42551 2.27078,0.33196 4.15678,0.57548 4.19111,0.54115 0.0343,-0.0343 0.0687,-6.67637 0.0764,-14.76009 0.0123,-12.89116 -0.0276,-14.87594 -0.32393,-16.14801 -0.38459,-1.65064 -0.31463,-2.41641 0.34062,-3.72843 l 0.46068,-0.92242 -0.46095,-1.682 c -0.38445,-1.4028 -0.43713,-1.96257 -0.31738,-3.37228 0.13186,-1.55236 0.19581,-1.73453 0.78361,-2.2324 0.78697,-0.66658 0.71994,-0.85822 -1.07847,-3.08371 -1.65526,-2.04834 -2.31726,-3.2959 -2.44868,-4.61459 -0.0903,-0.90608 -0.0285,-1.19854 0.37803,-1.78924 1.17635,-1.70923 2.82667,-2.10037 4.73336,-1.12184 1.05269,0.54025 1.2106,0.72174 2.0719,2.3813 1.25737,2.42275 1.69597,2.86528 2.83983,2.86528 0.49659,0 1.21403,-0.13 1.59432,-0.2889 1.14055,-0.47655 1.36715,-1.00131 1.36715,-3.16607 0,-1.05185 0.0861,-2.12662 0.19131,-2.38838 0.10522,-0.26176 0.44275,-1.26843 0.75008,-2.23704 0.30732,-0.96861 0.80395,-2.22729 1.10362,-2.79706 0.50753,-0.96496 0.54486,-1.22106 0.54486,-3.73735 0,-3.01094 0.26241,-3.82507 1.23288,-3.82507 1.48983,0 2.06786,2.77649 1.44649,6.94807 -0.0962,0.64619 -0.0338,0.94802 0.2751,1.32949 0.58229,0.71909 1.08573,0.44711 1.08573,-0.58656 0,-0.76098 0.0626,-0.8471 0.91673,-1.26056 0.57549,-0.27859 1.21175,-0.42043 1.70931,-0.38106 0.663,0.0525 0.80241,-0.006 0.85267,-0.35676 0.0361,-0.25217 -0.19111,-0.66014 -0.56976,-1.02291 -0.76542,-0.73331 -0.79342,-1.08185 -0.11189,-1.39237 0.76165,-0.34704 0.63336,-0.71821 -0.36258,-1.04901 -1.11415,-0.37008 -1.32728,-1.07218 -0.42912,-1.41366 0.7275,-0.2766 1.30967,-0.79115 1.30967,-1.15757 0,-0.1916 -0.28748,-0.27867 -0.92012,-0.27867 -0.50607,0 -0.97559,-0.0897 -1.04338,-0.19942 -0.0678,-0.10968 0.11866,-0.6768 0.41432,-1.26026 0.29566,-0.58346 0.50878,-1.26291 0.4736,-1.50989 -0.0593,-0.41654 -0.16347,-0.44452 -1.43825,-0.38635 -1.19694,0.0546 -1.44063,0.001 -1.88835,-0.41438 -0.28274,-0.2624 -0.67149,-0.91261 -0.8639,-1.44492 -0.38995,-1.07878 -0.88914,-1.65191 -1.02708,-1.1792 -0.38979,1.33576 -0.54409,2.08368 -0.54409,2.63725 0,0.81703 -0.24781,0.81607 -1.28446,-0.005 -1.00322,-0.79457 -1.26301,-0.58172 -1.13612,0.93082 0.0957,1.14018 -0.1634,1.38885 -0.92951,0.89228 -0.26561,-0.17215 -0.76263,-0.3424 -1.10449,-0.37832 -0.61303,-0.0644 -0.62097,-0.0526 -0.57792,0.85984 0.0478,1.01277 -0.1413,1.24222 -1.0278,1.24716 -0.77423,0.005 -0.73359,0.50661 0.0678,0.83858 0.99742,0.41315 1.1926,0.91187 1.01095,2.58322 -0.11112,1.02234 -0.0628,1.97863 0.16371,3.24057 0.43776,2.43879 0.22204,2.85888 -1.31956,2.56967 -1.21232,-0.22743 -2.64202,-1.81812 -3.16973,-3.52666 -1.1823,-3.82783 0.20309,-8.42112 4.93351,-16.35726 1.32123,-2.21661 1.47292,-2.58227 1.47292,-3.55084 0,-1.32395 -0.8074,-4.18083 -1.77093,-6.26628 -0.39531,-0.85558 -0.68373,-1.59061 -0.64095,-1.63339 0.30736,-0.30735 5.78714,4.98863 8.46845,8.18441 2.8667,3.41673 4.04957,5.45511 5.23235,9.01667 0.96239,2.89789 1.37256,5.0128 1.50327,7.75104 0.13287,2.78344 -0.15471,4.81164 -0.98972,6.98012 -1.57836,4.09892 -3.99218,5.92307 -6.6249,5.00648 -1.24484,-0.4334 -1.59662,-0.41239 -1.87732,0.11211 -0.51784,0.96759 0.32456,3.29305 1.51499,4.18212 1.0949,0.81774 2.13921,1.04105 5.02626,1.0748 1.62387,0.019 2.87582,0.12925 3.15267,0.27769 0.65155,0.34933 1.18731,2.29532 1.62568,5.90476 0.11023,0.90762 0.28911,1.18263 1.86517,2.86729 1.21691,1.30078 1.9785,2.33938 2.52241,3.43992 0.70572,1.42793 0.77917,1.7338 0.77917,3.24481 0,1.41059 -0.0902,1.85205 -0.58434,2.85823 -0.676,1.37664 -1.59858,2.37781 -2.3694,2.57128 -0.37092,0.0931 -0.82701,-0.0175 -1.46225,-0.35446 l -0.92319,-0.48975 -0.69768,0.82056 c -0.38372,0.45131 -0.7833,1.14689 -0.88795,1.54573 -0.10465,0.39884 -0.30693,2.97942 -0.44952,5.73462 -0.28621,5.53056 -0.18916,6.85628 0.78601,10.73696 0.31136,1.23902 0.56482,2.96003 0.63053,4.28125 0.0604,1.21515 0.18658,2.33349 0.28034,2.4852 0.35814,0.57948 6.46127,-1.37093 10.21969,-3.26594 2.80673,-1.41517 4.46739,-2.59836 7.02848,-5.00762 1.27104,-1.19569 2.96363,-2.72108 3.76131,-3.38975 0.79768,-0.66867 1.68341,-1.41345 1.9683,-1.65507 0.28489,-0.24162 0.86761,-0.67344 1.29493,-0.95962 0.42733,-0.28618 0.77697,-0.59059 0.77697,-0.67648 0,-0.0859 -0.95566,-0.19574 -2.1237,-0.24413 -2.60933,-0.10809 -3.93007,-0.61565 -5.12018,-1.96769 -0.9797,-1.11299 -1.445,-2.37698 -1.60408,-4.35741 -0.13616,-1.69529 0.0616,-2.12869 0.97121,-2.12869 0.57996,0 2.04659,0.85817 2.34472,1.37197 0.29657,0.5111 0.7169,0.30327 1.25963,-0.62283 0.29279,-0.4996 0.99598,-1.32522 1.56266,-1.83471 2.1243,-1.90993 4.12041,-1.74826 5.66219,0.4586 0.85008,1.21679 1.32166,2.47478 1.12238,2.99409 -0.25678,0.66918 -3.25142,0.11984 -3.75071,-0.68803 -0.41839,-0.67697 -2.01965,0.37176 -2.30529,1.50982 -0.34098,1.35858 1.28785,2.98631 2.75076,2.74891 0.42385,-0.0688 1.03016,-0.31693 1.34735,-0.55144 0.3172,-0.23451 0.98827,-0.50328 1.49129,-0.59725 2.0416,-0.38141 4.67935,-2.63542 4.67935,-3.99861 0,-0.33215 -0.14366,-0.88173 -0.31925,-1.22128 -0.50376,-0.97416 -0.26956,-1.08972 1.9548,-0.96456 4.57583,0.25746 9.27456,2.20805 13.25385,5.50209 3.44477,2.85157 5.61626,5.97278 7.39114,10.62374 0.8929,2.3398 1.23098,2.99423 2.10314,4.071 1.58799,1.96054 3.98034,3.00042 6.74927,2.93368 0.88741,-0.0214 1.66424,0.0119 1.72629,0.0739 0.17435,0.17435 -0.67714,1.73451 -2.00583,3.6752 -2.12938,3.11018 -8.80053,9.90919 -14.07105,14.34076 -4.64258,3.90358 -8.58069,6.6061 -12.53497,8.60209 -3.50052,1.76694 -12.5385,4.8734 -17.0322,5.85417 -3.91755,0.85502 -12.7239,5.09952 -14.98292,7.2215 -2.94889,2.76999 -4.20571,7.62064 -2.7912,10.77258 1.61882,3.60719 6.09509,5.46559 9.4573,3.92632 1.53058,-0.70073 2.28934,-1.69584 2.41092,-3.16188 0.084,-1.0125 0.0462,-1.13384 -0.45474,-1.46208 -0.83189,-0.54508 -2.01965,-0.30408 -3.03867,0.61654 -1.13457,1.02502 -2.18133,1.51126 -2.63799,1.22539 -0.94703,-0.59282 -0.16508,-3.29451 1.33593,-4.61575 1.16761,-1.02777 2.06109,-1.33107 3.5945,-1.22015 1.08571,0.0785 1.3012,0.17965 2.30386,1.08113 1.05981,0.95286 1.14827,0.99045 2.11305,0.89774 0.92641,-0.089 1.08958,-0.0314 2.04052,0.72024 1.01476,0.80213 1.03096,0.83273 0.88988,1.68061 -0.20973,1.26053 -0.89916,3.01836 -1.56859,3.99939 -0.73107,1.07137 -1.60733,1.81515 -2.92527,2.48301 -1.0862,0.55041 -1.05282,0.45091 -0.64547,1.9242 l 0.13785,0.49854 -1.53476,-0.13868 c -0.84412,-0.0763 -2.00093,-0.19149 -2.5707,-0.256 -0.75267,-0.0852 -1.14926,-0.0311 -1.45033,0.19797 -0.41411,0.31506 -0.4141,0.31554 0.006,0.74194 0.25366,0.25738 1.2401,0.64162 2.48628,0.96845 1.70655,0.44758 2.55222,0.54504 4.86286,0.56048 3.66714,0.0245 5.52852,-0.4849 8.3317,-2.27998 0.54425,-0.34853 0.57784,-0.34517 1.058,0.10593 0.27275,0.25623 0.76569,0.9983 1.09543,1.64904 0.76325,1.50632 0.85242,3.51369 0.18513,4.16763 -0.40652,0.39838 -1.08961,0.41024 -36.05098,0.62553 -19.60014,0.1207 -37.87426,0.25549 -40.60917,0.29953 -2.7349,0.044 -5.09842,0.034 -5.25227,-0.0224 z m 55.08136,-9.90275 c 0,-0.0609 -0.70966,-1.24965 -1.57703,-2.64167 l -1.57702,-2.53094 0.0749,-3.2071 c 0.0692,-2.96143 0.0462,-3.21274 -0.29952,-3.28071 -0.20847,-0.041 -0.59437,0.16372 -0.87067,0.46184 -1.33942,1.44526 -1.89848,-0.4577 -0.67141,-2.28538 0.68051,-1.01361 1.04831,-1.2853 6.07078,-4.48433 1.20912,-0.77013 2.16367,-1.50442 2.12123,-1.63175 -0.0424,-0.12733 -0.58606,-0.39078 -1.20804,-0.58546 -1.32982,-0.41622 -3.04785,-1.26617 -4.31395,-2.13421 -1.01509,-0.69594 -1.30261,-0.55639 -1.14184,0.55415 0.11367,0.78514 0.0579,0.85766 -1.42953,1.85933 -3.09801,2.08625 -5.24572,6.94645 -4.67575,10.58107 0.48616,3.10024 3.41582,6.47066 7.51756,8.64855 1.37101,0.72795 1.98029,0.93613 1.98029,0.67661 z m 7.9768,-22.83453 c 0.56978,-0.28829 1.64198,-0.83357 2.38268,-1.21173 0.7407,-0.37816 1.50439,-0.69166 1.69709,-0.69666 0.45775,-0.0119 0.70678,-0.4255 0.3784,-0.62846 -0.47441,-0.29319 -3.29723,-0.68121 -4.1367,-0.56862 -0.45725,0.0613 -1.30076,0.40034 -1.87446,0.75334 -1.3053,0.80316 -2.02823,0.80962 -3.67024,0.0328 -2.01119,-0.95145 -2.97244,-2.80156 -2.33149,-4.48739 0.26587,-0.69929 0.006,-1.01258 -0.69302,-0.83702 -1.03164,0.25892 -1.76325,3.15368 -1.11425,4.40871 1.01675,1.96618 5.30812,4.1848 7.49729,3.87606 0.45581,-0.0643 1.29493,-0.35275 1.8647,-0.64105 z m -11.38458,-5.69666 c -0.16474,-1.45612 -0.40071,-1.86288 -1.02866,-1.77316 -0.7181,0.10261 -0.67309,1.14277 0.0946,2.18549 0.90709,1.23209 1.10998,1.14252 0.93407,-0.41233 z m 10.57234,0.48786 c 0.89225,-0.5441 1.24918,-1.47912 0.94814,-2.48387 -0.49304,-1.64565 -2.17381,-3.13398 -3.53919,-3.13398 -0.7583,0 -2.01845,0.59406 -2.582,1.21721 -0.32806,0.36274 -0.34735,0.48535 -0.11953,0.75986 0.21833,0.26306 0.51985,0.30074 1.53592,0.19193 1.06511,-0.11407 1.34126,-0.073 1.75307,0.26041 0.52437,0.42461 0.58232,0.89125 0.32228,2.59494 -0.14975,0.98115 -0.14839,0.98415 0.44651,0.98337 0.32819,-3.2e-4 0.88385,-0.17586 1.2348,-0.38987 z m 8.59981,-0.45606 c 0.46986,-0.46987 0.42356,-1.1303 -0.14036,-2.00215 -0.26476,-0.40933 -0.476,-0.46617 -1.73238,-0.46617 l -1.43085,0 -0.3393,1.16716 c -0.18662,0.64194 -0.26316,1.24132 -0.17009,1.33196 0.18387,0.17908 1.11443,0.3162 2.50009,0.36837 0.64694,0.0244 0.99525,-0.0815 1.31289,-0.39917 z m 4.78507,-0.20566 c 1.18899,-0.44014 1.93837,-0.60382 2.4165,-0.5278 0.51303,0.0816 0.90322,-0.0225 1.50213,-0.40056 0.44499,-0.28091 0.80907,-0.60281 0.80907,-0.71533 0,-0.12405 -1.04779,-0.20459 -2.66136,-0.20459 -2.91446,0 -2.93368,0.007 -3.63294,1.38824 -0.32648,0.64471 -0.42816,1.09803 -0.24631,1.09803 0.0492,0 0.86501,-0.28709 1.81291,-0.63799 z m -23.76088,-4.3334 c 0.68373,-0.13987 1.38299,-0.32284 1.55393,-0.40659 0.69882,-0.34241 1.71486,-2.93552 1.36928,-3.49468 -0.0651,-0.10536 -0.58859,-0.0595 -1.20827,0.1058 -0.60135,0.16043 -2.30543,0.33962 -3.78683,0.39819 -4.02109,0.15897 -3.88402,0.0789 -2.56049,1.4965 0.61059,0.654 1.32743,1.45151 1.59299,1.77227 0.52541,0.63462 0.55855,0.63602 3.03939,0.12851 z m 26.28778,-0.31473 c 0.79416,-0.33181 0.95802,-0.65574 0.43352,-0.857 -1.01773,-0.39055 -2.7909,-4.07574 -2.7909,-5.80036 0,-1.49208 1.38642,-3.20753 3.30451,-4.08872 0.7041,-0.32347 1.36264,-0.43396 2.6004,-0.43627 2.82633,-0.005 4.4603,1.18174 4.45002,3.23279 -0.008,1.53463 -1.23272,3.70496 -2.09123,3.70496 -0.55823,0 -0.68945,-0.39053 -0.62898,-1.8718 0.0911,-2.23267 -0.9194,-3.05383 -2.4712,-2.00807 -1.278,0.86124 -2.22709,2.81396 -1.93443,3.98003 0.32676,1.30189 3.50651,2.79501 5.33107,2.50332 1.97933,-0.31645 3.56745,-1.90224 4.31705,-4.3107 0.54915,-1.76442 0.49434,-2.92642 -0.20774,-4.40487 -1.4043,-2.95719 -4.75019,-4.98345 -8.62927,-5.22588 -3.82798,-0.23924 -7.07995,1.12078 -8.49097,3.55103 -0.60268,1.03802 -0.96855,2.9094 -0.70456,3.60374 0.1742,0.45821 0.26721,0.48818 1.11875,0.36048 0.5108,-0.0766 0.92874,-0.0945 0.92874,-0.0397 0,0.0548 -0.14694,0.67309 -0.32652,1.37408 -0.49669,1.93878 -0.17262,3.27868 1.2221,5.05296 1.45014,1.8448 2.89973,2.37773 4.56964,1.68 z m 16.28969,-0.54617 c 4.07921,-3.07123 13.88635,-12.63283 15.4255,-15.03931 1.20502,-1.88404 1.97378,-3.52317 1.9764,-4.21402 0.003,-0.60243 -0.64541,-1.29909 -1.51359,-1.62803 -1.19801,-0.45392 -1.31916,-0.35478 -1.90216,1.5566 -0.76091,2.49462 -2.76251,6.32618 -4.32441,8.27799 -1.65332,2.06604 -6.09927,6.39079 -9.35684,9.10175 -2.63192,2.19028 -2.8225,2.37927 -2.66169,2.63948 0.25535,0.41315 1.29095,0.108 2.35679,-0.69446 z m -23.90459,-0.029 c 0.0898,-0.09 0.002,-0.4629 -0.19466,-0.82875 -0.19682,-0.36586 -0.43135,-0.9449 -0.52119,-1.28676 -0.11981,-0.45599 -0.43601,-0.77027 -1.18697,-1.17977 -0.56301,-0.30701 -1.23027,-0.79803 -1.4828,-1.09114 -0.67331,-0.7815 -1.09422,-2.44583 -1.09882,-4.34496 l -0.004,-1.67171 -0.76168,0.93235 c -0.41892,0.5128 -1.18629,1.34329 -1.70526,1.84553 -0.98445,0.95274 -4.48474,3.33421 -4.90062,3.33421 -0.13179,0 -0.36454,0.15053 -0.51723,0.33452 -0.44142,0.53188 0.49429,1.16374 2.38263,1.60892 1.66848,0.39334 1.75875,0.3763 2.06386,-0.38952 0.0454,-0.11395 0.67626,0.37056 1.4019,1.0767 1.87338,1.82303 2.19117,1.95725 4.46209,1.88467 1.04477,-0.0334 1.97304,-0.13432 2.06281,-0.22429 z m 19.87283,-1.36535 c 0.46045,-0.20916 1.67898,-1.0809 2.70782,-1.93721 1.69436,-1.41022 1.91476,-1.67795 2.33895,-2.84136 0.25758,-0.70643 0.42399,-1.39997 0.36979,-1.5412 -0.0542,-0.14122 -0.46776,-0.3674 -0.91903,-0.50261 -0.45128,-0.1352 -1.17304,-0.48505 -1.6039,-0.77745 -0.43087,-0.29239 -0.85841,-0.45583 -0.9501,-0.3632 -0.0917,0.0926 -0.26268,0.93705 -0.38,1.87648 -0.25658,2.05468 -0.44197,2.43799 -2.06967,4.27938 -0.69488,0.7861 -1.26341,1.53975 -1.26341,1.67478 0,0.62804 0.58245,0.67162 1.76955,0.13239 z m 8.19149,-9.53978 c 0.52544,-0.52544 0.60562,-0.75953 0.60562,-1.768 0,-2.92611 -2.11664,-4.76495 -5.98914,-5.20307 -2.33515,-0.26419 -3.39358,0.50382 -3.39358,2.46241 0,1.28189 0.42947,2.21632 1.21082,2.63449 0.63857,0.34174 0.49832,0.46874 1.56308,-1.41539 1.11553,-1.97397 1.6282,-1.68598 1.6331,0.91738 0.004,1.83537 0.033,1.89019 1.38024,2.56273 1.21594,0.607 2.25878,0.54053 2.98986,-0.19055 z m 5.10699,-4.34888 c 2.07953,-3.09318 1.9088,-10.2813 -0.3632,-15.2921 -2.34366,-5.16882 -6.8707,-7.89954 -12.73653,-7.6827 -1.8838,0.0696 -2.19063,0.14032 -3.3798,0.7786 -3.14023,1.68549 -5.61459,6.2032 -5.38205,9.82662 0.0779,1.2133 0.24192,1.76995 0.87888,2.98209 0.94777,1.80361 2.60318,3.49983 4.20995,4.31374 1.1065,0.56049 1.34784,0.60094 3.56942,0.59823 2.56985,-0.003 3.22004,-0.19595 4.40742,-1.30709 0.88634,-0.82942 1.67344,-3.45083 1.69072,-5.63085 0.0116,-1.46807 -0.0706,-1.9335 -0.49443,-2.79706 -0.63864,-1.30141 -2.13102,-2.9154 -3.19993,-3.46072 -2.55531,-1.30362 -5.88082,1.87614 -4.58429,4.38336 0.49087,0.94923 1.7627,1.58216 2.97993,1.48297 0.3676,-0.0299 0.13931,-1.00412 -0.36952,-1.57686 -0.57085,-0.64254 -0.6606,-1.11465 -0.3325,-1.74912 0.4467,-0.86383 0.88524,-0.93405 1.81393,-0.29046 1.72301,1.19404 1.85613,2.93827 0.33282,4.36058 -1.65052,1.54108 -4.46744,1.3857 -6.44559,-0.35554 -1.2604,-1.10945 -1.72296,-2.2858 -1.39206,-3.54021 0.34888,-1.3226 1.06248,-2.44752 2.26782,-3.57497 1.51719,-1.41916 2.65893,-1.88985 4.56882,-1.88353 1.36193,0.005 1.71419,0.091 2.85105,0.70037 1.7242,0.92414 3.92191,3.24428 4.84045,5.11011 0.66039,1.34143 0.69968,1.54367 0.69968,3.6011 0,1.94389 -0.0615,2.31122 -0.56856,3.39357 -0.3127,0.66755 -0.89542,1.65901 -1.29493,2.20325 -0.39951,0.54424 -0.72638,1.0422 -0.72638,1.10658 0,0.0644 0.59497,0.401 1.32215,0.74805 1.39061,0.66367 1.76681,1.06765 2.18646,2.34787 0.3568,1.08848 1.20743,2.05159 1.74332,1.97385 0.23735,-0.0344 0.64548,-0.38081 0.90695,-0.76973 z m -32.08063,-1.35316 c 1.18357,-0.59604 1.43761,-0.81694 1.54247,-1.34121 0.20039,-1.00195 0.89674,-1.03577 2.95151,-0.14334 1.25627,0.54562 1.90091,0.71953 2.31299,0.62401 0.89902,-0.20841 2.33242,-1.10427 2.33242,-1.45775 0,-0.1765 -0.32948,-0.70584 -0.73218,-1.17631 -2.18269,-2.54997 -2.67902,-5.90846 -1.42517,-9.64362 0.28325,-0.84378 0.47104,-1.57812 0.4173,-1.63186 -0.0537,-0.0537 -0.8171,0.26141 -1.69637,0.70032 l -1.59866,0.79802 -2.41333,5.38693 c -1.32733,2.96281 -2.7584,5.89847 -3.18017,6.5237 -0.74054,1.09779 -0.91871,1.64655 -0.62872,1.93654 0.25861,0.25861 0.69968,0.13878 2.11791,-0.57543 z"
         style="fill:#0a0a0a" />
      <path
         transform="matrix(0.38345215,0,0,0.38345215,45.932409,591.15143)"
         d="m 430.63477,150.91211 c -0.72917,0.41667 -1.51042,0.72917 -2.34375,0.9375 -0.83334,0.20833 -1.71875,0.3125 -2.65625,0.3125 l -1.71875,0 0,0.9375 3.4375,0 c 0.52083,0 0.88541,0.10417 1.09375,0.3125 0.20833,0.20833 0.3125,0.52083 0.3125,0.9375 l 0,22.34375 c 0,0.41667 -0.10417,0.72917 -0.3125,0.9375 -0.20834,0.20833 -0.57292,0.3125 -1.09375,0.3125 l -3.59375,0 0,0.9375 12.1875,0 0,-0.9375 -3.59375,0 c -0.41667,0 -0.78125,-0.10417 -1.09375,-0.3125 -0.20834,-0.20833 -0.3125,-0.52083 -0.3125,-0.9375 l 0,-25.78125 -0.3125,0 z m -100.625,0.9375 c -0.52084,0 -0.98959,0.20833 -1.40625,0.625 -0.41667,0.3125 -0.625,0.72917 -0.625,1.25 0,0.52083 0.20833,0.98958 0.625,1.40625 0.41666,0.41667 0.88541,0.625 1.40625,0.625 0.52083,0 0.98958,-0.20833 1.40625,-0.625 0.41666,-0.41667 0.625,-0.88542 0.625,-1.40625 0,-0.52083 -0.20834,-0.9375 -0.625,-1.25 -0.41667,-0.41667 -0.88542,-0.625 -1.40625,-0.625 z m 0.625,8.4375 c -0.72917,0.41667 -1.51042,0.72917 -2.34375,0.9375 -0.83334,0.10417 -1.71875,0.15625 -2.65625,0.15625 l -1.5625,0 0,0.9375 3.28125,0 c 0.52083,0 0.88541,0.15625 1.09375,0.46875 0.20833,0.20833 0.3125,0.52083 0.3125,0.9375 l 0,12.96875 c 0,0.41667 -0.10417,0.72917 -0.3125,0.9375 -0.20834,0.20833 -0.57292,0.3125 -1.09375,0.3125 l -3.28125,0 0,0.9375 11.5625,0 0,-0.9375 -3.28125,0 c -0.41667,0 -0.78125,-0.10417 -1.09375,-0.3125 -0.20834,-0.20833 -0.3125,-0.52083 -0.3125,-0.9375 l 0,-16.40625 -0.3125,0 z m -25.46875,0.3125 c -0.41667,0.3125 -0.88542,0.52083 -1.40625,0.625 -0.41667,0.10417 -0.88542,0.15625 -1.40625,0.15625 l -1.09375,0 0,0.9375 1.25,0 c 0.3125,0 0.52083,0.10417 0.625,0.3125 0.10416,0.10417 0.15625,0.3125 0.15625,0.625 l 0,13.4375 c 0,0.41667 -0.10417,0.72917 -0.3125,0.9375 -0.20834,0.20833 -0.57292,0.3125 -1.09375,0.3125 l -0.78125,0 0,0.9375 6.5625,0 0,-0.9375 -0.78125,0 c -0.41667,0 -0.78125,-0.10417 -1.09375,-0.3125 -0.20834,-0.20833 -0.3125,-0.52083 -0.3125,-0.9375 l 0,-10.78125 c 0.83333,-1.14583 1.71875,-2.03125 2.65625,-2.65625 1.04166,-0.625 2.03125,-0.9375 2.96875,-0.9375 1.04166,0 1.82291,0.36458 2.34375,1.09375 0.52083,0.625 0.78125,1.5625 0.78125,2.8125 l 0,10.46875 c 0,0.41667 -0.10417,0.72917 -0.3125,0.9375 -0.20834,0.20833 -0.57292,0.3125 -1.09375,0.3125 l -0.78125,0 0,0.9375 6.5625,0 0,-0.9375 -0.78125,0 c -0.41667,0 -0.78125,-0.10417 -1.09375,-0.3125 -0.20834,-0.20833 -0.3125,-0.52083 -0.3125,-0.9375 l 0,-10 c 0,-1.875 -0.41667,-3.28125 -1.25,-4.21875 -0.83334,-0.9375 -2.13542,-1.40625 -3.90625,-1.40625 -1.04167,0 -2.03125,0.26042 -2.96875,0.78125 -0.9375,0.52083 -1.875,1.30208 -2.8125,2.34375 l 0,-3.59375 -0.3125,0 z m 40,0 c -0.41667,0.3125 -0.88542,0.52083 -1.40625,0.625 -0.41667,0.10417 -0.88542,0.15625 -1.40625,0.15625 l -1.09375,0 0,0.9375 1.25,0 c 0.3125,0 0.52083,0.10417 0.625,0.3125 0.10416,0.10417 0.15625,0.3125 0.15625,0.625 l 0,13.4375 c 0,0.41667 -0.10417,0.72917 -0.3125,0.9375 -0.20834,0.20833 -0.57292,0.3125 -1.09375,0.3125 l -0.78125,0 0,0.9375 6.5625,0 0,-0.9375 -0.78125,0 c -0.41667,0 -0.78125,-0.10417 -1.09375,-0.3125 -0.20834,-0.20833 -0.3125,-0.52083 -0.3125,-0.9375 l 0,-10.78125 c 0.83333,-1.14583 1.71875,-2.03125 2.65625,-2.65625 1.04166,-0.625 2.03125,-0.9375 2.96875,-0.9375 1.04166,0 1.82291,0.36458 2.34375,1.09375 0.52083,0.625 0.78125,1.5625 0.78125,2.8125 l 0,10.46875 c 0,0.41667 -0.10417,0.72917 -0.3125,0.9375 -0.20834,0.20833 -0.57292,0.3125 -1.09375,0.3125 l -0.78125,0 0,0.9375 6.5625,0 0,-0.9375 -0.78125,0 c -0.41667,0 -0.78125,-0.10417 -1.09375,-0.3125 -0.20834,-0.20833 -0.3125,-0.52083 -0.3125,-0.9375 l 0,-10 c 0,-1.875 -0.41667,-3.28125 -1.25,-4.21875 -0.83334,-0.9375 -2.13542,-1.40625 -3.90625,-1.40625 -1.04167,0 -2.03125,0.26042 -2.96875,0.78125 -0.9375,0.52083 -1.875,1.30208 -2.8125,2.34375 l 0,-3.59375 -0.3125,0 z m 100,0 c -0.41667,0.3125 -0.88542,0.52083 -1.40625,0.625 -0.41667,0.10417 -0.88542,0.15625 -1.40625,0.15625 l -1.09375,0 0,0.9375 1.25,0 c 0.3125,0 0.52083,0.10417 0.625,0.3125 0.10416,0.10417 0.15625,0.3125 0.15625,0.625 l 0,13.4375 c 0,0.41667 -0.10417,0.72917 -0.3125,0.9375 -0.20834,0.20833 -0.57292,0.3125 -1.09375,0.3125 l -0.78125,0 0,0.9375 6.5625,0 0,-0.9375 -0.78125,0 c -0.41667,0 -0.78125,-0.10417 -1.09375,-0.3125 -0.20834,-0.20833 -0.3125,-0.52083 -0.3125,-0.9375 l 0,-10.78125 c 0.83333,-1.14583 1.71875,-2.03125 2.65625,-2.65625 1.04166,-0.625 2.03125,-0.9375 2.96875,-0.9375 1.04166,0 1.82291,0.36458 2.34375,1.09375 0.52083,0.625 0.78125,1.5625 0.78125,2.8125 l 0,10.46875 c 0,0.41667 -0.10417,0.72917 -0.3125,0.9375 -0.20834,0.20833 -0.57292,0.3125 -1.09375,0.3125 l -0.78125,0 0,0.9375 6.5625,0 0,-0.9375 -0.78125,0 c -0.41667,0 -0.78125,-0.10417 -1.09375,-0.3125 -0.20834,-0.20833 -0.3125,-0.52083 -0.3125,-0.9375 l 0,-10 c 0,-1.875 -0.41667,-3.28125 -1.25,-4.21875 -0.83334,-0.9375 -2.13542,-1.40625 -3.90625,-1.40625 -1.04167,0 -2.03125,0.26042 -2.96875,0.78125 -0.9375,0.52083 -1.875,1.30208 -2.8125,2.34375 l 0,-3.59375 -0.3125,0 z m -181.40625,0.15625 c -0.3125,0.20833 -0.72917,0.36458 -1.25,0.46875 -0.52084,0.10417 -1.04167,0.15625 -1.5625,0.15625 l -0.46875,0 0,0.9375 0.625,0 c 0.3125,0 0.52083,0.10417 0.625,0.3125 0.10416,0.10417 0.15625,0.3125 0.15625,0.625 l 0,13.59375 c 0,0.41667 -0.10417,0.72917 -0.3125,0.9375 -0.20834,0.10417 -0.52084,0.15625 -0.9375,0.15625 l -0.3125,0 0,0.9375 5.3125,0 0,-0.9375 -0.3125,0 c -0.41667,0 -0.72917,-0.0521 -0.9375,-0.15625 -0.20834,-0.20833 -0.3125,-0.52083 -0.3125,-0.9375 l 0,-11.40625 c 0.3125,-1.04167 0.72916,-1.82292 1.25,-2.34375 0.625,-0.52083 1.30208,-0.78125 2.03125,-0.78125 0.625,0 1.04166,0.26042 1.25,0.78125 0.20833,0.41667 0.3125,1.09375 0.3125,2.03125 l 0,11.71875 c 0,0.41667 -0.10417,0.72917 -0.3125,0.9375 -0.20834,0.10417 -0.52084,0.15625 -0.9375,0.15625 l -0.3125,0 0,0.9375 5.3125,0 0,-0.9375 -0.3125,0 c -0.41667,0 -0.72917,-0.0521 -0.9375,-0.15625 -0.20834,-0.20833 -0.3125,-0.52083 -0.3125,-0.9375 l 0,-11.5625 c 0.3125,-0.9375 0.72916,-1.66667 1.25,-2.1875 0.625,-0.52083 1.30208,-0.78125 2.03125,-0.78125 0.52083,0 0.88541,0.20833 1.09375,0.625 0.3125,0.3125 0.46875,1.04167 0.46875,2.1875 l 0,11.71875 c 0,0.41667 -0.10417,0.72917 -0.3125,0.9375 -0.20834,0.10417 -0.52084,0.15625 -0.9375,0.15625 l -0.3125,0 0,0.9375 5.3125,0 0,-0.9375 -0.3125,0 c -0.41667,0 -0.72917,-0.0521 -0.9375,-0.15625 -0.20834,-0.20833 -0.3125,-0.52083 -0.3125,-0.9375 l 0,-11.875 c 0,-1.14583 -0.26042,-2.08333 -0.78125,-2.8125 -0.41667,-0.72917 -1.25,-1.09375 -2.5,-1.09375 -0.72917,0 -1.45834,0.20833 -2.1875,0.625 -0.625,0.3125 -1.19792,0.88542 -1.71875,1.71875 -0.10417,-0.83333 -0.41667,-1.40625 -0.9375,-1.71875 -0.52084,-0.41667 -1.25,-0.625 -2.1875,-0.625 -0.72917,0 -1.40625,0.20833 -2.03125,0.625 -0.625,0.3125 -1.19792,0.88542 -1.71875,1.71875 l 0,-2.65625 -0.3125,0 z m 26.40625,0.3125 c -2.1875,0 -4.0625,0.88542 -5.625,2.65625 -1.45834,1.66667 -2.1875,3.80208 -2.1875,6.40625 0,2.91667 0.72916,5.15625 2.1875,6.71875 1.5625,1.5625 3.54166,2.34375 5.9375,2.34375 1.875,0 3.33333,-0.52083 4.375,-1.5625 1.14583,-1.14583 1.875,-2.29167 2.1875,-3.4375 l -0.78125,-0.3125 c -0.41667,1.14583 -1.09375,2.13542 -2.03125,2.96875 -0.9375,0.72917 -2.08334,1.09375 -3.4375,1.09375 -1.77084,0 -3.22917,-0.57292 -4.375,-1.71875 -1.04167,-1.25 -1.5625,-3.28125 -1.5625,-6.09375 l 12.65625,0 c 0,-3.33333 -0.72917,-5.67708 -2.1875,-7.03125 -1.45834,-1.35417 -3.17709,-2.03125 -5.15625,-2.03125 z m 87.03125,0 c -0.41667,0 -0.9375,0.15625 -1.5625,0.46875 -0.52084,0.20833 -1.14584,0.57292 -1.875,1.09375 -0.52084,-0.52083 -1.19792,-0.88542 -2.03125,-1.09375 -0.72917,-0.20833 -1.51042,-0.3125 -2.34375,-0.3125 -1.97917,0 -3.54167,0.625 -4.6875,1.875 -1.04167,1.14583 -1.5625,2.5 -1.5625,4.0625 0,0.83333 0.20833,1.61458 0.625,2.34375 0.52083,0.72917 1.09375,1.35417 1.71875,1.875 -0.625,0.3125 -1.14584,0.72917 -1.5625,1.25 -0.41667,0.41667 -0.625,0.9375 -0.625,1.5625 0,0.52083 0.15625,0.98958 0.46875,1.40625 0.41666,0.3125 0.9375,0.625 1.5625,0.9375 -1.14584,0.41667 -1.97917,0.98958 -2.5,1.71875 -0.52084,0.72917 -0.78125,1.45833 -0.78125,2.1875 0,1.14583 0.67708,2.13542 2.03125,2.96875 1.35416,0.9375 3.125,1.40625 5.3125,1.40625 2.8125,0 4.84375,-0.46875 6.09375,-1.40625 1.35416,-0.9375 2.03125,-2.1875 2.03125,-3.75 0,-1.14583 -0.36459,-2.03125 -1.09375,-2.65625 -0.72917,-0.72917 -1.875,-1.19792 -3.4375,-1.40625 -0.83334,-0.10417 -1.82292,-0.20833 -2.96875,-0.3125 -1.04167,-0.20833 -2.23959,-0.41667 -3.59375,-0.625 -0.41667,0 -0.72917,-0.10417 -0.9375,-0.3125 -0.20834,-0.20833 -0.3125,-0.52083 -0.3125,-0.9375 0,-0.20833 0.10416,-0.46875 0.3125,-0.78125 0.20833,-0.3125 0.52083,-0.57292 0.9375,-0.78125 0.3125,0.20833 0.72916,0.41667 1.25,0.625 0.52083,0.10417 1.09375,0.15625 1.71875,0.15625 2.1875,0 3.75,-0.57292 4.6875,-1.71875 1.04166,-1.25 1.5625,-2.5 1.5625,-3.75 0,-0.72917 -0.10417,-1.45833 -0.3125,-2.1875 -0.20834,-0.72917 -0.52084,-1.30208 -0.9375,-1.71875 0.41666,-0.3125 0.78125,-0.46875 1.09375,-0.46875 0.41666,-0.10417 0.67708,0 0.78125,0.3125 0.10416,0.3125 0.26041,0.57292 0.46875,0.78125 0.20833,0.10417 0.46875,0.15625 0.78125,0.15625 0.41666,0 0.67708,-0.10417 0.78125,-0.3125 0.20833,-0.3125 0.3125,-0.67708 0.3125,-1.09375 0,-0.3125 -0.10417,-0.625 -0.3125,-0.9375 -0.20834,-0.41667 -0.57292,-0.625 -1.09375,-0.625 z m 20,0 c -0.41667,0 -0.9375,0.15625 -1.5625,0.46875 -0.52084,0.20833 -1.14584,0.57292 -1.875,1.09375 -0.52084,-0.52083 -1.19792,-0.88542 -2.03125,-1.09375 -0.72917,-0.20833 -1.51042,-0.3125 -2.34375,-0.3125 -1.97917,0 -3.54167,0.625 -4.6875,1.875 -1.04167,1.14583 -1.5625,2.5 -1.5625,4.0625 0,0.83333 0.20833,1.61458 0.625,2.34375 0.52083,0.72917 1.09375,1.35417 1.71875,1.875 -0.625,0.3125 -1.14584,0.72917 -1.5625,1.25 -0.41667,0.41667 -0.625,0.9375 -0.625,1.5625 0,0.52083 0.15625,0.98958 0.46875,1.40625 0.41666,0.3125 0.9375,0.625 1.5625,0.9375 -1.14584,0.41667 -1.97917,0.98958 -2.5,1.71875 -0.52084,0.72917 -0.78125,1.45833 -0.78125,2.1875 0,1.14583 0.67708,2.13542 2.03125,2.96875 1.35416,0.9375 3.125,1.40625 5.3125,1.40625 2.8125,0 4.84375,-0.46875 6.09375,-1.40625 1.35416,-0.9375 2.03125,-2.1875 2.03125,-3.75 0,-1.14583 -0.36459,-2.03125 -1.09375,-2.65625 -0.72917,-0.72917 -1.875,-1.19792 -3.4375,-1.40625 -0.83334,-0.10417 -1.82292,-0.20833 -2.96875,-0.3125 -1.04167,-0.20833 -2.23959,-0.41667 -3.59375,-0.625 -0.41667,0 -0.72917,-0.10417 -0.9375,-0.3125 -0.20834,-0.20833 -0.3125,-0.52083 -0.3125,-0.9375 0,-0.20833 0.10416,-0.46875 0.3125,-0.78125 0.20833,-0.3125 0.52083,-0.57292 0.9375,-0.78125 0.3125,0.20833 0.72916,0.41667 1.25,0.625 0.52083,0.10417 1.09375,0.15625 1.71875,0.15625 2.1875,0 3.75,-0.57292 4.6875,-1.71875 1.04166,-1.25 1.5625,-2.5 1.5625,-3.75 0,-0.72917 -0.10417,-1.45833 -0.3125,-2.1875 -0.20834,-0.72917 -0.52084,-1.30208 -0.9375,-1.71875 0.41666,-0.3125 0.78125,-0.46875 1.09375,-0.46875 0.41666,-0.10417 0.67708,0 0.78125,0.3125 0.10416,0.3125 0.26041,0.57292 0.46875,0.78125 0.20833,0.10417 0.46875,0.15625 0.78125,0.15625 0.41666,0 0.67708,-0.10417 0.78125,-0.3125 0.20833,-0.3125 0.3125,-0.67708 0.3125,-1.09375 0,-0.3125 -0.10417,-0.625 -0.3125,-0.9375 -0.20834,-0.41667 -0.57292,-0.625 -1.09375,-0.625 z m 12.34375,0 c -1.97917,0 -3.64584,0.41667 -5,1.25 -1.35417,0.83333 -2.03125,1.71875 -2.03125,2.65625 0,0.52083 0.10416,0.9375 0.3125,1.25 0.3125,0.20833 0.67708,0.3125 1.09375,0.3125 0.625,0 0.98958,-0.15625 1.09375,-0.46875 0.20833,-0.3125 0.3125,-0.57292 0.3125,-0.78125 0,-0.20833 -0.0521,-0.41667 -0.15625,-0.625 -0.20834,-0.625 0.0521,-1.19792 0.78125,-1.71875 0.72916,-0.625 1.97916,-0.9375 3.75,-0.9375 1.66666,0 2.70833,0.36458 3.125,1.09375 0.52083,0.625 0.78125,1.45833 0.78125,2.5 l 0,1.875 c -4.79167,0.52083 -8.02084,1.40625 -9.6875,2.65625 -1.5625,1.14583 -2.34375,2.65625 -2.34375,4.53125 0,1.14583 0.52083,2.1875 1.5625,3.125 1.04166,0.83333 2.5,1.25 4.375,1.25 1.25,0 2.29166,-0.15625 3.125,-0.46875 0.9375,-0.41667 1.92708,-0.98958 2.96875,-1.71875 0.20833,0.72917 0.52083,1.25 0.9375,1.5625 0.41666,0.3125 0.98958,0.46875 1.71875,0.46875 0.83333,0 1.51041,-0.26042 2.03125,-0.78125 0.52083,-0.625 0.78125,-1.66667 0.78125,-3.125 l -0.78125,0 c 0,0.83333 -0.10417,1.51042 -0.3125,2.03125 -0.20834,0.41667 -0.57292,0.625 -1.09375,0.625 -0.41667,0 -0.72917,-0.0521 -0.9375,-0.15625 -0.10417,-0.20833 -0.15625,-0.72917 -0.15625,-1.5625 l 0,-10.3125 c 0,-1.45833 -0.52084,-2.55208 -1.5625,-3.28125 -1.04167,-0.83333 -2.60417,-1.25 -4.6875,-1.25 z m 80,0 c -1.97917,0 -3.64584,0.41667 -5,1.25 -1.35417,0.83333 -2.03125,1.71875 -2.03125,2.65625 0,0.52083 0.10416,0.9375 0.3125,1.25 0.3125,0.20833 0.67708,0.3125 1.09375,0.3125 0.625,0 0.98958,-0.15625 1.09375,-0.46875 0.20833,-0.3125 0.3125,-0.57292 0.3125,-0.78125 0,-0.20833 -0.0521,-0.41667 -0.15625,-0.625 -0.20834,-0.625 0.0521,-1.19792 0.78125,-1.71875 0.72916,-0.625 1.97916,-0.9375 3.75,-0.9375 1.66666,0 2.70833,0.36458 3.125,1.09375 0.52083,0.625 0.78125,1.45833 0.78125,2.5 l 0,1.875 c -4.79167,0.52083 -8.02084,1.40625 -9.6875,2.65625 -1.5625,1.14583 -2.34375,2.65625 -2.34375,4.53125 0,1.14583 0.52083,2.1875 1.5625,3.125 1.04166,0.83333 2.5,1.25 4.375,1.25 1.25,0 2.29166,-0.15625 3.125,-0.46875 0.9375,-0.41667 1.92708,-0.98958 2.96875,-1.71875 0.20833,0.72917 0.52083,1.25 0.9375,1.5625 0.41666,0.3125 0.98958,0.46875 1.71875,0.46875 0.83333,0 1.51041,-0.26042 2.03125,-0.78125 0.52083,-0.625 0.78125,-1.66667 0.78125,-3.125 l -0.78125,0 c 0,0.83333 -0.10417,1.51042 -0.3125,2.03125 -0.20834,0.41667 -0.57292,0.625 -1.09375,0.625 -0.41667,0 -0.72917,-0.0521 -0.9375,-0.15625 -0.10417,-0.20833 -0.15625,-0.72917 -0.15625,-1.5625 l 0,-10.3125 c 0,-1.45833 -0.52084,-2.55208 -1.5625,-3.28125 -1.04167,-0.83333 -2.60417,-1.25 -4.6875,-1.25 z m -27.96875,0.3125 0,0.9375 0.625,0 c 0.41666,0 0.78125,0.15625 1.09375,0.46875 0.41666,0.20833 0.67708,0.52083 0.78125,0.9375 l 5.3125,13.75 c -0.20834,0.83333 -0.46875,1.61458 -0.78125,2.34375 -0.3125,0.83333 -0.625,1.51042 -0.9375,2.03125 -0.10417,0.3125 -0.26042,0.52083 -0.46875,0.625 -0.20834,0.10417 -0.46875,0.15625 -0.78125,0.15625 -0.20834,0 -0.52084,-0.15625 -0.9375,-0.46875 -0.41667,-0.41667 -0.83334,-0.625 -1.25,-0.625 -0.52084,0 -0.9375,0.15625 -1.25,0.46875 -0.20834,0.3125 -0.3125,0.625 -0.3125,0.9375 0,0.52083 0.20833,0.88542 0.625,1.09375 0.41666,0.3125 0.98958,0.46875 1.71875,0.46875 1.25,0 2.23958,-0.46875 2.96875,-1.40625 0.83333,-0.83333 1.51041,-2.03125 2.03125,-3.59375 l 5.3125,-15.46875 c 0.20833,-0.52083 0.52083,-0.9375 0.9375,-1.25 0.41666,-0.3125 0.83333,-0.46875 1.25,-0.46875 l 0.9375,0 0,-0.9375 -6.5625,0 0,0.9375 0.9375,0 c 0.41666,0 0.72916,0.15625 0.9375,0.46875 0.3125,0.3125 0.36458,0.72917 0.15625,1.25 l -3.4375,10.46875 -0.3125,0 -3.75,-10.625 c -0.10417,-0.52083 -0.0521,-0.88542 0.15625,-1.09375 0.20833,-0.3125 0.52083,-0.46875 0.9375,-0.46875 l 0.625,0 0,-0.9375 -6.5625,0 z m -171.40625,0.78125 c 1.45833,0 2.60416,0.625 3.4375,1.875 0.9375,1.14583 1.35416,2.86458 1.25,5.15625 l -10,0 c 0,-2.1875 0.46875,-3.90625 1.40625,-5.15625 1.04166,-1.25 2.34375,-1.875 3.90625,-1.875 z m 79.21875,0 c 1.14583,0 2.08333,0.41667 2.8125,1.25 0.83333,0.72917 1.25,1.97917 1.25,3.75 0,1.45833 -0.36459,2.60417 -1.09375,3.4375 -0.625,0.72917 -1.61459,1.09375 -2.96875,1.09375 -1.25,0 -2.23959,-0.41667 -2.96875,-1.25 -0.72917,-0.9375 -1.09375,-2.03125 -1.09375,-3.28125 0,-1.77083 0.36458,-3.02083 1.09375,-3.75 0.83333,-0.83333 1.82291,-1.25 2.96875,-1.25 z m 20,0 c 1.14583,0 2.08333,0.41667 2.8125,1.25 0.83333,0.72917 1.25,1.97917 1.25,3.75 0,1.45833 -0.36459,2.60417 -1.09375,3.4375 -0.625,0.72917 -1.61459,1.09375 -2.96875,1.09375 -1.25,0 -2.23959,-0.41667 -2.96875,-1.25 -0.72917,-0.9375 -1.09375,-2.03125 -1.09375,-3.28125 0,-1.77083 0.36458,-3.02083 1.09375,-3.75 0.83333,-0.83333 1.82291,-1.25 2.96875,-1.25 z m 24.21875,6.25 0,7.34375 c -1.04167,0.72917 -2.03125,1.30208 -2.96875,1.71875 -0.9375,0.3125 -1.875,0.46875 -2.8125,0.46875 -1.25,0 -2.1875,-0.36458 -2.8125,-1.09375 -0.52084,-0.83333 -0.78125,-1.71875 -0.78125,-2.65625 0,-1.45833 0.67708,-2.65625 2.03125,-3.59375 1.35416,-1.04167 3.80208,-1.77083 7.34375,-2.1875 z m 80,0 0,7.34375 c -1.04167,0.72917 -2.03125,1.30208 -2.96875,1.71875 -0.9375,0.3125 -1.875,0.46875 -2.8125,0.46875 -1.25,0 -2.1875,-0.36458 -2.8125,-1.09375 -0.52084,-0.83333 -0.78125,-1.71875 -0.78125,-2.65625 0,-1.45833 0.67708,-2.65625 2.03125,-3.59375 1.35416,-1.04167 3.80208,-1.77083 7.34375,-2.1875 z m -127.03125,8.4375 c 1.35416,0.20833 2.65625,0.36458 3.90625,0.46875 1.25,0.20833 2.39583,0.41667 3.4375,0.625 0.52083,0.10417 0.88541,0.36458 1.09375,0.78125 0.3125,0.41667 0.46875,0.98958 0.46875,1.71875 0,1.14583 -0.52084,1.97917 -1.5625,2.5 -1.04167,0.625 -2.44792,0.9375 -4.21875,0.9375 -1.875,0 -3.28125,-0.36458 -4.21875,-1.09375 -0.9375,-0.72917 -1.40625,-1.51042 -1.40625,-2.34375 0,-0.83333 0.15625,-1.51042 0.46875,-2.03125 0.41666,-0.625 1.09375,-1.14583 2.03125,-1.5625 z m 20,0 c 1.35416,0.20833 2.65625,0.36458 3.90625,0.46875 1.25,0.20833 2.39583,0.41667 3.4375,0.625 0.52083,0.10417 0.88541,0.36458 1.09375,0.78125 0.3125,0.41667 0.46875,0.98958 0.46875,1.71875 0,1.14583 -0.52084,1.97917 -1.5625,2.5 -1.04167,0.625 -2.44792,0.9375 -4.21875,0.9375 -1.875,0 -3.28125,-0.36458 -4.21875,-1.09375 -0.9375,-0.72917 -1.40625,-1.51042 -1.40625,-2.34375 0,-0.83333 0.15625,-1.51042 0.46875,-2.03125 0.41666,-0.625 1.09375,-1.14583 2.03125,-1.5625 z"
         id="path3382"
         style="font-style:normal;font-variant:normal;font-weight:normal;font-stretch:normal;font-size:40px;line-height:125%;font-family:SimSun;-inkscape-font-specification:SimSun;text-align:center;letter-spacing:0px;word-spacing:0px;text-anchor:middle;fill:#000000;fill-opacity:1;stroke:none;stroke-width:1px;stroke-linecap:butt;stroke-linejoin:miter;stroke-opacity:1"
         inkscape:original="M 430.63477 150.91211 C 429.9056 151.32878 429.12435 151.64128 428.29102 151.84961 C 427.45768 152.05794 426.57227 152.16211 425.63477 152.16211 L 423.91602 152.16211 L 423.91602 153.09961 L 427.35352 153.09961 C 427.87435 153.09961 428.23893 153.20378 428.44727 153.41211 C 428.6556 153.62044 428.75977 153.93294 428.75977 154.34961 L 428.75977 176.69336 C 428.75977 177.11003 428.6556 177.42253 428.44727 177.63086 C 428.23893 177.83919 427.87435 177.94336 427.35352 177.94336 L 423.75977 177.94336 L 423.75977 178.88086 L 435.94727 178.88086 L 435.94727 177.94336 L 432.35352 177.94336 C 431.93685 177.94336 431.57227 177.83919 431.25977 177.63086 C 431.05143 177.42253 430.94727 177.11003 430.94727 176.69336 L 430.94727 150.91211 L 430.63477 150.91211 z M 330.00977 151.84961 C 329.48893 151.84961 329.02018 152.05794 328.60352 152.47461 C 328.18685 152.78711 327.97852 153.20378 327.97852 153.72461 C 327.97852 154.24544 328.18685 154.71419 328.60352 155.13086 C 329.02018 155.54753 329.48893 155.75586 330.00977 155.75586 C 330.5306 155.75586 330.99935 155.54753 331.41602 155.13086 C 331.83268 154.71419 332.04102 154.24544 332.04102 153.72461 C 332.04102 153.20378 331.83268 152.78711 331.41602 152.47461 C 330.99935 152.05794 330.5306 151.84961 330.00977 151.84961 z M 330.63477 160.28711 C 329.9056 160.70378 329.12435 161.01628 328.29102 161.22461 C 327.45768 161.32878 326.57227 161.38086 325.63477 161.38086 L 324.07227 161.38086 L 324.07227 162.31836 L 327.35352 162.31836 C 327.87435 162.31836 328.23893 162.47461 328.44727 162.78711 C 328.6556 162.99544 328.75977 163.30794 328.75977 163.72461 L 328.75977 176.69336 C 328.75977 177.11003 328.6556 177.42253 328.44727 177.63086 C 328.23893 177.83919 327.87435 177.94336 327.35352 177.94336 L 324.07227 177.94336 L 324.07227 178.88086 L 335.63477 178.88086 L 335.63477 177.94336 L 332.35352 177.94336 C 331.93685 177.94336 331.57227 177.83919 331.25977 177.63086 C 331.05143 177.42253 330.94727 177.11003 330.94727 176.69336 L 330.94727 160.28711 L 330.63477 160.28711 z M 305.16602 160.59961 C 304.74935 160.91211 304.2806 161.12044 303.75977 161.22461 C 303.3431 161.32878 302.87435 161.38086 302.35352 161.38086 L 301.25977 161.38086 L 301.25977 162.31836 L 302.50977 162.31836 C 302.82227 162.31836 303.0306 162.42253 303.13477 162.63086 C 303.23893 162.73503 303.29102 162.94336 303.29102 163.25586 L 303.29102 176.69336 C 303.29102 177.11003 303.18685 177.42253 302.97852 177.63086 C 302.77018 177.83919 302.4056 177.94336 301.88477 177.94336 L 301.10352 177.94336 L 301.10352 178.88086 L 307.66602 178.88086 L 307.66602 177.94336 L 306.88477 177.94336 C 306.4681 177.94336 306.10352 177.83919 305.79102 177.63086 C 305.58268 177.42253 305.47852 177.11003 305.47852 176.69336 L 305.47852 165.91211 C 306.31185 164.76628 307.19727 163.88086 308.13477 163.25586 C 309.17643 162.63086 310.16602 162.31836 311.10352 162.31836 C 312.14518 162.31836 312.92643 162.68294 313.44727 163.41211 C 313.9681 164.03711 314.22852 164.97461 314.22852 166.22461 L 314.22852 176.69336 C 314.22852 177.11003 314.12435 177.42253 313.91602 177.63086 C 313.70768 177.83919 313.3431 177.94336 312.82227 177.94336 L 312.04102 177.94336 L 312.04102 178.88086 L 318.60352 178.88086 L 318.60352 177.94336 L 317.82227 177.94336 C 317.4056 177.94336 317.04102 177.83919 316.72852 177.63086 C 316.52018 177.42253 316.41602 177.11003 316.41602 176.69336 L 316.41602 166.69336 C 316.41602 164.81836 315.99935 163.41211 315.16602 162.47461 C 314.33268 161.53711 313.0306 161.06836 311.25977 161.06836 C 310.2181 161.06836 309.22852 161.32878 308.29102 161.84961 C 307.35352 162.37044 306.41602 163.15169 305.47852 164.19336 L 305.47852 160.59961 L 305.16602 160.59961 z M 345.16602 160.59961 C 344.74935 160.91211 344.2806 161.12044 343.75977 161.22461 C 343.3431 161.32878 342.87435 161.38086 342.35352 161.38086 L 341.25977 161.38086 L 341.25977 162.31836 L 342.50977 162.31836 C 342.82227 162.31836 343.0306 162.42253 343.13477 162.63086 C 343.23893 162.73503 343.29102 162.94336 343.29102 163.25586 L 343.29102 176.69336 C 343.29102 177.11003 343.18685 177.42253 342.97852 177.63086 C 342.77018 177.83919 342.4056 177.94336 341.88477 177.94336 L 341.10352 177.94336 L 341.10352 178.88086 L 347.66602 178.88086 L 347.66602 177.94336 L 346.88477 177.94336 C 346.4681 177.94336 346.10352 177.83919 345.79102 177.63086 C 345.58268 177.42253 345.47852 177.11003 345.47852 176.69336 L 345.47852 165.91211 C 346.31185 164.76628 347.19727 163.88086 348.13477 163.25586 C 349.17643 162.63086 350.16602 162.31836 351.10352 162.31836 C 352.14518 162.31836 352.92643 162.68294 353.44727 163.41211 C 353.9681 164.03711 354.22852 164.97461 354.22852 166.22461 L 354.22852 176.69336 C 354.22852 177.11003 354.12435 177.42253 353.91602 177.63086 C 353.70768 177.83919 353.3431 177.94336 352.82227 177.94336 L 352.04102 177.94336 L 352.04102 178.88086 L 358.60352 178.88086 L 358.60352 177.94336 L 357.82227 177.94336 C 357.4056 177.94336 357.04102 177.83919 356.72852 177.63086 C 356.52018 177.42253 356.41602 177.11003 356.41602 176.69336 L 356.41602 166.69336 C 356.41602 164.81836 355.99935 163.41211 355.16602 162.47461 C 354.33268 161.53711 353.0306 161.06836 351.25977 161.06836 C 350.2181 161.06836 349.22852 161.32878 348.29102 161.84961 C 347.35352 162.37044 346.41602 163.15169 345.47852 164.19336 L 345.47852 160.59961 L 345.16602 160.59961 z M 445.16602 160.59961 C 444.74935 160.91211 444.2806 161.12044 443.75977 161.22461 C 443.3431 161.32878 442.87435 161.38086 442.35352 161.38086 L 441.25977 161.38086 L 441.25977 162.31836 L 442.50977 162.31836 C 442.82227 162.31836 443.0306 162.42253 443.13477 162.63086 C 443.23893 162.73503 443.29102 162.94336 443.29102 163.25586 L 443.29102 176.69336 C 443.29102 177.11003 443.18685 177.42253 442.97852 177.63086 C 442.77018 177.83919 442.4056 177.94336 441.88477 177.94336 L 441.10352 177.94336 L 441.10352 178.88086 L 447.66602 178.88086 L 447.66602 177.94336 L 446.88477 177.94336 C 446.4681 177.94336 446.10352 177.83919 445.79102 177.63086 C 445.58268 177.42253 445.47852 177.11003 445.47852 176.69336 L 445.47852 165.91211 C 446.31185 164.76628 447.19727 163.88086 448.13477 163.25586 C 449.17643 162.63086 450.16602 162.31836 451.10352 162.31836 C 452.14518 162.31836 452.92643 162.68294 453.44727 163.41211 C 453.9681 164.03711 454.22852 164.97461 454.22852 166.22461 L 454.22852 176.69336 C 454.22852 177.11003 454.12435 177.42253 453.91602 177.63086 C 453.70768 177.83919 453.3431 177.94336 452.82227 177.94336 L 452.04102 177.94336 L 452.04102 178.88086 L 458.60352 178.88086 L 458.60352 177.94336 L 457.82227 177.94336 C 457.4056 177.94336 457.04102 177.83919 456.72852 177.63086 C 456.52018 177.42253 456.41602 177.11003 456.41602 176.69336 L 456.41602 166.69336 C 456.41602 164.81836 455.99935 163.41211 455.16602 162.47461 C 454.33268 161.53711 453.0306 161.06836 451.25977 161.06836 C 450.2181 161.06836 449.22852 161.32878 448.29102 161.84961 C 447.35352 162.37044 446.41602 163.15169 445.47852 164.19336 L 445.47852 160.59961 L 445.16602 160.59961 z M 263.75977 160.75586 C 263.44727 160.96419 263.0306 161.12044 262.50977 161.22461 C 261.98893 161.32878 261.4681 161.38086 260.94727 161.38086 L 260.47852 161.38086 L 260.47852 162.31836 L 261.10352 162.31836 C 261.41602 162.31836 261.62435 162.42253 261.72852 162.63086 C 261.83268 162.73503 261.88477 162.94336 261.88477 163.25586 L 261.88477 176.84961 C 261.88477 177.26628 261.7806 177.57878 261.57227 177.78711 C 261.36393 177.89128 261.05143 177.94336 260.63477 177.94336 L 260.32227 177.94336 L 260.32227 178.88086 L 265.63477 178.88086 L 265.63477 177.94336 L 265.32227 177.94336 C 264.9056 177.94336 264.5931 177.89128 264.38477 177.78711 C 264.17643 177.57878 264.07227 177.26628 264.07227 176.84961 L 264.07227 165.44336 C 264.38477 164.40169 264.80143 163.62044 265.32227 163.09961 C 265.94727 162.57878 266.62435 162.31836 267.35352 162.31836 C 267.97852 162.31836 268.39518 162.57878 268.60352 163.09961 C 268.81185 163.51628 268.91602 164.19336 268.91602 165.13086 L 268.91602 176.84961 C 268.91602 177.26628 268.81185 177.57878 268.60352 177.78711 C 268.39518 177.89128 268.08268 177.94336 267.66602 177.94336 L 267.35352 177.94336 L 267.35352 178.88086 L 272.66602 178.88086 L 272.66602 177.94336 L 272.35352 177.94336 C 271.93685 177.94336 271.62435 177.89128 271.41602 177.78711 C 271.20768 177.57878 271.10352 177.26628 271.10352 176.84961 L 271.10352 165.28711 C 271.41602 164.34961 271.83268 163.62044 272.35352 163.09961 C 272.97852 162.57878 273.6556 162.31836 274.38477 162.31836 C 274.9056 162.31836 275.27018 162.52669 275.47852 162.94336 C 275.79102 163.25586 275.94727 163.98503 275.94727 165.13086 L 275.94727 176.84961 C 275.94727 177.26628 275.8431 177.57878 275.63477 177.78711 C 275.42643 177.89128 275.11393 177.94336 274.69727 177.94336 L 274.38477 177.94336 L 274.38477 178.88086 L 279.69727 178.88086 L 279.69727 177.94336 L 279.38477 177.94336 C 278.9681 177.94336 278.6556 177.89128 278.44727 177.78711 C 278.23893 177.57878 278.13477 177.26628 278.13477 176.84961 L 278.13477 164.97461 C 278.13477 163.82878 277.87435 162.89128 277.35352 162.16211 C 276.93685 161.43294 276.10352 161.06836 274.85352 161.06836 C 274.12435 161.06836 273.39518 161.27669 272.66602 161.69336 C 272.04102 162.00586 271.4681 162.57878 270.94727 163.41211 C 270.8431 162.57878 270.5306 162.00586 270.00977 161.69336 C 269.48893 161.27669 268.75977 161.06836 267.82227 161.06836 C 267.0931 161.06836 266.41602 161.27669 265.79102 161.69336 C 265.16602 162.00586 264.5931 162.57878 264.07227 163.41211 L 264.07227 160.75586 L 263.75977 160.75586 z M 290.16602 161.06836 C 287.97852 161.06836 286.10352 161.95378 284.54102 163.72461 C 283.08268 165.39128 282.35352 167.52669 282.35352 170.13086 C 282.35352 173.04753 283.08268 175.28711 284.54102 176.84961 C 286.10352 178.41211 288.08268 179.19336 290.47852 179.19336 C 292.35352 179.19336 293.81185 178.67253 294.85352 177.63086 C 295.99935 176.48503 296.72852 175.33919 297.04102 174.19336 L 296.25977 173.88086 C 295.8431 175.02669 295.16602 176.01628 294.22852 176.84961 C 293.29102 177.57878 292.14518 177.94336 290.79102 177.94336 C 289.02018 177.94336 287.56185 177.37044 286.41602 176.22461 C 285.37435 174.97461 284.85352 172.94336 284.85352 170.13086 L 297.50977 170.13086 C 297.50977 166.79753 296.7806 164.45378 295.32227 163.09961 C 293.86393 161.74544 292.14518 161.06836 290.16602 161.06836 z M 377.19727 161.06836 C 376.7806 161.06836 376.25977 161.22461 375.63477 161.53711 C 375.11393 161.74544 374.48893 162.11003 373.75977 162.63086 C 373.23893 162.11003 372.56185 161.74544 371.72852 161.53711 C 370.99935 161.32878 370.2181 161.22461 369.38477 161.22461 C 367.4056 161.22461 365.8431 161.84961 364.69727 163.09961 C 363.6556 164.24544 363.13477 165.59961 363.13477 167.16211 C 363.13477 167.99544 363.3431 168.77669 363.75977 169.50586 C 364.2806 170.23503 364.85352 170.86003 365.47852 171.38086 C 364.85352 171.69336 364.33268 172.11003 363.91602 172.63086 C 363.49935 173.04753 363.29102 173.56836 363.29102 174.19336 C 363.29102 174.71419 363.44727 175.18294 363.75977 175.59961 C 364.17643 175.91211 364.69727 176.22461 365.32227 176.53711 C 364.17643 176.95378 363.3431 177.52669 362.82227 178.25586 C 362.30143 178.98503 362.04102 179.71419 362.04102 180.44336 C 362.04102 181.58919 362.7181 182.57878 364.07227 183.41211 C 365.42643 184.34961 367.19727 184.81836 369.38477 184.81836 C 372.19727 184.81836 374.22852 184.34961 375.47852 183.41211 C 376.83268 182.47461 377.50977 181.22461 377.50977 179.66211 C 377.50977 178.51628 377.14518 177.63086 376.41602 177.00586 C 375.68685 176.27669 374.54102 175.80794 372.97852 175.59961 C 372.14518 175.49544 371.1556 175.39128 370.00977 175.28711 C 368.9681 175.07878 367.77018 174.87044 366.41602 174.66211 C 365.99935 174.66211 365.68685 174.55794 365.47852 174.34961 C 365.27018 174.14128 365.16602 173.82878 365.16602 173.41211 C 365.16602 173.20378 365.27018 172.94336 365.47852 172.63086 C 365.68685 172.31836 365.99935 172.05794 366.41602 171.84961 C 366.72852 172.05794 367.14518 172.26628 367.66602 172.47461 C 368.18685 172.57878 368.75977 172.63086 369.38477 172.63086 C 371.57227 172.63086 373.13477 172.05794 374.07227 170.91211 C 375.11393 169.66211 375.63477 168.41211 375.63477 167.16211 C 375.63477 166.43294 375.5306 165.70378 375.32227 164.97461 C 375.11393 164.24544 374.80143 163.67253 374.38477 163.25586 C 374.80143 162.94336 375.16602 162.78711 375.47852 162.78711 C 375.89518 162.68294 376.1556 162.78711 376.25977 163.09961 C 376.36393 163.41211 376.52018 163.67253 376.72852 163.88086 C 376.93685 163.98503 377.19727 164.03711 377.50977 164.03711 C 377.92643 164.03711 378.18685 163.93294 378.29102 163.72461 C 378.49935 163.41211 378.60352 163.04753 378.60352 162.63086 C 378.60352 162.31836 378.49935 162.00586 378.29102 161.69336 C 378.08268 161.27669 377.7181 161.06836 377.19727 161.06836 z M 397.19727 161.06836 C 396.7806 161.06836 396.25977 161.22461 395.63477 161.53711 C 395.11393 161.74544 394.48893 162.11003 393.75977 162.63086 C 393.23893 162.11003 392.56185 161.74544 391.72852 161.53711 C 390.99935 161.32878 390.2181 161.22461 389.38477 161.22461 C 387.4056 161.22461 385.8431 161.84961 384.69727 163.09961 C 383.6556 164.24544 383.13477 165.59961 383.13477 167.16211 C 383.13477 167.99544 383.3431 168.77669 383.75977 169.50586 C 384.2806 170.23503 384.85352 170.86003 385.47852 171.38086 C 384.85352 171.69336 384.33268 172.11003 383.91602 172.63086 C 383.49935 173.04753 383.29102 173.56836 383.29102 174.19336 C 383.29102 174.71419 383.44727 175.18294 383.75977 175.59961 C 384.17643 175.91211 384.69727 176.22461 385.32227 176.53711 C 384.17643 176.95378 383.3431 177.52669 382.82227 178.25586 C 382.30143 178.98503 382.04102 179.71419 382.04102 180.44336 C 382.04102 181.58919 382.7181 182.57878 384.07227 183.41211 C 385.42643 184.34961 387.19727 184.81836 389.38477 184.81836 C 392.19727 184.81836 394.22852 184.34961 395.47852 183.41211 C 396.83268 182.47461 397.50977 181.22461 397.50977 179.66211 C 397.50977 178.51628 397.14518 177.63086 396.41602 177.00586 C 395.68685 176.27669 394.54102 175.80794 392.97852 175.59961 C 392.14518 175.49544 391.1556 175.39128 390.00977 175.28711 C 388.9681 175.07878 387.77018 174.87044 386.41602 174.66211 C 385.99935 174.66211 385.68685 174.55794 385.47852 174.34961 C 385.27018 174.14128 385.16602 173.82878 385.16602 173.41211 C 385.16602 173.20378 385.27018 172.94336 385.47852 172.63086 C 385.68685 172.31836 385.99935 172.05794 386.41602 171.84961 C 386.72852 172.05794 387.14518 172.26628 387.66602 172.47461 C 388.18685 172.57878 388.75977 172.63086 389.38477 172.63086 C 391.57227 172.63086 393.13477 172.05794 394.07227 170.91211 C 395.11393 169.66211 395.63477 168.41211 395.63477 167.16211 C 395.63477 166.43294 395.5306 165.70378 395.32227 164.97461 C 395.11393 164.24544 394.80143 163.67253 394.38477 163.25586 C 394.80143 162.94336 395.16602 162.78711 395.47852 162.78711 C 395.89518 162.68294 396.1556 162.78711 396.25977 163.09961 C 396.36393 163.41211 396.52018 163.67253 396.72852 163.88086 C 396.93685 163.98503 397.19727 164.03711 397.50977 164.03711 C 397.92643 164.03711 398.18685 163.93294 398.29102 163.72461 C 398.49935 163.41211 398.60352 163.04753 398.60352 162.63086 C 398.60352 162.31836 398.49935 162.00586 398.29102 161.69336 C 398.08268 161.27669 397.7181 161.06836 397.19727 161.06836 z M 409.54102 161.06836 C 407.56185 161.06836 405.89518 161.48503 404.54102 162.31836 C 403.18685 163.15169 402.50977 164.03711 402.50977 164.97461 C 402.50977 165.49544 402.61393 165.91211 402.82227 166.22461 C 403.13477 166.43294 403.49935 166.53711 403.91602 166.53711 C 404.54102 166.53711 404.9056 166.38086 405.00977 166.06836 C 405.2181 165.75586 405.32227 165.49544 405.32227 165.28711 C 405.32227 165.07878 405.27018 164.87044 405.16602 164.66211 C 404.95768 164.03711 405.2181 163.46419 405.94727 162.94336 C 406.67643 162.31836 407.92643 162.00586 409.69727 162.00586 C 411.36393 162.00586 412.4056 162.37044 412.82227 163.09961 C 413.3431 163.72461 413.60352 164.55794 413.60352 165.59961 L 413.60352 167.47461 C 408.81185 167.99544 405.58268 168.88086 403.91602 170.13086 C 402.35352 171.27669 401.57227 172.78711 401.57227 174.66211 C 401.57227 175.80794 402.0931 176.84961 403.13477 177.78711 C 404.17643 178.62044 405.63477 179.03711 407.50977 179.03711 C 408.75977 179.03711 409.80143 178.88086 410.63477 178.56836 C 411.57227 178.15169 412.56185 177.57878 413.60352 176.84961 C 413.81185 177.57878 414.12435 178.09961 414.54102 178.41211 C 414.95768 178.72461 415.5306 178.88086 416.25977 178.88086 C 417.0931 178.88086 417.77018 178.62044 418.29102 178.09961 C 418.81185 177.47461 419.07227 176.43294 419.07227 174.97461 L 418.29102 174.97461 C 418.29102 175.80794 418.18685 176.48503 417.97852 177.00586 C 417.77018 177.42253 417.4056 177.63086 416.88477 177.63086 C 416.4681 177.63086 416.1556 177.57878 415.94727 177.47461 C 415.8431 177.26628 415.79102 176.74544 415.79102 175.91211 L 415.79102 165.59961 C 415.79102 164.14128 415.27018 163.04753 414.22852 162.31836 C 413.18685 161.48503 411.62435 161.06836 409.54102 161.06836 z M 489.54102 161.06836 C 487.56185 161.06836 485.89518 161.48503 484.54102 162.31836 C 483.18685 163.15169 482.50977 164.03711 482.50977 164.97461 C 482.50977 165.49544 482.61393 165.91211 482.82227 166.22461 C 483.13477 166.43294 483.49935 166.53711 483.91602 166.53711 C 484.54102 166.53711 484.9056 166.38086 485.00977 166.06836 C 485.2181 165.75586 485.32227 165.49544 485.32227 165.28711 C 485.32227 165.07878 485.27018 164.87044 485.16602 164.66211 C 484.95768 164.03711 485.2181 163.46419 485.94727 162.94336 C 486.67643 162.31836 487.92643 162.00586 489.69727 162.00586 C 491.36393 162.00586 492.4056 162.37044 492.82227 163.09961 C 493.3431 163.72461 493.60352 164.55794 493.60352 165.59961 L 493.60352 167.47461 C 488.81185 167.99544 485.58268 168.88086 483.91602 170.13086 C 482.35352 171.27669 481.57227 172.78711 481.57227 174.66211 C 481.57227 175.80794 482.0931 176.84961 483.13477 177.78711 C 484.17643 178.62044 485.63477 179.03711 487.50977 179.03711 C 488.75977 179.03711 489.80143 178.88086 490.63477 178.56836 C 491.57227 178.15169 492.56185 177.57878 493.60352 176.84961 C 493.81185 177.57878 494.12435 178.09961 494.54102 178.41211 C 494.95768 178.72461 495.5306 178.88086 496.25977 178.88086 C 497.0931 178.88086 497.77018 178.62044 498.29102 178.09961 C 498.81185 177.47461 499.07227 176.43294 499.07227 174.97461 L 498.29102 174.97461 C 498.29102 175.80794 498.18685 176.48503 497.97852 177.00586 C 497.77018 177.42253 497.4056 177.63086 496.88477 177.63086 C 496.4681 177.63086 496.1556 177.57878 495.94727 177.47461 C 495.8431 177.26628 495.79102 176.74544 495.79102 175.91211 L 495.79102 165.59961 C 495.79102 164.14128 495.27018 163.04753 494.22852 162.31836 C 493.18685 161.48503 491.62435 161.06836 489.54102 161.06836 z M 461.57227 161.38086 L 461.57227 162.31836 L 462.19727 162.31836 C 462.61393 162.31836 462.97852 162.47461 463.29102 162.78711 C 463.70768 162.99544 463.9681 163.30794 464.07227 163.72461 L 469.38477 177.47461 C 469.17643 178.30794 468.91602 179.08919 468.60352 179.81836 C 468.29102 180.65169 467.97852 181.32878 467.66602 181.84961 C 467.56185 182.16211 467.4056 182.37044 467.19727 182.47461 C 466.98893 182.57878 466.72852 182.63086 466.41602 182.63086 C 466.20768 182.63086 465.89518 182.47461 465.47852 182.16211 C 465.06185 181.74544 464.64518 181.53711 464.22852 181.53711 C 463.70768 181.53711 463.29102 181.69336 462.97852 182.00586 C 462.77018 182.31836 462.66602 182.63086 462.66602 182.94336 C 462.66602 183.46419 462.87435 183.82878 463.29102 184.03711 C 463.70768 184.34961 464.2806 184.50586 465.00977 184.50586 C 466.25977 184.50586 467.24935 184.03711 467.97852 183.09961 C 468.81185 182.26628 469.48893 181.06836 470.00977 179.50586 L 475.32227 164.03711 C 475.5306 163.51628 475.8431 163.09961 476.25977 162.78711 C 476.67643 162.47461 477.0931 162.31836 477.50977 162.31836 L 478.44727 162.31836 L 478.44727 161.38086 L 471.88477 161.38086 L 471.88477 162.31836 L 472.82227 162.31836 C 473.23893 162.31836 473.55143 162.47461 473.75977 162.78711 C 474.07227 163.09961 474.12435 163.51628 473.91602 164.03711 L 470.47852 174.50586 L 470.16602 174.50586 L 466.41602 163.88086 C 466.31185 163.36003 466.36393 162.99544 466.57227 162.78711 C 466.7806 162.47461 467.0931 162.31836 467.50977 162.31836 L 468.13477 162.31836 L 468.13477 161.38086 L 461.57227 161.38086 z M 290.16602 162.16211 C 291.62435 162.16211 292.77018 162.78711 293.60352 164.03711 C 294.54102 165.18294 294.95768 166.90169 294.85352 169.19336 L 284.85352 169.19336 C 284.85352 167.00586 285.32227 165.28711 286.25977 164.03711 C 287.30143 162.78711 288.60352 162.16211 290.16602 162.16211 z M 369.38477 162.16211 C 370.5306 162.16211 371.4681 162.57878 372.19727 163.41211 C 373.0306 164.14128 373.44727 165.39128 373.44727 167.16211 C 373.44727 168.62044 373.08268 169.76628 372.35352 170.59961 C 371.72852 171.32878 370.73893 171.69336 369.38477 171.69336 C 368.13477 171.69336 367.14518 171.27669 366.41602 170.44336 C 365.68685 169.50586 365.32227 168.41211 365.32227 167.16211 C 365.32227 165.39128 365.68685 164.14128 366.41602 163.41211 C 367.24935 162.57878 368.23893 162.16211 369.38477 162.16211 z M 389.38477 162.16211 C 390.5306 162.16211 391.4681 162.57878 392.19727 163.41211 C 393.0306 164.14128 393.44727 165.39128 393.44727 167.16211 C 393.44727 168.62044 393.08268 169.76628 392.35352 170.59961 C 391.72852 171.32878 390.73893 171.69336 389.38477 171.69336 C 388.13477 171.69336 387.14518 171.27669 386.41602 170.44336 C 385.68685 169.50586 385.32227 168.41211 385.32227 167.16211 C 385.32227 165.39128 385.68685 164.14128 386.41602 163.41211 C 387.24935 162.57878 388.23893 162.16211 389.38477 162.16211 z M 413.60352 168.41211 L 413.60352 175.75586 C 412.56185 176.48503 411.57227 177.05794 410.63477 177.47461 C 409.69727 177.78711 408.75977 177.94336 407.82227 177.94336 C 406.57227 177.94336 405.63477 177.57878 405.00977 176.84961 C 404.48893 176.01628 404.22852 175.13086 404.22852 174.19336 C 404.22852 172.73503 404.9056 171.53711 406.25977 170.59961 C 407.61393 169.55794 410.06185 168.82878 413.60352 168.41211 z M 493.60352 168.41211 L 493.60352 175.75586 C 492.56185 176.48503 491.57227 177.05794 490.63477 177.47461 C 489.69727 177.78711 488.75977 177.94336 487.82227 177.94336 C 486.57227 177.94336 485.63477 177.57878 485.00977 176.84961 C 484.48893 176.01628 484.22852 175.13086 484.22852 174.19336 C 484.22852 172.73503 484.9056 171.53711 486.25977 170.59961 C 487.61393 169.55794 490.06185 168.82878 493.60352 168.41211 z M 366.57227 176.84961 C 367.92643 177.05794 369.22852 177.21419 370.47852 177.31836 C 371.72852 177.52669 372.87435 177.73503 373.91602 177.94336 C 374.43685 178.04753 374.80143 178.30794 375.00977 178.72461 C 375.32227 179.14128 375.47852 179.71419 375.47852 180.44336 C 375.47852 181.58919 374.95768 182.42253 373.91602 182.94336 C 372.87435 183.56836 371.4681 183.88086 369.69727 183.88086 C 367.82227 183.88086 366.41602 183.51628 365.47852 182.78711 C 364.54102 182.05794 364.07227 181.27669 364.07227 180.44336 C 364.07227 179.61003 364.22852 178.93294 364.54102 178.41211 C 364.95768 177.78711 365.63477 177.26628 366.57227 176.84961 z M 386.57227 176.84961 C 387.92643 177.05794 389.22852 177.21419 390.47852 177.31836 C 391.72852 177.52669 392.87435 177.73503 393.91602 177.94336 C 394.43685 178.04753 394.80143 178.30794 395.00977 178.72461 C 395.32227 179.14128 395.47852 179.71419 395.47852 180.44336 C 395.47852 181.58919 394.95768 182.42253 393.91602 182.94336 C 392.87435 183.56836 391.4681 183.88086 389.69727 183.88086 C 387.82227 183.88086 386.41602 183.51628 385.47852 182.78711 C 384.54102 182.05794 384.07227 181.27669 384.07227 180.44336 C 384.07227 179.61003 384.22852 178.93294 384.54102 178.41211 C 384.95768 177.78711 385.63477 177.26628 386.57227 176.84961 z "
         inkscape:radius="0"
         sodipodi:type="inkscape:offset" />
      <text
         xml:space="preserve"
         style="font-style:normal;font-variant:normal;font-weight:normal;font-stretch:normal;line-height:0%;font-family:SimSun;-inkscape-font-specification:SimSun;text-align:center;letter-spacing:0px;word-spacing:0px;text-anchor:middle;fill:#000000;fill-opacity:1;stroke:none;stroke-width:1px;stroke-linecap:butt;stroke-linejoin:miter;stroke-opacity:1"
         x="193.71501"
         y="906.70984"
         id="text3395"><tspan
           sodipodi:role="line"
           x="193.71501"
           y="906.70984"
           id="tspan3403"
           style="font-size:15.33808517px;line-height:1.25">oleh</tspan><tspan
           id="tspan3414"
           sodipodi:role="line"
           x="193.71501"
           y="925.88245"
           style="font-size:15.33808517px;line-height:1.25">Rm. Basilius Edy Wiyanto Pr.</tspan><tspan
           id="tspan3416"
           sodipodi:role="line"
           x="197.54953"
           y="945.05505"
           style="font-size:15.33808517px;line-height:1.25"> </tspan><tspan
           id="tspan3418"
           sodipodi:role="line"
           x="193.71501"
           y="964.22766"
           style="font-size:15.33808517px;line-height:1.25">10 Maret 2018</tspan></text>
      <text
         xml:space="preserve"
         style="font-style:normal;font-weight:normal;line-height:0%;font-family:sans-serif;letter-spacing:0px;word-spacing:0px;fill:#000000;fill-opacity:1;stroke:none;stroke-width:1px;stroke-linecap:butt;stroke-linejoin:miter;stroke-opacity:1"
         x="101.05301"
         y="703.89459"
         id="text3348"><tspan
           sodipodi:role="line"
           id="tspan3350"
           x="101.05301"
           y="703.89459"
           style="font-size:15px;line-height:1.25;font-family:sans-serif"><tspan
             style="font-size:12.5px;font-family:sans-serif"
             id="tspan3354">(10 Maret 1940 - 21 Juni 2015)</tspan></tspan></text>
    </g>
  </g>
</svg>
